<?xml version="1.0" standalone="no"?>
<!DOCTYPE svg PUBLIC "-//W3C//DTD SVG 20010904//EN"
 "http://www.w3.org/TR/2001/REC-SVG-20010904/DTD/svg10.dtd">
<svg version="1.0" xmlns="http://www.w3.org/2000/svg"
 width="1855.000000pt" height="1855.000000pt" viewBox="0 0 1855.000000 1855.000000"
 preserveAspectRatio="xMidYMid meet">
<metadata>
Created by potrace 1.11, written by Peter Selinger 2001-2013
</metadata>
<g transform="translate(0.000000,1855.000000) scale(0.100000,-0.100000)"
fill="#000000" stroke="none">
<path d="M6 16947 c31 -193 112 -596 174 -859 11 -49 29 -125 39 -170 22 -94
90 -356 121 -465 20 -74 47 -167 73 -258 34 -120 173 -538 193 -582 8 -17 14
-36 14 -43 0 -7 6 -26 14 -43 8 -18 29 -70 46 -117 29 -77 45 -117 70 -175 5
-11 23 -54 40 -95 17 -41 38 -90 46 -107 8 -18 21 -50 30 -70 115 -265 290
-604 494 -952 46 -77 104 -166 113 -169 4 -2 7 -8 7 -14 0 -6 11 -26 25 -44
14 -18 25 -35 25 -37 0 -4 53 -81 165 -242 34 -48 200 -271 210 -281 5 -6 21
-26 35 -44 14 -18 33 -42 44 -54 10 -11 30 -37 45 -56 14 -19 33 -42 41 -50 8
-9 38 -43 65 -75 28 -33 61 -71 75 -86 14 -15 54 -60 90 -101 71 -80 442 -452
531 -533 98 -88 144 -129 203 -180 32 -27 69 -60 82 -72 13 -12 41 -34 61 -50
21 -15 43 -33 48 -39 6 -6 35 -30 65 -53 30 -24 75 -59 98 -79 24 -20 130
-101 235 -179 106 -78 197 -147 203 -151 5 -5 21 -15 35 -22 13 -7 26 -16 29
-19 10 -12 367 -253 391 -264 8 -4 32 -18 54 -31 22 -14 56 -33 75 -43 19 -9
37 -20 40 -24 3 -3 15 -9 26 -13 12 -4 31 -14 42 -24 12 -9 91 -57 177 -107
86 -49 167 -97 180 -105 13 -8 70 -42 127 -74 57 -33 105 -62 108 -66 3 -3 32
-22 65 -40 33 -19 62 -37 63 -42 2 -4 7 -8 12 -8 9 0 111 -61 120 -71 3 -3 10
-8 15 -10 14 -6 144 -84 315 -189 80 -50 156 -96 170 -102 14 -7 27 -15 30
-18 11 -11 112 -70 121 -70 5 0 9 -4 9 -9 0 -5 8 -11 18 -15 9 -3 37 -19 62
-36 25 -16 56 -34 69 -40 12 -6 46 -25 75 -44 50 -33 357 -212 396 -231 28
-14 25 -22 -13 -34 -68 -23 -378 -207 -467 -278 -8 -6 -51 -40 -95 -74 -44
-34 -87 -69 -96 -78 -9 -9 -47 -43 -84 -76 -75 -65 -236 -229 -281 -285 -16
-19 -31 -37 -35 -40 -3 -3 -30 -34 -60 -70 -29 -36 -55 -67 -59 -70 -3 -3 -29
-36 -57 -75 -29 -38 -56 -74 -60 -80 -13 -17 -127 -185 -138 -202 -5 -9 -29
-48 -52 -85 -24 -38 -43 -73 -43 -78 0 -6 -3 -10 -7 -10 -5 0 -24 -31 -43 -68
-19 -37 -38 -69 -41 -72 -7 -7 -140 -278 -174 -355 -40 -91 -114 -281 -121
-312 -4 -15 -10 -32 -14 -38 -5 -5 -13 -30 -19 -55 -7 -25 -16 -54 -21 -65
-10 -22 -32 -98 -60 -215 -11 -41 -23 -93 -29 -115 -5 -22 -13 -62 -17 -90 -3
-27 -10 -59 -14 -71 -5 -11 -13 -65 -20 -120 -6 -54 -13 -117 -15 -139 -31
-267 -26 -439 21 -760 12 -82 46 -211 66 -246 25 -46 88 -86 146 -95 66 -10
201 15 306 57 88 35 326 148 336 160 3 3 20 13 38 22 77 40 98 51 107 59 17
14 79 53 105 65 14 7 66 40 115 73 50 33 102 65 117 71 16 6 28 15 28 19 0 5
8 11 19 15 10 3 28 13 39 23 12 9 44 31 71 47 28 17 51 33 51 38 0 4 5 7 11 7
12 0 102 61 107 73 2 4 8 7 14 7 6 0 26 11 44 25 18 14 35 25 39 25 3 0 30 18
60 40 30 22 57 40 60 40 3 0 30 18 60 40 30 22 56 40 58 40 2 0 48 29 103 65
220 145 283 185 293 185 5 0 11 4 13 8 2 4 37 29 78 55 41 25 80 50 86 54 13
10 23 16 210 123 173 100 515 270 542 270 8 0 94 42 122 60 8 5 69 39 135 76
66 38 174 104 240 148 123 82 134 90 164 116 9 8 39 33 66 55 63 51 179 167
225 224 19 24 40 48 45 55 94 106 205 351 234 516 6 36 14 76 17 90 6 27 6
699 -1 1060 -9 456 -14 843 -20 1585 -8 1010 -10 1065 -35 1189 -21 100 -79
271 -119 353 -12 23 -21 47 -21 53 0 5 -4 10 -9 10 -5 0 -14 12 -20 28 -15 40
-113 192 -146 228 -5 6 -21 26 -35 44 -103 138 -313 333 -485 451 -27 19 -55
39 -62 44 -7 6 -18 15 -25 21 -7 5 -28 17 -45 24 -18 8 -33 17 -33 21 0 3 -16
11 -35 19 -19 8 -35 17 -35 21 0 4 -10 11 -21 14 -12 4 -78 39 -148 79 -69 39
-142 79 -161 89 -19 10 -42 22 -50 27 -8 5 -64 36 -125 70 -60 34 -117 65
-125 70 -8 5 -31 17 -50 27 -19 10 -93 50 -163 90 -71 40 -132 73 -137 73 -5
0 -15 6 -22 13 -13 11 -85 51 -183 101 -22 12 -42 24 -45 27 -3 4 -21 14 -40
23 -19 8 -42 20 -50 25 -25 17 -202 116 -260 146 -30 16 -57 31 -60 34 -3 3
-21 14 -40 23 -19 10 -66 35 -105 56 -38 22 -97 54 -130 72 -79 43 -196 109
-215 120 -8 5 -31 17 -50 27 -37 19 -285 157 -310 173 -8 5 -31 17 -50 27 -19
10 -92 50 -161 89 -70 40 -136 75 -148 79 -11 3 -21 11 -21 16 0 5 -5 9 -11 9
-6 0 -42 18 -79 40 -38 22 -91 52 -117 66 -26 13 -82 44 -124 67 -41 23 -124
69 -185 101 -60 33 -111 62 -114 65 -5 6 -86 50 -175 95 -22 12 -42 24 -45 27
-3 4 -36 23 -75 43 -38 19 -101 54 -140 76 -38 22 -87 48 -107 57 -21 10 -38
21 -38 25 0 5 -5 8 -11 8 -6 0 -68 32 -138 72 -69 39 -153 86 -186 103 -33 18
-98 55 -145 82 -47 27 -100 55 -117 62 -18 7 -33 17 -33 22 0 5 -5 9 -11 9 -9
0 -211 109 -259 140 -8 5 -31 17 -50 27 -19 10 -93 50 -164 90 -71 40 -132 73
-137 73 -4 0 -14 6 -21 13 -13 11 -85 51 -183 101 -22 12 -42 24 -45 27 -3 4
-15 9 -27 13 -13 4 -29 13 -35 19 -7 7 -29 20 -48 29 -19 10 -66 35 -105 58
-38 22 -97 54 -130 71 -33 17 -62 34 -65 38 -5 6 -81 47 -175 95 -22 12 -42
23 -45 27 -3 3 -34 20 -70 38 -36 19 -67 36 -70 40 -3 3 -35 22 -73 41 -102
53 -134 70 -242 131 -107 60 -162 91 -265 147 -36 19 -69 38 -75 42 -11 8
-132 74 -180 98 -16 9 -32 18 -35 21 -5 6 -85 49 -175 95 -22 12 -42 23 -45
26 -3 3 -21 13 -40 23 -19 9 -62 33 -95 53 -33 19 -76 42 -95 52 -19 9 -37 20
-40 23 -3 3 -18 12 -35 21 -29 14 -76 40 -181 99 -51 29 -51 29 -48 6z"/>
<path d="M13655 14190 c-27 -5 -59 -13 -70 -18 -41 -19 -161 -62 -173 -62 -6
0 -12 -4 -12 -10 0 -5 -5 -10 -12 -10 -12 0 -220 -101 -228 -111 -3 -3 -32
-21 -65 -38 -54 -29 -217 -125 -255 -151 -8 -6 -30 -18 -47 -27 -18 -9 -33
-20 -33 -24 0 -3 -13 -12 -30 -19 -16 -7 -30 -16 -30 -21 0 -5 -5 -9 -11 -9
-6 0 -30 -13 -54 -30 -24 -16 -48 -30 -54 -30 -6 0 -11 -3 -11 -7 0 -5 -23
-21 -51 -38 -28 -16 -56 -35 -63 -41 -6 -6 -22 -17 -36 -24 -13 -7 -29 -17
-34 -22 -6 -5 -33 -23 -61 -41 -27 -17 -54 -35 -60 -40 -5 -4 -32 -22 -60 -40
-27 -17 -54 -35 -60 -40 -8 -7 -250 -166 -345 -227 -8 -5 -31 -20 -50 -33 -37
-24 -292 -185 -321 -202 -312 -184 -474 -271 -634 -339 -144 -62 -182 -80
-294 -143 -51 -29 -95 -53 -98 -53 -2 0 -16 -8 -31 -19 -15 -10 -87 -57 -161
-105 -130 -85 -145 -95 -180 -126 -9 -8 -35 -28 -56 -45 -53 -39 -213 -200
-250 -250 -17 -22 -32 -42 -35 -45 -15 -15 -70 -100 -70 -108 0 -6 -4 -12 -9
-14 -26 -9 -130 -271 -146 -368 -4 -25 -9 -54 -12 -65 -22 -100 -22 -92 2
-1685 2 -107 6 -555 10 -995 4 -440 8 -865 10 -945 5 -188 35 -343 95 -495 12
-30 109 -227 123 -250 44 -72 122 -185 147 -214 8 -9 40 -46 70 -82 110 -129
273 -275 425 -380 27 -18 55 -39 62 -46 7 -6 22 -15 33 -18 11 -3 20 -10 20
-15 0 -4 12 -13 28 -19 15 -7 45 -23 67 -36 22 -13 56 -32 75 -42 19 -10 93
-50 163 -90 71 -40 132 -73 137 -73 5 0 15 -6 22 -12 7 -7 29 -21 48 -30 19
-9 67 -35 105 -57 39 -23 88 -50 110 -61 22 -11 47 -25 55 -30 39 -26 280
-159 299 -165 11 -3 21 -11 21 -16 0 -5 5 -9 11 -9 6 0 67 -31 135 -70 68 -38
125 -70 128 -70 2 0 63 -33 134 -74 72 -41 154 -87 184 -102 29 -14 55 -29 58
-33 3 -3 21 -14 40 -23 19 -10 67 -35 105 -57 39 -22 86 -48 105 -58 19 -9 80
-43 136 -75 56 -32 106 -58 113 -58 6 0 11 -4 11 -9 0 -5 9 -12 20 -16 17 -5
257 -138 300 -165 8 -5 31 -17 50 -27 19 -9 73 -39 120 -66 47 -27 110 -62
140 -78 30 -16 62 -33 70 -38 31 -19 226 -127 260 -144 19 -10 42 -22 50 -27
45 -28 210 -118 238 -131 17 -7 32 -17 32 -21 0 -5 5 -8 11 -8 10 0 208 -107
259 -140 8 -6 22 -13 30 -17 19 -9 219 -120 240 -133 8 -6 32 -18 53 -27 20
-10 37 -21 37 -25 0 -5 5 -8 12 -8 6 0 45 -20 87 -44 42 -24 103 -58 136 -76
98 -53 166 -90 235 -130 36 -20 101 -57 145 -80 96 -52 304 -167 325 -180 8
-5 29 -16 45 -24 17 -9 62 -33 100 -56 39 -22 86 -48 105 -57 19 -10 36 -21
38 -25 2 -5 10 -8 17 -8 8 0 20 -6 27 -13 13 -11 85 -51 183 -101 22 -12 42
-23 45 -26 3 -3 21 -13 40 -22 19 -10 42 -22 50 -27 24 -16 222 -126 255 -143
17 -8 46 -24 65 -35 19 -11 71 -40 115 -64 44 -24 89 -49 100 -56 11 -6 36
-20 55 -29 19 -10 71 -39 115 -64 44 -25 96 -54 115 -63 19 -10 42 -22 50 -27
48 -31 250 -140 259 -140 6 0 11 -4 11 -10 0 -5 6 -10 14 -10 8 0 21 -6 28
-12 7 -7 26 -20 43 -28 16 -8 87 -47 156 -86 70 -40 136 -75 148 -79 11 -3 21
-11 21 -16 0 -5 5 -9 11 -9 9 0 240 -124 279 -150 8 -6 22 -13 30 -17 8 -3 60
-32 115 -63 55 -32 110 -61 123 -64 12 -4 22 -12 22 -17 0 -5 6 -9 13 -9 6 0
46 -20 87 -44 41 -24 76 -43 76 -43 4 4 -53 306 -86 462 -6 28 -13 68 -17 90
-3 22 -9 47 -13 55 -6 12 -19 83 -21 112 0 4 -5 22 -10 40 -5 18 -18 71 -29
118 -30 133 -47 207 -74 310 -50 195 -98 376 -111 420 -8 25 -23 79 -35 120
-30 104 -62 204 -136 425 -81 242 -92 273 -108 310 -7 17 -26 66 -42 110 -15
44 -30 82 -33 85 -3 3 -7 12 -9 20 -2 8 -10 29 -17 45 -7 17 -28 64 -45 105
-17 41 -38 91 -47 110 -8 19 -22 51 -31 70 -8 19 -24 55 -34 80 -22 49 -243
496 -258 520 -5 8 -49 84 -97 169 -48 85 -98 170 -110 190 -12 20 -30 49 -39
65 -13 24 -109 174 -147 230 -6 10 -31 43 -54 75 -23 31 -43 62 -43 69 0 6 -5
12 -10 12 -6 0 -14 8 -18 18 -4 10 -54 80 -112 157 -103 138 -113 151 -158
203 -12 15 -26 32 -30 37 -19 26 -132 163 -152 185 -8 8 -28 31 -44 50 -101
123 -479 512 -656 675 -107 98 -321 284 -430 372 -19 15 -40 32 -46 38 -6 5
-26 21 -44 35 -19 14 -45 34 -59 46 -62 51 -428 322 -451 334 -13 7 -30 18
-37 24 -7 6 -18 16 -25 21 -14 11 -120 84 -147 100 -9 6 -63 42 -121 80 -58
38 -118 76 -135 84 -16 8 -32 18 -35 22 -3 3 -32 21 -65 38 -33 18 -73 41 -90
50 -16 10 -99 58 -183 107 -84 49 -167 98 -186 109 -18 11 -77 46 -132 78
-133 79 -207 124 -221 136 -7 6 -15 11 -19 11 -4 0 -32 17 -63 38 -30 20 -60
39 -66 42 -23 11 -160 95 -165 100 -3 4 -32 22 -65 40 -56 32 -167 100 -191
117 -10 8 -43 28 -79 48 -31 17 -134 78 -160 95 -13 8 -70 42 -127 74 -57 33
-109 65 -116 72 -6 7 -22 16 -35 20 -12 4 -24 10 -27 14 -3 3 -76 46 -162 95
-86 50 -154 93 -152 97 2 3 37 23 77 42 112 55 184 97 287 165 86 58 238 170
266 196 6 5 30 26 54 45 249 205 533 531 752 865 86 132 188 302 188 314 0 5
6 16 13 23 12 13 106 198 171 340 46 100 136 333 136 352 0 8 4 17 9 20 5 3
15 30 22 58 6 29 16 60 20 68 15 27 71 246 99 385 9 50 20 101 24 115 3 14 13
84 22 155 8 72 17 148 20 170 7 54 7 438 0 461 -7 24 -13 63 -21 144 -8 76 -9
81 -31 174 -30 135 -54 179 -121 223 -27 18 -150 25 -218 13z"/>
</g>
</svg>
