<?xml version="1.0" encoding="UTF-8"?>
<!DOCTYPE svg PUBLIC "-//W3C//DTD SVG 1.1//EN" "http://www.w3.org/Graphics/SVG/1.1/DTD/svg11.dtd">
<!-- Creator: CorelDRAW X6 -->
<svg xmlns="http://www.w3.org/2000/svg" xml:space="preserve" width="2480px" height="3508px" version="1.1" style="shape-rendering:geometricPrecision; text-rendering:geometricPrecision; image-rendering:optimizeQuality; fill-rule:evenodd; clip-rule:evenodd"
viewBox="0 0 2480 3507"
 xmlns:xlink="http://www.w3.org/1999/xlink">
 <defs>
  <style type="text/css">
   <![CDATA[
    .fil0 {fill:#FEFEFE}
   ]]>
  </style>
 </defs>
 <g id="Camada_x0020_1">
  <metadata id="CorelCorpID_0Corel-Layer"/>
  <g id="_597343248">
   <path class="fil0" d="M218 2586l1855 0 0 -464c-1256,-100 -1855,464 -1855,464z"/>
   <path class="fil0" d="M1618 1804l0 -298c57,9 101,48 101,-89 0,-150 -119,-458 -119,-458 0,0 -119,308 -119,458 0,139 45,96 104,88l0 301c-76,7 -151,19 -224,32l0 -368 9 6c7,5 15,7 22,7 11,0 22,-5 30,-15 12,-16 9,-40 -7,-52l-88 -66c0,-1 0,-3 0,-4l0 -62c0,-21 -17,-37 -37,-37 -20,0 -37,17 -37,37l0 10 -86 -64c-13,-10 -31,-10 -44,0l-248 186c-17,12 -20,36 -7,52 12,17 36,20 52,7l9 -6 0 215c-343,-178 -710,-127 -710,-127l0 206c0,0 496,-108 954,98 -57,-57 -119,-104 -181,-142l0 -298 155 -116 155 116 0 427c-398,86 -738,253 -901,360 367,-112 1051,-348 1673,-197l0 -197c-152,-24 -305,-26 -455,-13z"/>
  </g>
 </g>
</svg>
