<?xml version="1.0" encoding="UTF-8"?>
<!DOCTYPE svg PUBLIC "-//W3C//DTD SVG 1.0//EN" "http://www.w3.org/TR/2001/REC-SVG-20010904/DTD/svg10.dtd">
<!-- Creator: CorelDRAW X6 -->
<svg xmlns="http://www.w3.org/2000/svg" xml:space="preserve" width="96px" height="96px" version="1.0" style="shape-rendering:geometricPrecision; text-rendering:geometricPrecision; image-rendering:optimizeQuality; fill-rule:evenodd; clip-rule:evenodd"
viewBox="0 0 96 96"
 xmlns:xlink="http://www.w3.org/1999/xlink">
 <defs>
  <style type="text/css">
   <![CDATA[
    .fil0 {fill:white}
   ]]>
  </style>
 </defs>
 <g id="Camada_x0020_1">
  <metadata id="CorelCorpID_0Corel-Layer"/>
  <g id="_593794224">
   <g id="_439303784">
    <path class="fil0" d="M63 41l-58 0c-1,0 -2,1 -2,2l0 46c0,1 1,2 2,2l58 0c1,0 2,-1 2,-2l0 -46c0,-1 -1,-2 -2,-2zm-58 3l3 3 0 38 -3 3 0 -44 0 0 0 0zm5 40l0 -37 49 0 0 37 -49 0zm49 -39l-50 0 -3 -3 56 0 -3 3 0 0 0 0zm-50 41l50 0 3 3 -56 0 3 -3 0 0 0 0zm51 -1l0 -38 3 -3 0 44 -3 -3 0 0 0 0z"/>
    <path class="fil0" d="M54 51l-41 0c-1,0 -1,0 -1,1l0 29c0,1 0,1 1,1l41 0c1,0 1,0 1,-1l0 -29c0,-1 0,-1 -1,-1zm-1 2l0 22 -7 0 -14 -14c0,0 -1,0 -1,0l-7 7 -2 -2c0,0 0,0 -1,0 0,0 -1,0 -1,0l-7 7 0 -21 39 0 0 0 0 0zm-39 27l0 -3 8 -8 5 5c0,0 1,0 1,0 0,0 0,-1 0,-1l-3 -3 6 -6 13 13c0,0 0,0 1,0l8 0 0 3 -39 0 0 0 1 0z"/>
    <path class="fil0" d="M43 64c2,0 4,-2 4,-4 0,-2 -2,-4 -4,-4 -2,0 -4,2 -4,4 0,2 2,4 4,4zm0 -6c1,0 2,1 2,2 0,1 -1,2 -2,2 -1,0 -2,-1 -2,-2 0,-1 1,-2 2,-2z"/>
   </g>
   <rect class="fil0" x="4" y="85" width="60" height="5"/>
   <rect class="fil0" x="4" y="44" width="5" height="47"/>
   <rect class="fil0" x="60" y="43" width="5" height="45"/>
   <rect class="fil0" x="6" y="41" width="57" height="5"/>
   <polygon class="fil0" points="54,76 45,76 32,63 25,70 22,68 14,76 14,80 54,80 "/>
   <circle class="fil0" cx="43" cy="60" r="3"/>
   <g id="_439300520">
    <path class="fil0" d="M84 33c-2,1 -2,3 -1,5 1,2 3,2 5,1 2,-1 5,-5 3,-7 -1,-2 -6,0 -7,1l0 0z"/>
    <path class="fil0" d="M90 42l-9 0 0 -11c-1,0 -1,0 -2,0 -1,0 -1,0 -2,0l0 11 -9 0c-1,0 -2,1 -2,2 0,1 1,2 2,2l1 0 3 11c0,1 2,2 3,2l9 0c1,0 3,-1 3,-2l3 -11 1 0c1,0 2,-1 2,-2 0,-1 -1,-2 -2,-2l0 0 -1 0z"/>
    <path class="fil0" d="M75 33c-2,-1 -6,-3 -7,-1 -1,2 2,6 3,7 2,1 4,1 5,-1 1,-2 1,-4 -1,-5l0 0z"/>
    <path class="fil0" d="M86 17c0,3 -3,6 -6,6 -3,0 -6,-3 -6,-6 0,-3 3,-6 6,-6 3,0 6,3 6,6z"/>
    <path class="fil0" d="M71 20c-1,2 -1,4 1,5 1,1 2,1 3,1 1,0 1,0 2,-1 0,2 2,3 4,3 2,0 4,-1 4,-3 1,0 1,1 2,1 1,0 2,0 3,-1 1,-1 2,-3 1,-5 2,0 3,-2 3,-4 0,-2 -1,-4 -3,-4 1,-2 1,-4 -1,-5 -1,-1 -2,-1 -3,-1 -1,0 -1,0 -2,1 0,-2 -2,-3 -4,-3 -2,0 -4,1 -4,3 -1,0 -1,-1 -2,-1 -1,0 -2,0 -3,1 -1,1 -2,3 -1,5 -2,0 -3,2 -3,4 0,2 1,4 3,4l0 0zm10 -12c4,0 8,3 8,8 0,4 -3,8 -8,8 -4,0 -8,-3 -8,-8 0,-4 3,-8 8,-8z"/>
   </g>
  </g>
 </g>
</svg>
