<?xml version="1.0" encoding="UTF-8"?>
<!DOCTYPE svg PUBLIC "-//W3C//DTD SVG 1.0//EN" "http://www.w3.org/TR/2001/REC-SVG-20010904/DTD/svg10.dtd">
<!-- Creator: CorelDRAW X6 -->
<svg xmlns="http://www.w3.org/2000/svg" xml:space="preserve" width="96px" height="96px" version="1.0" style="shape-rendering:geometricPrecision; text-rendering:geometricPrecision; image-rendering:optimizeQuality; fill-rule:evenodd; clip-rule:evenodd"
viewBox="0 0 96 96"
 xmlns:xlink="http://www.w3.org/1999/xlink">
 <defs>
  <style type="text/css">
   <![CDATA[
    .fil0 {fill:white}
   ]]>
  </style>
 </defs>
 <g id="Camada_x0020_1">
  <metadata id="CorelCorpID_0Corel-Layer"/>
  <g id="books-piled-.eps">
   <path class="fil0" d="M45 51l10 3c1,0 5,2 11,0 8,-2 27,-6 27,-6l-1 -3c0,0 0,0 0,0l-17 -2c-1,0 -2,0 -3,0l0 0c-1,0 -3,0 -4,0l-23 4c-3,0 -6,2 -7,5 -1,2 0,4 0,5 0,1 1,2 2,2 -1,1 -2,2 -2,3 0,1 0,1 0,2 0,1 0,2 1,3 0,1 1,2 2,2 -1,1 -2,2 -2,3 0,1 0,1 0,2 0,1 0,2 1,3 1,2 2,3 4,3l17 5c1,0 2,0 3,0l29 -7c0,0 0,-1 0,-2 0,-1 -1,-2 -2,-1l-27 6c-1,0 -2,0 -3,0l-16 -5c-1,0 -2,-1 -2,-2 0,-1 0,-2 0,-3 1,-2 2,-3 4,-2 0,0 10,3 14,4 1,0 2,0 3,0l29 -7c0,0 0,-1 0,-2 0,-1 -1,-2 -2,-1l-27 6c-1,0 -2,0 -3,0l-16 -5c-1,0 -2,-1 -2,-2 0,-1 0,-2 0,-3 1,-2 2,-3 4,-2 0,0 10,3 14,4 1,0 2,0 3,0l29 -7c0,0 0,-1 0,-2 0,-1 -1,-2 -2,-1l-27 6c-1,0 -2,0 -3,0l-16 -5c-1,0 -2,-1 -2,-2 0,-1 0,-2 0,-3 1,-2 2,-3 4,-2l0 0 0 0z"/>
  </g>
  <g id="music-player.eps">
   <path class="fil0" d="M16 15l0 27c-1,-1 -3,-2 -5,-2 -4,0 -8,3 -8,7 0,4 3,7 8,7 4,0 8,-3 8,-7l0 -23 23 -6 0 17c-1,-1 -3,-2 -5,-2 -4,0 -8,3 -8,7 0,4 3,7 8,7 4,0 8,-3 8,-7l0 -33 -29 7 0 0 0 0z"/>
  </g>
 </g>
</svg>
