<?xml version="1.0" encoding="UTF-8"?>
<!DOCTYPE svg PUBLIC "-//W3C//DTD SVG 1.1//EN" "http://www.w3.org/Graphics/SVG/1.1/DTD/svg11.dtd">
<!-- Creator: CorelDRAW X6 -->
<svg xmlns="http://www.w3.org/2000/svg" xml:space="preserve" width="2480px" height="3508px" version="1.1" style="shape-rendering:geometricPrecision; text-rendering:geometricPrecision; image-rendering:optimizeQuality; fill-rule:evenodd; clip-rule:evenodd"
viewBox="0 0 2480 3507"
 xmlns:xlink="http://www.w3.org/1999/xlink">
 <defs>
  <style type="text/css">
   <![CDATA[
    .fil0 {fill:#FEFEFE}
   ]]>
  </style>
 </defs>
 <g id="Camada_x0020_1">
  <metadata id="CorelCorpID_0Corel-Layer"/>
  <g id="_597402936">
   <path class="fil0" d="M1501 1169c0,188 -153,341 -341,341 -188,0 -341,-153 -341,-341 0,-188 153,-341 341,-341 188,0 341,153 341,341z"/>
   <path class="fil0" d="M1305 1534l-289 0c-241,0 -437,196 -437,437l0 354 1 6 24 8c230,72 429,96 594,96 321,0 507,-92 518,-97l23 -12 2 0 0 -354c0,-241 -196,-437 -437,-437zm-77 687l-62 91c-1,1 -2,2 -4,2l0 0c-1,0 -3,-1 -4,-2l-58 -91c0,-1 -1,-2 -1,-3l29 -444c0,-2 2,-4 4,-4l60 0c2,0 4,2 4,4l31 444c0,1 0,2 -1,3zm-28 -464l-72 0 -62 -129c0,-12 10,-22 22,-22l149 0c12,0 22,10 22,22l-60 129z"/>
  </g>
 </g>
</svg>
