<?xml version="1.0" encoding="UTF-8"?>
<!DOCTYPE svg PUBLIC "-//W3C//DTD SVG 1.1//EN" "http://www.w3.org/Graphics/SVG/1.1/DTD/svg11.dtd">
<!-- Creator: CorelDRAW X6 -->
<svg xmlns="http://www.w3.org/2000/svg" xml:space="preserve" width="96px" height="96px" version="1.1" style="shape-rendering:geometricPrecision; text-rendering:geometricPrecision; image-rendering:optimizeQuality; fill-rule:evenodd; clip-rule:evenodd"
viewBox="0 0 9600000 9600000"
 xmlns:xlink="http://www.w3.org/1999/xlink">
 <defs>
  <style type="text/css">
   <![CDATA[
    .fil0 {fill:white}
   ]]>
  </style>
 </defs>
 <g id="Camada_x0020_1">
  <metadata id="CorelCorpID_0Corel-Layer"/>
  <g id="baby-carriage-with-wheels.eps">
   <path class="fil0" d="M4170945 7848425c-96850,0 -193583,0 -290315,-96850 -387047,0 -774213,290315 -774213,774213 0,387047 290315,774213 774213,774213 387047,0 774213,-290315 774213,-774213 0,-290315 -193583,-580630 -483898,-677362l0 0 0 0zm-290315 1161260c-290315,0 -483898,-193583 -483898,-483898 0,-290315 193583,-483898 483898,-483898 290315,0 483898,193583 483898,483898 0,290315 -193583,483898 -483898,483898z"/>
   <path class="fil0" d="M4170945 8525787c0,193583 -96850,290315 -290315,290315 -193583,0 -290315,-96732 -290315,-290315 0,-193583 96732,-290315 290315,-290315 193583,0 290315,96850 290315,290315l0 0z"/>
   <path class="fil0" d="M4751575 7848425c-96732,0 -96732,0 -193583,0 96850,96732 96850,193465 193583,290315 0,-96850 96732,-193583 193583,-290315 -96850,0 -96850,0 -193583,0l0 0z"/>
   <path class="fil0" d="M5622520 7751575c-96732,0 -193465,0 -290315,96850 -290197,96732 -483780,387047 -483780,677362 0,387047 290315,774213 774213,774213 387047,0 774213,-290315 774213,-774213 0,-387047 -290315,-774213 -774213,-774213l0 0 -118 0zm0 1258110c-290315,0 -483780,-193583 -483780,-483898 0,-290315 193465,-483898 483780,-483898 290433,0 483898,193583 483898,483898 0,290315 -193583,483898 -483898,483898z"/>
   <path class="fil0" d="M5912835 8525787c0,193583 -96732,290315 -290315,290315 -193465,0 -290315,-96732 -290315,-290315 0,-193583 96850,-290315 290433,-290315 193465,0 290315,96850 290315,290315l-118 0z"/>
   <path class="fil0" d="M3880630 7557992c96732,0 193583,0 290315,96850 193583,0 387047,0 580630,0 193583,0 387165,0 580630,0 96850,0 193583,-96850 290433,-96850 1451575,-290197 2516102,-1451575 2806417,-2903150l-7161260 0c290315,1451575 1354843,2516102 2806417,2903150l-193583 0z"/>
   <path class="fil0" d="M5622520 493583l0 3483780 2806535 0c0,-1645157 -1258110,-3096732 -2806535,-3483780z"/>
   <path class="fil0" d="M5332205 396850c-193583,0 -387047,-96850 -483898,-96850l0 3580630 483898 0 0 -3483780 0 0z"/>
   <path class="fil0" d="M1170945 4461260l7257992 0c0,-96732 0,-290315 0,-387047l-7257992 0c0,96732 0,290315 0,387047z"/>
  </g>
 </g>
</svg>
