<?xml version="1.0" encoding="UTF-8"?>
<!DOCTYPE svg PUBLIC "-//W3C//DTD SVG 1.1//EN" "http://www.w3.org/Graphics/SVG/1.1/DTD/svg11.dtd">
<!-- Creator: CorelDRAW X6 -->
<svg xmlns="http://www.w3.org/2000/svg" xml:space="preserve" width="2480px" height="3508px" version="1.1" style="shape-rendering:geometricPrecision; text-rendering:geometricPrecision; image-rendering:optimizeQuality; fill-rule:evenodd; clip-rule:evenodd"
viewBox="0 0 2480 3507"
 xmlns:xlink="http://www.w3.org/1999/xlink">
 <defs>
  <style type="text/css">
   <![CDATA[
    .fil0 {fill:#FEFEFE}
   ]]>
  </style>
 </defs>
 <g id="Camada_x0020_1">
  <metadata id="CorelCorpID_0Corel-Layer"/>
  <g id="_398880064">
   <path class="fil0" d="M1745 649l-503 503 253 253 505 -503c69,-70 69,-184 0,-253 -35,-34 -80,-52 -125,-52l-4 0c-45,1 -90,18 -125,52z"/>
   <path class="fil0" d="M1403 1498l-254 -253 -41 -41c-19,-19 -27,-46 -19,-71 12,-44 16,-92 12,-141 -4,-55 -19,-108 -44,-157 -24,-47 -58,-90 -98,-126 -40,-36 -87,-64 -138,-81 -67,-24 -138,-30 -207,-19 -36,6 -50,50 -24,75l173 173c70,70 74,188 4,257 -36,36 -81,52 -127,52 -46,0 -92,-18 -127,-53l-178 -175c-9,-9 -21,-13 -31,-13 -21,0 -41,15 -44,38 -3,19 -4,39 -4,58 -4,210 172,408 383,428 13,1 27,1 40,1 37,0 71,-4 105,-13 27,-6 53,1 73,21l111 111 105 105 651 651c35,35 81,53 127,53 46,0 92,-18 127,-53 70,-70 70,-184 0,-253l-574 -574z"/>
   <path class="fil0" d="M667 2164l-3 -37c-2,-19 6,-37 19,-50l173 -173c4,-4 12,-4 16,0 36,35 92,35 127,0l58 -58 -254 -254 -58 58c-35,36 -35,92 0,127 4,4 4,12 0,16l-175 173c-13,13 -31,21 -50,19l-37 -3c-15,-1 -28,4 -38,16l-219 269c-15,18 -13,44 3,61l46 46 46 46c16,16 41,18 61,3l269 -219c10,-12 16,-25 16,-40z"/>
  </g>
 </g>
</svg>
