<?xml version="1.0" encoding="UTF-8"?>
<!DOCTYPE svg PUBLIC "-//W3C//DTD SVG 1.0//EN" "http://www.w3.org/TR/2001/REC-SVG-20010904/DTD/svg10.dtd">
<!-- Creator: CorelDRAW X6 -->
<svg xmlns="http://www.w3.org/2000/svg" xml:space="preserve" width="96px" height="96px" version="1.0" style="shape-rendering:geometricPrecision; text-rendering:geometricPrecision; image-rendering:optimizeQuality; fill-rule:evenodd; clip-rule:evenodd"
viewBox="0 0 96 96"
 xmlns:xlink="http://www.w3.org/1999/xlink">
 <defs>
  <style type="text/css">
   <![CDATA[
    .fil0 {fill:white}
   ]]>
  </style>
 </defs>
 <g id="Camada_x0020_1">
  <metadata id="CorelCorpID_0Corel-Layer"/>
  <g id="_596122952">
   <path class="fil0" d="M20 21c-3,-3 -9,-3 -12,0 0,0 0,1 -1,1 -3,3 -2,8 1,11 3,3 8,3 12,0 0,0 0,0 1,-1 3,-3 3,-9 0,-12l0 0zm-7 1l0 3c0,0 -1,0 -1,0l-2 -2c1,-1 2,-1 3,-1zm-4 2l2 2c0,0 0,1 0,1l-3 0c0,-1 0,-2 1,-3l0 0zm0 7c-1,-1 -1,-2 -1,-3l3 0c0,0 0,1 0,1l-2 2zm6 -6c0,0 -1,0 -1,0l0 -3c1,0 2,0 3,1l-2 2zm3 -1c1,1 1,2 1,3l-3 0c0,0 0,-1 0,-1l2 -2zm-8 8l2 -2c0,0 1,0 1,0l0 3c-1,0 -2,0 -3,-1zm4 1l0 -3c0,0 1,0 1,0l2 2c-1,1 -2,1 -3,1zm2 -4c0,0 0,-1 0,-1l3 0c0,1 0,2 -1,3l-2 -2z"/>
   <path class="fil0" d="M72 73c-3,-3 -9,-3 -12,0 0,0 0,1 -1,1 -3,3 -2,8 1,11 3,3 8,3 12,0 0,0 0,0 1,-1 3,-3 3,-9 0,-12l0 0zm-7 1l0 3c0,0 -1,0 -1,0l-2 -2c1,-1 2,-1 3,-1zm-4 2l2 2c0,0 0,1 0,1l-3 0c0,-1 0,-2 1,-3l0 0zm0 7c-1,-1 -1,-2 -1,-3l3 0c0,0 0,1 0,1l-2 2zm6 -6c0,0 -1,0 -1,0l0 -3c1,0 2,0 3,1l-2 2zm3 -1c1,1 1,2 1,3l-3 0c0,0 0,-1 0,-1l2 -2zm-8 8l2 -2c0,0 1,0 1,0l0 3c-1,0 -2,0 -3,-1zm4 1l0 -3c0,0 1,0 1,0l2 2c-1,1 -2,1 -3,1zm2 -4c0,0 0,-1 0,-1l3 0c0,1 0,2 -1,3l-2 -2z"/>
   <path class="fil0" d="M87 84l0 -2 4 -4c1,-1 1,-2 2,-4l0 -9c1,-1 1,-3 0,-4 -4,-6 -18,-25 -34,-34 -10,-6 -22,-10 -22,-10 0,0 -16,-12 -23,-11 -3,0 -5,2 -7,3 0,0 0,0 0,0l0 0c-2,2 -3,6 -1,9l1 2c0,0 0,0 0,0 0,0 1,-1 1,-1 4,-4 11,-4 15,0 4,4 4,11 0,15 0,0 0,0 -1,1 0,0 -1,0 -1,1l37 37c0,0 0,0 0,-1 0,0 1,-1 1,-1 4,-4 11,-4 15,0 4,4 4,11 0,15 0,0 0,0 -1,1 0,0 -1,1 -1,1l1 1 3 1c3,1 7,0 10,-2l1 -1c1,0 1,-1 1,-2l0 0zm-44 -58l3 -2c0,0 13,4 27,19l-7 7 -25 -21c0,0 2,-1 2,-3l0 0zm38 36l-12 -10 6 -6c3,4 7,8 10,13 0,1 0,1 0,2 0,1 -1,1 -1,1l-3 0 0 0z"/>
  </g>
 </g>
</svg>
