<?xml version="1.0" encoding="UTF-8"?>
<!DOCTYPE svg PUBLIC "-//W3C//DTD SVG 1.1//EN" "http://www.w3.org/Graphics/SVG/1.1/DTD/svg11.dtd">
<!-- Creator: CorelDRAW X6 -->
<svg xmlns="http://www.w3.org/2000/svg" xml:space="preserve" width="2480px" height="3508px" version="1.1" style="shape-rendering:geometricPrecision; text-rendering:geometricPrecision; image-rendering:optimizeQuality; fill-rule:evenodd; clip-rule:evenodd"
viewBox="0 0 2480 3507"
 xmlns:xlink="http://www.w3.org/1999/xlink">
 <defs>
  <style type="text/css">
   <![CDATA[
    .fil0 {fill:#FEFEFE}
   ]]>
  </style>
 </defs>
 <g id="Camada_x0020_1">
  <metadata id="CorelCorpID_0Corel-Layer"/>
  <g id="_597101104">
   <path class="fil0" d="M2079 1140c1,-4 3,-6 3,-11 0,-24 -18,-39 -42,-39l-98 0c-24,0 -42,18 -42,42 0,6 1,0 3,14l-200 0 -62 -126c-22,-46 -83,-84 -133,-84l-420 0c-52,0 -111,38 -133,84l-62 126 -57 0 0 -63c0,-8 -6,-7 -14,-7l-280 0c-8,0 -14,-1 -14,7l0 56c-70,0 -126,56 -126,126l0 953c0,70 56,133 126,133l1540 0c70,0 126,-63 126,-133l0 -953c0,-64 -50,-119 -115,-125zm-1005 -77c0,-8 6,-14 14,-14l420 0c8,0 14,6 14,14l0 56c0,8 -6,14 -14,14l-420 0c-8,0 -14,-6 -14,-14l0 -56zm-476 357c-46,0 -84,-38 -84,-84 0,-46 38,-84 84,-84 46,0 84,38 84,84 0,46 -38,84 -84,84zm112 70c-24,0 -42,-18 -42,-42 0,-24 18,-42 42,-42 24,0 42,18 42,42 0,24 -18,42 -42,42zm588 743c-270,0 -490,-220 -490,-491 0,-271 220,-491 490,-491 270,0 490,220 490,491 0,271 -220,491 -490,491z"/>
   <path class="fil0" d="M1298 1350c-216,0 -392,177 -392,392 0,216 176,392 392,392 216,0 392,-177 392,-392 0,-216 -176,-392 -392,-392zm0 603c-116,0 -210,-94 -210,-210 0,-116 94,-210 210,-210 116,0 210,94 210,210 0,116 -94,210 -210,210z"/>
  </g>
 </g>
</svg>
