<?xml version="1.0" encoding="UTF-8"?>
<!DOCTYPE svg PUBLIC "-//W3C//DTD SVG 1.0//EN" "http://www.w3.org/TR/2001/REC-SVG-20010904/DTD/svg10.dtd">
<!-- Creator: CorelDRAW X6 -->
<svg xmlns="http://www.w3.org/2000/svg" xml:space="preserve" width="96px" height="96px" version="1.0" style="shape-rendering:geometricPrecision; text-rendering:geometricPrecision; image-rendering:optimizeQuality; fill-rule:evenodd; clip-rule:evenodd"
viewBox="0 0 96 96"
 xmlns:xlink="http://www.w3.org/1999/xlink">
 <defs>
  <style type="text/css">
   <![CDATA[
    .fil0 {fill:white}
   ]]>
  </style>
 </defs>
 <g id="Camada_x0020_1">
  <metadata id="CorelCorpID_0Corel-Layer"/>
  <path class="fil0" d="M89 37c-3,-3 -7,-5 -11,-5 -1,0 -3,0 -4,0 5,-6 5,-11 4,-14 -2,-7 -9,-13 -17,-13 -4,0 -8,2 -11,5 -1,2 -2,4 -3,6 -1,-2 -2,-4 -3,-6 -3,-3 -6,-5 -11,-5 -8,0 -15,6 -17,13 -1,3 0,7 1,10 1,1 2,3 3,4 -1,0 -3,0 -4,0 -5,0 -8,2 -11,5 -2,3 -4,7 -4,11 0,4 1,8 4,11 3,3 7,5 11,5 1,0 3,0 4,0 -1,1 -2,3 -3,4 -2,3 -2,7 -1,10 2,7 9,13 17,13l0 0c4,0 8,-2 11,-5 1,-2 2,-4 3,-6 1,2 2,4 3,6 3,3 6,5 11,5 8,0 15,-6 17,-13 1,-3 1,-9 -4,-14 1,0 3,0 4,0l0 0c5,0 8,-2 11,-5 2,-3 4,-7 4,-11 0,-4 -1,-8 -4,-11l0 0 0 0zm-41 -10c0,0 0,0 0,0 0,0 0,0 0,0l0 0zm-18 11l0 0c0,0 0,0 0,0 0,0 0,0 0,0zm18 31c0,0 0,0 0,0 0,0 0,0 0,0l0 0zm0 -5c-9,0 -16,-7 -16,-16 0,-9 7,-16 16,-16 9,0 16,7 16,16 0,9 -7,16 -16,16zm18 -26c0,0 0,0 0,0 0,0 0,0 0,0z"/>
 </g>
</svg>
