<?xml version="1.0" encoding="UTF-8"?>
<!DOCTYPE svg PUBLIC "-//W3C//DTD SVG 1.0//EN" "http://www.w3.org/TR/2001/REC-SVG-20010904/DTD/svg10.dtd">
<!-- Creator: CorelDRAW X6 -->
<svg xmlns="http://www.w3.org/2000/svg" xml:space="preserve" width="96px" height="96px" version="1.0" style="shape-rendering:geometricPrecision; text-rendering:geometricPrecision; image-rendering:optimizeQuality; fill-rule:evenodd; clip-rule:evenodd"
viewBox="0 0 96 96"
 xmlns:xlink="http://www.w3.org/1999/xlink">
 <defs>
  <style type="text/css">
   <![CDATA[
    .fil0 {fill:white}
   ]]>
  </style>
 </defs>
 <g id="Camada_x0020_1">
  <metadata id="CorelCorpID_0Corel-Layer"/>
  <g id="_597428544">
   <path class="fil0" d="M51 18l0 75 18 0 0 -13 6 0 0 13 18 0 0 -75 -41 0 0 0 -1 0zm33 46l-23 0 0 -6 23 0 0 6zm0 -14l-23 0 0 -6 23 0 0 6zm0 -14l-23 0 0 -6 23 0 0 6z"/>
   <path class="fil0" d="M3 93l18 0 0 -13 6 0 0 13 18 0 0 -89 -41 0 0 89 0 0 -1 0zm10 -78l23 0 0 6 -23 0 0 -6zm0 14l23 0 0 6 -23 0 0 -6zm0 14l23 0 0 6 -23 0 0 -6zm0 14l23 0 0 6 -23 0 0 -6z"/>
  </g>
 </g>
</svg>
