<?xml version="1.0" encoding="UTF-8"?>
<!DOCTYPE svg PUBLIC "-//W3C//DTD SVG 1.0//EN" "http://www.w3.org/TR/2001/REC-SVG-20010904/DTD/svg10.dtd">
<!-- Creator: CorelDRAW X6 -->
<svg xmlns="http://www.w3.org/2000/svg" xml:space="preserve" width="96px" height="96px" version="1.0" style="shape-rendering:geometricPrecision; text-rendering:geometricPrecision; image-rendering:optimizeQuality; fill-rule:evenodd; clip-rule:evenodd"
viewBox="0 0 96 96"
 xmlns:xlink="http://www.w3.org/1999/xlink">
 <defs>
  <style type="text/css">
   <![CDATA[
    .fil0 {fill:white}
   ]]>
  </style>
 </defs>
 <g id="Camada_x0020_1">
  <metadata id="CorelCorpID_0Corel-Layer"/>
  <g id="_591727512">
   <path class="fil0" d="M18 34c0,-1 1,-1 1,-2 1,-1 1,-1 2,-2 2,-2 5,-4 7,-6l0 -1c0,-1 -1,-3 -3,-3l-3 0c-1,0 -1,0 -1,1l-4 6 -1 -2 2 -3c0,0 0,-1 -1,-1l-3 0c-1,0 -1,1 -1,1l2 3 -1 2 -4 -6c0,0 -1,-1 -1,-1l-3 0c-1,0 -3,1 -3,3l0 17 11 0c1,-3 3,-5 5,-8l0 0z"/>
   <path class="fil0" d="M7 11c0,5 4,8 8,8 5,0 8,-4 8,-8 0,-5 -4,-8 -8,-8 -5,0 -8,4 -8,8z"/>
   <path class="fil0" d="M87 21c-1,0 -1,0 -1,1l-4 6 -1 -2 2 -3c0,0 0,-1 -1,-1l-3 0c-1,0 -1,1 -1,1l2 3 -1 2 -4 -6c0,0 -1,-1 -1,-1l-3 0c-1,0 -3,1 -3,3l0 1c3,2 5,3 7,6 1,1 1,1 2,2 0,0 1,1 1,1 2,2 3,5 5,8l11 0 0 -17c0,-1 -1,-3 -3,-3l-3 0 0 0z"/>
   <path class="fil0" d="M71 11c0,5 4,8 8,8 5,0 8,-4 8,-8 0,-5 -4,-8 -8,-8 -5,0 -8,4 -8,8z"/>
   <path class="fil0" d="M91 85l-12 -9c-2,2 -3,5 -5,7 0,0 0,0 -1,0l12 9c1,1 2,1 3,1 1,0 3,-1 4,-2 2,-2 1,-5 -1,-7l0 0z"/>
   <path class="fil0" d="M61 56c0,-1 -1,-3 -3,-3l-3 0c-1,0 -1,0 -1,1l-4 6 -1 -2 2 -3c0,0 0,-1 -1,-1l-3 0c-1,0 -1,1 -1,1l2 3 -1 2 -4 -6c0,0 -1,-1 -1,-1l-3 0c-1,0 -3,1 -3,3l0 17 26 0 0 -17 0 0 0 0z"/>
   <path class="fil0" d="M48 52c5,0 8,-4 8,-8 0,-5 -4,-8 -8,-8 -5,0 -8,4 -8,8 0,5 4,8 8,8z"/>
   <path class="fil0" d="M34 88c4,2 9,3 14,3 5,0 9,-1 14,-3 4,-2 7,-4 10,-7 0,0 1,0 1,-1 2,-2 4,-4 5,-7 1,-1 2,-3 2,-4 2,-4 3,-9 3,-13 0,-5 -1,-9 -3,-13 0,-1 -1,-1 -1,-2 -2,-3 -4,-7 -7,-9 -2,-2 -4,-3 -6,-5 -2,-1 -4,-2 -5,-3 -4,-2 -9,-3 -14,-3 -5,0 -9,1 -14,3 -2,1 -4,2 -5,3 -2,1 -4,3 -6,5 -3,3 -5,6 -7,9 0,1 -1,1 -1,2 -2,4 -3,9 -3,13 0,5 1,9 3,13 2,4 4,8 8,11 3,3 7,6 11,7l0 0zm-6 -47c0,0 0,0 1,-1 0,-1 1,-1 1,-2 5,-5 11,-7 18,-7 7,0 13,3 18,7 1,1 1,1 2,2 0,0 0,0 0,1 3,4 5,10 5,15 0,7 -3,13 -7,17 -5,5 -11,7 -18,7 -7,0 -13,-3 -18,-7 -5,-5 -7,-11 -7,-17 0,-6 2,-11 5,-15z"/>
  </g>
 </g>
</svg>
