<?xml version="1.0" encoding="UTF-8"?>
<!DOCTYPE svg PUBLIC "-//W3C//DTD SVG 1.0//EN" "http://www.w3.org/TR/2001/REC-SVG-20010904/DTD/svg10.dtd">
<!-- Creator: CorelDRAW X6 -->
<svg xmlns="http://www.w3.org/2000/svg" xml:space="preserve" width="96px" height="96px" version="1.0" style="shape-rendering:geometricPrecision; text-rendering:geometricPrecision; image-rendering:optimizeQuality; fill-rule:evenodd; clip-rule:evenodd"
viewBox="0 0 96 96"
 xmlns:xlink="http://www.w3.org/1999/xlink">
 <defs>
  <style type="text/css">
   <![CDATA[
    .fil0 {fill:white}
   ]]>
  </style>
 </defs>
 <g id="Camada_x0020_1">
  <metadata id="CorelCorpID_0Corel-Layer"/>
  <g id="_597402936">
   <path class="fil0" d="M67 22c0,11 -9,19 -19,19 -11,0 -19,-9 -19,-19 0,-11 9,-19 19,-19 11,0 19,9 19,19z"/>
   <path class="fil0" d="M56 43l-16 0c-13,0 -24,11 -24,24l0 20 0 0 1 0c13,4 24,5 33,5 18,0 28,-5 29,-5l1 -1 0 0 0 -20c0,-13 -11,-24 -24,-24l0 0zm-4 38l-3 5c0,0 0,0 0,0l0 0c0,0 0,0 0,0l-3 -5c0,0 0,0 0,0l2 -25c0,0 0,0 0,0l3 0c0,0 0,0 0,0l2 25c0,0 0,0 0,0l0 0zm-2 -26l-4 0 -3 -7c0,-1 1,-1 1,-1l8 0c1,0 1,1 1,1l-3 7 0 0z"/>
  </g>
 </g>
</svg>
