<?xml version="1.0" encoding="UTF-8"?>
<!DOCTYPE svg PUBLIC "-//W3C//DTD SVG 1.1//EN" "http://www.w3.org/Graphics/SVG/1.1/DTD/svg11.dtd">
<!-- Creator: CorelDRAW X6 -->
<svg xmlns="http://www.w3.org/2000/svg" xml:space="preserve" width="2480px" height="3508px" version="1.1" style="shape-rendering:geometricPrecision; text-rendering:geometricPrecision; image-rendering:optimizeQuality; fill-rule:evenodd; clip-rule:evenodd"
viewBox="0 0 2480 3507"
 xmlns:xlink="http://www.w3.org/1999/xlink">
 <defs>
  <style type="text/css">
   <![CDATA[
    .fil0 {fill:#FEFEFE}
   ]]>
  </style>
 </defs>
 <g id="Camada_x0020_1">
  <metadata id="CorelCorpID_0Corel-Layer"/>
  <path class="fil0" d="M5770 2536c-272,3 -525,166 -750,484 -112,156 -197,200 -228,200 -56,-3 -162,-106 -200,-175l-41 -53c-41,-44 -409,-441 -887,-412 -194,12 -475,100 -716,444 -69,97 -134,153 -191,153l0 0c-81,0 -191,-78 -269,-156 -66,-109 -250,-378 -575,-419 -281,-37 -553,97 -806,397 -34,41 -66,72 -94,97 -766,-531 -981,-1637 -981,-1637l2590 0 112 -450 803 0 153 -531 750 0 -116 531 997 0 -112 450 1015 0c0,0 -191,566 -466,1081l9 -3zm-3725 -606l-291 0 0 291 291 0 0 -291zm487 0l-291 0 0 291 291 0 0 -291zm503 0l-291 0 0 291 291 0 0 -291zm487 0l-291 0 0 291 291 0 0 -291zm456 0l-291 0 0 291 291 0 0 -291zm487 0l-291 0 0 291 291 0 0 -291zm503 0l-291 0 0 291 291 0 0 -291zm-4384 1140l-262 147c6,12 187,328 506,359 219,22 434,-91 641,-334 97,-116 241,-247 372,-228 134,19 225,194 225,197l6 16 12 12c12,16 303,366 681,356 219,-6 412,-131 575,-366 103,-150 216,-228 341,-237 225,-12 444,197 484,241 47,75 266,387 591,400 6,0 16,0 22,0 222,0 431,-134 622,-406 94,-131 234,-291 375,-278 147,9 275,197 306,259l266 -137c-22,-41 -212,-397 -553,-422 -225,-16 -441,119 -644,403 -94,131 -234,284 -387,278 -166,-6 -316,-200 -356,-269l-19 -25c-12,-16 -337,-372 -734,-350 -222,12 -412,134 -572,362 -106,153 -219,231 -337,234 -200,6 -387,-187 -428,-234 -41,-72 -187,-309 -447,-344 -212,-28 -425,84 -637,331 -97,112 -241,244 -381,231 -134,-12 -244,-153 -272,-206l6 9z"/>
 </g>
</svg>
