<?xml version="1.0" encoding="UTF-8"?>
<!DOCTYPE svg PUBLIC "-//W3C//DTD SVG 1.0//EN" "http://www.w3.org/TR/2001/REC-SVG-20010904/DTD/svg10.dtd">
<!-- Creator: CorelDRAW X6 -->
<svg xmlns="http://www.w3.org/2000/svg" xml:space="preserve" width="96px" height="96px" version="1.0" style="shape-rendering:geometricPrecision; text-rendering:geometricPrecision; image-rendering:optimizeQuality; fill-rule:evenodd; clip-rule:evenodd"
viewBox="0 0 96 96"
 xmlns:xlink="http://www.w3.org/1999/xlink">
 <defs>
  <style type="text/css">
   <![CDATA[
    .fil0 {fill:white}
   ]]>
  </style>
 </defs>
 <g id="Camada_x0020_1">
  <metadata id="CorelCorpID_0Corel-Layer"/>
  <g id="_595635048">
   <g id="_441991232">
    <path class="fil0" d="M41 21c0,1 0,1 0,1 0,1 -1,2 -1,2 3,2 6,5 6,9 0,2 -1,4 -2,6l0 6c3,-3 6,-7 6,-12 0,-6 -3,-11 -9,-13l0 0z"/>
    <path class="fil0" d="M13 25c0,-1 -1,-2 -1,-2 0,-1 0,-1 0,-1 -5,2 -9,7 -9,13 0,5 2,9 6,12l0 -6c-1,-2 -2,-4 -2,-6 0,-4 2,-8 6,-9l0 0z"/>
    <path class="fil0" d="M40 29c0,0 0,-1 -1,-1 0,0 0,0 0,0 0,0 -1,0 -1,0 -3,3 -7,5 -12,5 -5,0 -9,-2 -12,-5 0,0 0,0 -1,0 0,0 0,0 0,0 0,0 -1,0 -1,1l-1 19c0,1 0,2 1,3 1,1 2,1 3,1l21 0c1,0 2,-1 3,-1 1,-1 1,-2 1,-3l-1 -19z"/>
    <path class="fil0" d="M15 20c0,0 0,1 0,1 2,5 6,9 12,9 5,0 10,-4 12,-9 0,0 0,-1 0,-1 0,0 -1,-1 -1,-1l-21 0c0,0 -1,0 -1,1l0 0z"/>
    <path class="fil0" d="M35 10c0,-1 -1,-1 -1,-1l-15 0c-1,0 -1,1 -1,1l0 6c0,1 1,1 1,1l15 0c1,0 1,-1 1,-1l0 -6z"/>
    <path class="fil0" d="M13 17l1 0c1,0 1,-1 1,-1l0 -6c0,-1 -1,-1 -1,-1l-1 0c-2,0 -4,2 -4,4l0 0c0,2 2,4 4,4l0 0z"/>
    <path class="fil0" d="M39 17l1 0c2,0 4,-2 4,-4l0 0c0,-2 -2,-4 -4,-4l-1 0c-1,0 -1,1 -1,1l0 6c0,1 1,1 1,1l0 0z"/>
   </g>
   <path class="fil0" d="M93 78l-2 -21c0,-1 -1,-1 -1,-1l-40 0c-1,0 -1,0 -1,1l-2 21c0,2 0,4 2,6 1,2 4,3 6,3l32 0c2,0 4,-1 6,-3 1,-2 2,-4 2,-6l0 0zm-10 -17l-2 0c0,1 0,3 -1,4 -1,2 -4,5 -9,5 -6,0 -8,-3 -9,-5 -1,-2 -1,-3 -1,-4l-2 0c-1,0 -1,-1 -1,-1 0,-1 1,-1 1,-1l6 0c1,0 1,1 1,1 0,1 -1,1 -1,1l-2 0c0,2 2,7 8,7 3,0 6,-1 7,-4 1,-1 1,-2 1,-3l-1 0c-1,0 -1,-1 -1,-1 0,-1 1,-1 1,-1l6 0c1,0 1,1 1,1 0,1 -1,1 -1,1l0 0z"/>
  </g>
 </g>
</svg>
