<?xml version="1.0" encoding="UTF-8"?>
<!DOCTYPE svg PUBLIC "-//W3C//DTD SVG 1.1//EN" "http://www.w3.org/Graphics/SVG/1.1/DTD/svg11.dtd">
<!-- Creator: CorelDRAW X6 -->
<svg xmlns="http://www.w3.org/2000/svg" xml:space="preserve" width="2480px" height="3508px" version="1.1" style="shape-rendering:geometricPrecision; text-rendering:geometricPrecision; image-rendering:optimizeQuality; fill-rule:evenodd; clip-rule:evenodd"
viewBox="0 0 2480 3507"
 xmlns:xlink="http://www.w3.org/1999/xlink">
 <defs>
  <style type="text/css">
   <![CDATA[
    .fil0 {fill:#FEFEFE}
   ]]>
  </style>
 </defs>
 <g id="Camada_x0020_1">
  <metadata id="CorelCorpID_0Corel-Layer"/>
  <g id="_397849704">
   <path class="fil0" d="M1333 1892l-127 -84c33,-32 33,-32 91,-90l-86 -181 152 181c13,16 34,24 55,22l248 -28c34,-4 59,-35 55,-69 -4,-34 -35,-59 -69,-55l-215 25 -131 -155 127 89c0,-23 -8,-47 -25,-65l-111 -118c-18,-19 -42,-29 -68,-29 -26,0 -50,11 -68,29l-267 285c-42,45 -33,118 19,151l41 26 -99 0c-29,0 -52,23 -52,52 0,29 23,52 52,52l71 0 -47 90c-27,-8 -56,-12 -86,-12 -173,0 -314,141 -314,314 0,173 141,314 314,314 137,0 253,-88 296,-210 -17,-2 -33,-8 -48,-16 -65,-36 -89,-119 -52,-184 29,-52 13,-23 95,-171l-24 -58 52 0 -142 -162c158,102 107,68 224,146l-153 275c-20,36 -7,82 29,102 36,20 82,7 102,-29l187 -336c19,-34 8,-77 -24,-99zm-391 153l35 -66 61 146c-26,-33 -59,-60 -95,-81z"/>
   <path class="fil0" d="M1375 1272c-5,40 7,81 36,112 52,56 140,58 195,6 12,-11 21,-24 28,-38 -3,-1 -7,-2 -10,-3 -53,-20 -109,-36 -159,-50 -34,-10 -64,-19 -91,-27z"/>
   <path class="fil0" d="M1648 1284c2,1 4,1 6,1 3,0 6,-1 9,-2 5,-3 8,-7 9,-12 5,-29 8,-63 -7,-88 -34,-55 -80,-79 -164,-79 -16,0 -33,1 -51,3 -12,1 -23,1 -34,1 -27,0 -52,-2 -72,-2 -25,0 -43,3 -48,19 -25,69 170,92 353,160z"/>
   <path class="fil0" d="M1696 2007c-23,0 -44,2 -66,7l-75 -226 -70 8 20 62 -112 9c14,16 24,35 29,56 1,3 2,7 2,10l41 -3 -41 45c-2,16 -8,32 -16,46l-104 187 232 -254 27 82c-108,50 -183,159 -183,285 0,173 141,314 314,314 173,0 314,-141 314,-314 0,-173 -141,-314 -314,-314zm0 544c-127,0 -230,-103 -230,-230 0,-89 51,-167 126,-205l72 216c5,14 18,24 33,24 4,0 7,-1 11,-2 18,-6 28,-26 22,-44l-72 -216c13,-2 26,-3 39,-3 127,0 230,103 230,230 0,127 -103,230 -230,230z"/>
  </g>
 </g>
</svg>
