<?xml version="1.0" encoding="UTF-8"?>
<!DOCTYPE svg PUBLIC "-//W3C//DTD SVG 1.1//EN" "http://www.w3.org/Graphics/SVG/1.1/DTD/svg11.dtd">
<!-- Creator: CorelDRAW X6 -->
<svg xmlns="http://www.w3.org/2000/svg" xml:space="preserve" width="2480px" height="3508px" version="1.1" style="shape-rendering:geometricPrecision; text-rendering:geometricPrecision; image-rendering:optimizeQuality; fill-rule:evenodd; clip-rule:evenodd"
viewBox="0 0 2480 3507"
 xmlns:xlink="http://www.w3.org/1999/xlink">
 <defs>
  <style type="text/css">
   <![CDATA[
    .fil0 {fill:#FEFEFE}
   ]]>
  </style>
 </defs>
 <g id="Camada_x0020_1">
  <metadata id="CorelCorpID_0Corel-Layer"/>
  <g id="_439972288">
   <path class="fil0" d="M-82 600c-12,58 -24,118 -24,182 0,210 171,380 380,380 210,0 380,-171 380,-380 0,-64 -12,-124 -24,-182 -22,-108 -44,-221 31,-327 -114,-68 -246,-107 -388,-107 -142,0 -275,39 -388,107 76,106 53,218 31,327z"/>
   <path class="fil0" d="M745 330c-51,71 -36,146 -16,250 12,60 25,127 25,201 0,265 -215,480 -480,480 -265,0 -480,-215 -480,-480 0,-74 14,-142 25,-201 21,-104 36,-179 -16,-250 -175,139 -288,354 -288,595 0,419 339,758 758,758 419,0 758,-339 758,-758 0,-241 -113,-456 -288,-595z"/>
  </g>
  <g id="_439968760">
   <path class="fil0" d="M807 2155c236,-204 567,-253 851,-129 -139,-179 -356,-294 -600,-294 -118,0 -230,27 -329,75l0 27c0,114 28,224 78,322z"/>
   <path class="fil0" d="M860 2242c53,75 120,140 200,190 106,-56 224,-88 344,-93l42 -12 3 11c127,2 253,34 366,93 -7,-96 -32,-186 -72,-269l-9 16 -43 -25c-268,-155 -603,-118 -830,88z"/>
   <path class="fil0" d="M1372 2442c-91,8 -181,34 -264,78 -4,120 -36,238 -91,344l-11 42 -11 -3c-65,109 -156,202 -264,270 82,40 173,65 269,72l-9 -16 43 -25c268,-154 404,-463 339,-763z"/>
   <path class="fil0" d="M1792 2533c-98,-57 -208,-88 -318,-93 58,306 -65,618 -314,802 352,-47 628,-336 655,-695l-23 -13z"/>
   <path class="fil0" d="M452 2111c-1,309 200,581 491,675 38,-83 61,-174 65,-268 -102,-64 -188,-150 -253,-251l-31 -31 8 -8c-62,-111 -97,-236 -102,-363 -77,53 -144,120 -197,197l19 0 0 50z"/>
   <path class="fil0" d="M894 2875c-294,-102 -503,-365 -537,-673 -36,89 -57,186 -57,288 0,260 131,490 331,627l23 -13c98,-57 180,-136 240,-228z"/>
  </g>
  <g id="_439959448">
   <path class="fil0" d="M1987 653l219 159 190 -58 101 -310c-68,-75 -152,-136 -245,-178l-264 192 0 195z"/>
   <path class="fil0" d="M2695 921c-6,-141 -51,-271 -124,-381l-77 236 201 146z"/>
   <polygon class="fil0" points="1736,886 1813,1122 2062,1122 2138,886 1937,740 "/>
   <path class="fil0" d="M1304 540c-73,110 -117,241 -124,381l201 -146 -77 -236z"/>
   <path class="fil0" d="M2237 907l-83 257 118 166 326 0c49,-87 82,-184 94,-288l-265 -192 -190 58z"/>
   <path class="fil0" d="M1722 1164l-83 -257 -190 -58 -265 192c12,104 44,201 94,288l326 0 118 -166z"/>
   <path class="fil0" d="M2138 225c-64,-18 -131,-27 -201,-27 -69,0 -137,9 -201,27l201 146 201 -146z"/>
   <path class="fil0" d="M1803 1222l-118 166 101 311c49,10 100,15 151,15 52,0 103,-5 152,-15l101 -311 -118 -166 -269 0z"/>
   <path class="fil0" d="M2205 1666c128,-48 240,-131 324,-236l-248 0 -77 236z"/>
   <path class="fil0" d="M1668 812l219 -159 0 -195 -264 -192c-93,43 -177,104 -245,178l101 310 190 58z"/>
   <path class="fil0" d="M1345 1430c84,105 196,187 324,236l-77 -236 -248 0z"/>
  </g>
 </g>
</svg>
