<?xml version="1.0" encoding="UTF-8"?>
<!DOCTYPE svg PUBLIC "-//W3C//DTD SVG 1.1//EN" "http://www.w3.org/Graphics/SVG/1.1/DTD/svg11.dtd">
<!-- Creator: CorelDRAW X6 -->
<svg xmlns="http://www.w3.org/2000/svg" xml:space="preserve" width="2480px" height="3508px" version="1.1" style="shape-rendering:geometricPrecision; text-rendering:geometricPrecision; image-rendering:optimizeQuality; fill-rule:evenodd; clip-rule:evenodd"
viewBox="0 0 2480 3507"
 xmlns:xlink="http://www.w3.org/1999/xlink">
 <defs>
  <style type="text/css">
   <![CDATA[
    .fil0 {fill:#FEFEFE}
   ]]>
  </style>
 </defs>
 <g id="Camada_x0020_1">
  <metadata id="CorelCorpID_0Corel-Layer"/>
  <g id="books-piled-.eps">
   <path class="fil0" d="M3576 4215l787 266c66,28 372,141 919,6 691,-172 2184,-469 2200,-472l-56 -281c0,0 -3,0 -9,3l-1425 -200c-62,-9 -137,-12 -216,-12l-9 0c-122,0 -247,9 -341,28l-1903 369c-247,-12 -484,141 -562,387 -47,141 -34,294 34,425 34,69 81,125 141,175 -87,66 -153,159 -187,269 -19,56 -25,112 -28,169 0,87 22,178 62,256 37,72 87,131 150,181 -84,66 -150,159 -187,269 -19,56 -25,112 -28,169 0,87 22,175 62,256 69,131 184,231 328,275l1372 437c75,25 200,28 275,12l2409 -553c0,0 -16,-62 -31,-141 -19,-78 -94,-125 -172,-106l-2193 503c-78,19 -200,12 -275,-12l-1297 -416c-69,-22 -125,-69 -159,-134 -34,-66 -41,-137 -19,-209 47,-144 200,-222 344,-178 0,0 794,253 1119,356 75,25 200,28 275,12l2409 -553c0,0 -16,-62 -31,-141 -19,-78 -94,-125 -172,-106l-2193 503c-78,19 -200,12 -275,-12l-1297 -416c-69,-22 -125,-69 -159,-134 -34,-66 -41,-137 -19,-209 47,-144 200,-222 344,-178 0,0 803,256 1131,359 75,25 200,28 275,12l2409 -553c0,0 -16,-62 -31,-141 -19,-78 -94,-125 -172,-106l-2193 503c-78,19 -200,12 -275,-12l-1297 -416c-69,-22 -125,-69 -159,-134 -34,-66 -41,-137 -19,-209 47,-144 200,-222 341,-178l6 13z"/>
  </g>
  <g id="music-player.eps">
   <path class="fil0" d="M1142 1243l0 2218c-112,-81 -253,-128 -409,-128 -353,0 -641,253 -641,562 0,309 287,562 641,562 353,0 641,-253 641,-562l0 -1925 1903 -472 0 1434c-112,-81 -253,-128 -409,-128 -353,0 -641,253 -641,562 0,309 287,562 641,562 353,0 641,-253 641,-562l0 -2709 -2372 587 6 -3z"/>
  </g>
 </g>
</svg>
