<?xml version="1.0" encoding="UTF-8"?>
<!DOCTYPE svg PUBLIC "-//W3C//DTD SVG 1.0//EN" "http://www.w3.org/TR/2001/REC-SVG-20010904/DTD/svg10.dtd">
<!-- Creator: CorelDRAW X6 -->
<svg xmlns="http://www.w3.org/2000/svg" xml:space="preserve" width="96px" height="96px" version="1.0" style="shape-rendering:geometricPrecision; text-rendering:geometricPrecision; image-rendering:optimizeQuality; fill-rule:evenodd; clip-rule:evenodd"
viewBox="0 0 96 96"
 xmlns:xlink="http://www.w3.org/1999/xlink">
 <defs>
  <style type="text/css">
   <![CDATA[
    .fil0 {fill:white}
   ]]>
  </style>
 </defs>
 <g id="Camada_x0020_1">
  <metadata id="CorelCorpID_0Corel-Layer"/>
  <path class="fil0" d="M10 48c2,0 4,-1 5,-3l1 -2c1,2 3,4 5,4 3,0 6,-3 6,-6 0,3 3,6 6,6 3,0 6,-3 6,-6 0,3 3,6 6,6 3,0 6,-3 6,-6 0,3 3,6 6,6 3,0 6,-3 6,-6 0,3 3,6 6,6 3,0 6,-3 6,-6 0,3 3,6 6,6 3,0 5,-2 5,-4l1 2c1,2 3,3 5,3 1,0 2,0 3,-1 3,-2 3,-5 2,-8l-10 -13 -22 0 0 -6 6 0c3,0 6,-3 6,-6l0 -6c0,-3 -3,-6 -6,-6l-32 0c-3,0 -6,3 -6,6l0 6c0,3 3,6 6,6l6 0 0 6 -22 0 -10 13c-2,3 -1,6 2,8 1,1 2,1 3,1l0 0 -4 0zm48 -39l7 0 0 4 -6 0 0 3 -1 0 0 -7 0 0zm-10 0l7 0 0 7 -7 0 0 -7zm-9 0l1 0 0 3 3 0 0 -3 1 0 0 7 -1 0 0 -3 -3 0 0 3 -1 0 0 -7 0 0zm-9 7l0 -1 4 0 0 -1 -4 0 0 -4 6 0 0 1 -4 0 0 1 4 0 0 4 -6 0zm10 6l10 0 0 6 -10 0 0 -6zm49 70l-87 0c0,-5 4,-9 9,-9l70 0c5,0 9,4 9,9l0 0 -1 0zm-70 -41l-6 0 0 29 65 0 0 -29 -59 0 0 0zm0 25l0 -19 16 0 0 19 -16 0zm22 0l0 -19 32 0 0 19 -32 0zm-13 -10c0,2 -1,3 -3,3 -2,0 -3,-1 -3,-3 0,-2 1,-3 3,-3 2,0 3,1 3,3l0 0zm33 -52l-4 0 0 -1 4 0 0 1zm-13 -1l4 0 0 4 -4 0 0 -4z"/>
  <rect class="fil0" x="29" y="9" width="36" height="10"/>
 </g>
</svg>
