<?xml version="1.0" encoding="UTF-8"?>
<!DOCTYPE svg PUBLIC "-//W3C//DTD SVG 1.0//EN" "http://www.w3.org/TR/2001/REC-SVG-20010904/DTD/svg10.dtd">
<!-- Creator: CorelDRAW X6 -->
<svg xmlns="http://www.w3.org/2000/svg" xml:space="preserve" width="96px" height="96px" version="1.0" style="shape-rendering:geometricPrecision; text-rendering:geometricPrecision; image-rendering:optimizeQuality; fill-rule:evenodd; clip-rule:evenodd"
viewBox="0 0 96 96"
 xmlns:xlink="http://www.w3.org/1999/xlink">
 <defs>
  <style type="text/css">
   <![CDATA[
    .fil0 {fill:white}
   ]]>
  </style>
 </defs>
 <g id="Camada_x0020_1">
  <metadata id="CorelCorpID_0Corel-Layer"/>
  <g id="_397360624">
   <path class="fil0" d="M85 73c-3,0 -7,1 -10,1 0,2 -1,6 2,7l6 0c2,-1 3,-4 2,-8l0 0 0 0z"/>
   <path class="fil0" d="M89 36c-3,-1 -8,1 -10,4 -1,3 -3,6 -4,9 -18,-6 -34,-6 -51,0 -1,-3 -2,-6 -4,-9 -1,-3 -4,-6 -9,-6 -3,0 -7,3 -7,7 -1,3 1,7 4,9 1,0 1,1 1,2 0,3 1,7 1,10 0,3 2,4 4,6 2,1 4,1 7,1 18,0 37,0 54,0 1,0 2,0 2,0 6,-1 8,-3 9,-7 0,-3 1,-7 1,-10 0,-1 0,-2 1,-2 3,-1 4,-4 4,-8 0,-3 -2,-6 -6,-7l1 0z"/>
   <path class="fil0" d="M81 16c-2,-1 -9,-1 -11,-1 -6,0 -13,0 -20,0 -8,0 -14,0 -20,0 -2,0 -9,0 -11,1 -7,2 -7,9 -7,16 9,0 12,6 14,12 8,-1 16,-2 23,-2 8,0 16,1 23,2 2,-7 6,-12 14,-12 0,-7 0,-14 -7,-16l0 0z"/>
   <path class="fil0" d="M14 73c3,0 7,1 10,1 0,2 1,6 -2,7l-6 0c-2,-1 -3,-4 -2,-8l0 0z"/>
  </g>
 </g>
</svg>
