<?xml version="1.0" encoding="UTF-8"?>
<!DOCTYPE svg PUBLIC "-//W3C//DTD SVG 1.1//EN" "http://www.w3.org/Graphics/SVG/1.1/DTD/svg11.dtd">
<!-- Creator: CorelDRAW X6 -->
<svg xmlns="http://www.w3.org/2000/svg" xml:space="preserve" width="2480px" height="3508px" version="1.1" style="shape-rendering:geometricPrecision; text-rendering:geometricPrecision; image-rendering:optimizeQuality; fill-rule:evenodd; clip-rule:evenodd"
viewBox="0 0 2480 3507"
 xmlns:xlink="http://www.w3.org/1999/xlink">
 <defs>
  <style type="text/css">
   <![CDATA[
    .fil0 {fill:#FEFEFE}
   ]]>
  </style>
 </defs>
 <g id="Camada_x0020_1">
  <metadata id="CorelCorpID_0Corel-Layer"/>
  <path class="fil0" d="M2011 1182c-261,-430 -655,-131 -655,-131 -26,19 -73,35 -105,35l-105 0c-32,0 -79,-16 -105,-35 0,0 -394,-299 -655,131 -142,234 -176,478 -177,653l0 20c1,135 21,224 21,224 19,114 79,191 194,181 114,-10 363,-308 363,-308 21,-24 63,-45 95,-45l633 0c32,0 75,20 95,45 0,0 249,299 363,308 115,10 176,-67 194,-181 0,0 105,-468 -156,-897zm-1050 349l-136 0 0 131c0,0 -29,22 -73,21 -44,-1 -64,-24 -64,-24l0 -128 -128 0c0,0 -16,-16 -20,-60 -4,-43 18,-78 18,-78l135 0 0 -135c0,0 28,-15 68,-14 40,1 70,16 70,16l-1 133 128 0c0,0 23,29 24,63 2,35 -21,74 -21,74zm622 149c-59,0 -107,-48 -107,-107 0,-59 48,-107 107,-107 59,0 107,48 107,107 0,59 -48,107 -107,107zm0 -295c-59,0 -107,-48 -107,-107 0,-59 48,-107 107,-107 59,0 107,48 107,107 0,59 -48,107 -107,107zm267 159c-59,0 -107,-48 -107,-107 0,-59 48,-107 107,-107 59,0 107,48 107,107 0,59 -48,107 -107,107z"/>
 </g>
</svg>
