<?xml version="1.0" encoding="UTF-8"?>
<!DOCTYPE svg PUBLIC "-//W3C//DTD SVG 1.0//EN" "http://www.w3.org/TR/2001/REC-SVG-20010904/DTD/svg10.dtd">
<!-- Creator: CorelDRAW X6 -->
<svg xmlns="http://www.w3.org/2000/svg" xml:space="preserve" width="96px" height="96px" version="1.0" style="shape-rendering:geometricPrecision; text-rendering:geometricPrecision; image-rendering:optimizeQuality; fill-rule:evenodd; clip-rule:evenodd"
viewBox="0 0 96 96"
 xmlns:xlink="http://www.w3.org/1999/xlink">
 <defs>
  <style type="text/css">
   <![CDATA[
    .fil0 {fill:white}
   ]]>
  </style>
 </defs>
 <g id="Camada_x0020_1">
  <metadata id="CorelCorpID_0Corel-Layer"/>
  <g id="_595114896">
   <g id="_439972288">
    <path class="fil0" d="M14 18c0,2 -1,3 -1,5 0,6 5,11 11,11 6,0 11,-5 11,-11 0,-2 0,-4 -1,-5 -1,-3 -1,-6 1,-9 -3,-2 -7,-3 -11,-3 -4,0 -8,1 -11,3 2,3 2,6 1,9l0 0z"/>
    <path class="fil0" d="M38 10c-1,2 -1,4 0,7 0,2 1,4 1,6 0,8 -6,14 -14,14 -8,0 -14,-6 -14,-14 0,-2 0,-4 1,-6 1,-3 1,-5 0,-7 -5,4 -8,10 -8,17 0,12 10,21 21,21 12,0 21,-10 21,-21 0,-7 -3,-13 -8,-17l0 0z"/>
   </g>
   <g id="_439968760">
    <path class="fil0" d="M40 60c7,-6 16,-7 24,-4 -4,-5 -10,-8 -17,-8 -3,0 -7,1 -9,2l0 1c0,3 1,6 2,9l0 0z"/>
    <path class="fil0" d="M42 62c2,2 3,4 6,5 3,-2 6,-2 10,-3l1 0 0 0c4,0 7,1 10,3 0,-3 -1,-5 -2,-8l0 0 -1 -1c-8,-4 -17,-3 -23,2l0 0z"/>
    <path class="fil0" d="M56 68c-3,0 -5,1 -7,2 0,3 -1,7 -3,10l0 1 0 0c-2,3 -4,6 -7,8 2,1 5,2 8,2l0 0 1 -1c8,-4 11,-13 10,-22l0 0z"/>
    <path class="fil0" d="M68 71c-3,-2 -6,-2 -9,-3 2,9 -2,17 -9,23 10,-1 18,-10 19,-20l-1 0 0 0z"/>
    <path class="fil0" d="M30 59c0,9 6,16 14,19 1,-2 2,-5 2,-8 -3,-2 -5,-4 -7,-7l-1 -1 0 0c-2,-3 -3,-7 -3,-10 -2,2 -4,3 -6,6l1 0 0 1 0 0z"/>
    <path class="fil0" d="M43 80c-8,-3 -14,-10 -15,-19 -1,3 -2,5 -2,8 0,7 4,14 9,18l1 0c3,-2 5,-4 7,-6l0 0z"/>
   </g>
   <g id="_439959448">
    <path class="fil0" d="M73 19l6 5 5 -2 3 -9c-2,-2 -4,-4 -7,-5l-7 5 0 6 0 0z"/>
    <path class="fil0" d="M93 27c0,-4 -1,-8 -4,-11l-2 7 6 4 0 0z"/>
    <polygon class="fil0" points="66,26 68,32 75,32 77,26 72,21 "/>
    <path class="fil0" d="M54 16c-2,3 -3,7 -4,11l6 -4 -2 -7 0 0z"/>
    <path class="fil0" d="M80 26l-2 7 3 5 9 0c1,-2 2,-5 3,-8l-8 -5 -5 2 0 0z"/>
    <path class="fil0" d="M65 33l-2 -7 -5 -2 -8 5c0,3 1,6 3,8l9 0 3 -5 0 0z"/>
    <path class="fil0" d="M77 7c-2,-1 -4,-1 -6,-1 -2,0 -4,0 -6,1l6 4 6 -4z"/>
    <path class="fil0" d="M68 35l-3 5 3 9c1,0 3,0 4,0 1,0 3,0 4,0l3 -9 -3 -5 -8 0 0 0z"/>
    <path class="fil0" d="M79 48c4,-1 7,-4 9,-7l-7 0 -2 7 0 0z"/>
    <path class="fil0" d="M64 24l6 -5 0 -6 -7 -5c-3,1 -5,3 -7,5l3 9 5 2 0 0z"/>
    <path class="fil0" d="M55 41c2,3 6,5 9,7l-2 -7 -7 0 0 0z"/>
   </g>
  </g>
 </g>
</svg>
