<?xml version="1.0" encoding="UTF-8"?>
<!DOCTYPE svg PUBLIC "-//W3C//DTD SVG 1.1//EN" "http://www.w3.org/Graphics/SVG/1.1/DTD/svg11.dtd">
<!-- Creator: CorelDRAW X6 -->
<svg xmlns="http://www.w3.org/2000/svg" xml:space="preserve" width="2480px" height="3508px" version="1.1" style="shape-rendering:geometricPrecision; text-rendering:geometricPrecision; image-rendering:optimizeQuality; fill-rule:evenodd; clip-rule:evenodd"
viewBox="0 0 2480 3507"
 xmlns:xlink="http://www.w3.org/1999/xlink">
 <defs>
  <style type="text/css">
   <![CDATA[
    .fil0 {fill:#FEFEFE}
   ]]>
  </style>
 </defs>
 <g id="Camada_x0020_1">
  <metadata id="CorelCorpID_0Corel-Layer"/>
  <g id="_396227208">
   <path class="fil0" d="M823 1744l926 0c78,0 142,-64 142,-142l0 -33c0,-78 -64,-142 -142,-142l-926 0c-78,0 -142,63 -142,142l0 33c0,78 63,142 142,142zm897 -287c68,0 123,55 123,123 0,68 -55,123 -123,123 -68,0 -123,-55 -123,-123 0,-68 55,-123 123,-123zm-661 0l447 0 0 152 -447 0 0 -152zm-224 0c68,0 123,55 123,123 0,68 -55,123 -123,123 -68,0 -123,-55 -123,-123 0,-68 55,-123 123,-123z"/>
   <path class="fil0" d="M511 1491l0 0c-1,6 -3,13 -4,18l-6 20 21 0 -6 -20c-2,-6 -3,-13 -5,-18z"/>
   <path class="fil0" d="M572 1458l-121 0 0 128 121 0 0 -128zm-40 112l-7 -24 -27 0 -7 24 -22 0 29 -95 28 0 29 95 -23 0z"/>
   <path class="fil0" d="M2264 2264l0 -85 33 0 0 -388 -33 0 0 -785c0,-10 -8,-19 -19,-19l-1941 0c-10,0 -19,8 -19,19l0 785 -40 0 0 388 40 0 0 85c0,10 8,19 19,19l1941 0c10,0 19,-9 19,-19zm-172 -1156l85 79 0 750 -1780 0 0 -750 82 -79 1613 0zm-1720 -91c23,0 41,18 41,41 0,23 -18,41 -41,41 -23,0 -41,-18 -41,-41 0,-23 18,-41 41,-41zm0 1220c-23,0 -41,-18 -41,-41 0,-23 18,-41 41,-41 23,0 41,18 41,41 0,23 -18,41 -41,41zm427 15c-29,0 -53,-24 -53,-53 0,-29 24,-53 53,-53 29,0 53,24 53,53 0,29 -24,53 -53,53zm241 -72c0,10 -8,19 -19,19l-31 0c-10,0 -19,-8 -19,-19l0 -31c0,-10 9,-19 19,-19l31 0c10,0 19,9 19,19l0 31zm246 -75c-20,0 -35,-16 -35,-35 0,-20 16,-35 35,-35 19,0 35,16 35,35 0,19 -16,35 -35,35zm324 75c0,10 -8,19 -19,19l-31 0c-10,0 -19,-8 -19,-19l0 -31c0,-10 8,-19 19,-19l31 0c10,0 19,9 19,19l0 31zm159 72c-29,0 -53,-24 -53,-53 0,-29 24,-53 53,-53 29,0 53,24 53,53 0,29 -24,53 -53,53zm408 -6c-23,0 -41,-18 -41,-41 0,-23 18,-41 41,-41 23,0 41,18 41,41 0,23 -18,41 -41,41zm0 -1138c-23,0 -41,-18 -41,-41 0,-23 18,-41 41,-41 23,0 41,18 41,41 0,23 -18,41 -41,41z"/>
  </g>
 </g>
</svg>
