<?xml version="1.0" encoding="UTF-8"?>
<!DOCTYPE svg PUBLIC "-//W3C//DTD SVG 1.0//EN" "http://www.w3.org/TR/2001/REC-SVG-20010904/DTD/svg10.dtd">
<!-- Creator: CorelDRAW X6 -->
<svg xmlns="http://www.w3.org/2000/svg" xml:space="preserve" width="96px" height="96px" version="1.0" style="shape-rendering:geometricPrecision; text-rendering:geometricPrecision; image-rendering:optimizeQuality; fill-rule:evenodd; clip-rule:evenodd"
viewBox="0 0 96 96"
 xmlns:xlink="http://www.w3.org/1999/xlink">
 <defs>
  <style type="text/css">
   <![CDATA[
    .fil0 {fill:white}
   ]]>
  </style>
 </defs>
 <g id="Camada_x0020_1">
  <metadata id="CorelCorpID_0Corel-Layer"/>
  <g id="_596715232">
   <path class="fil0" d="M48 27l-33 27c0,0 0,0 0,0 0,0 0,0 0,0l0 27c0,1 0,2 1,3 1,1 2,1 3,1l21 0 0 -21 15 0 0 21 21 0c1,0 2,0 3,-1 1,-1 1,-2 1,-3l0 -27c0,0 0,0 0,0l-33 -27 0 0 1 0z"/>
   <path class="fil0" d="M93 48l-13 -11 0 -23c0,-1 0,-1 -1,-1 0,0 -1,-1 -1,-1l-11 0c-1,0 -1,0 -1,1 0,0 -1,1 -1,1l0 11 -14 -12c-1,-1 -3,-2 -4,-2 -2,0 -3,1 -4,2l-41 34c0,0 -1,1 -1,1 0,1 0,1 0,1l4 4c0,0 1,1 1,1 0,0 1,0 1,0l39 -33 39 33c0,0 1,0 1,0l0 0c1,0 1,0 1,-1l4 -4c0,0 0,-1 0,-1 0,-1 0,-1 -1,-1l0 0 2 1z"/>
  </g>
 </g>
</svg>
