<?xml version="1.0" encoding="UTF-8"?>
<!DOCTYPE svg PUBLIC "-//W3C//DTD SVG 1.1//EN" "http://www.w3.org/Graphics/SVG/1.1/DTD/svg11.dtd">
<!-- Creator: CorelDRAW X6 -->
<svg xmlns="http://www.w3.org/2000/svg" xml:space="preserve" width="2480px" height="3508px" version="1.1" style="shape-rendering:geometricPrecision; text-rendering:geometricPrecision; image-rendering:optimizeQuality; fill-rule:evenodd; clip-rule:evenodd"
viewBox="0 0 2480 3507"
 xmlns:xlink="http://www.w3.org/1999/xlink">
 <defs>
  <style type="text/css">
   <![CDATA[
    .fil0 {fill:#FEFEFE}
   ]]>
  </style>
 </defs>
 <g id="Camada_x0020_1">
  <metadata id="CorelCorpID_0Corel-Layer"/>
  <path class="fil0" d="M2615 1376l-656 -632c-14,-13 -32,-21 -52,-21 -19,0 -38,7 -52,21l-656 632c-14,13 -18,26 -18,35l0 2c0,5 1,9 2,11 3,9 14,24 44,24l74 0 0 562c0,58 50,108 107,108l332 0 0 -381 322 0 0 381 341 0c57,0 105,-50 105,-108l0 -562 76 0c31,0 41,-15 44,-24 3,-9 6,-27 -16,-48z"/>
 </g>
 <g id="Camada_x0020_1_0">
  <metadata id="CorelCorpID_1Corel-Layer"/>
  <g id="_439500856">
   <path class="fil0" d="M1197 1843l-1019 0c-28,0 -51,23 -51,51l0 764c0,28 23,51 51,51 28,0 51,-23 51,-51l0 -713 267 0 0 26c-25,6 -45,20 -55,38l-136 0c-14,0 -25,11 -25,25l0 535c0,14 11,25 25,25l815 0c14,0 25,-11 25,-25l0 -535c0,-14 -11,-25 -25,-25l-136 0c-10,-18 -30,-32 -55,-38l0 -26 267 0c28,0 51,-23 51,-51 0,-28 -23,-51 -51,-51zm-102 700l-764 0 0 -484 764 0 0 484zm-216 -573c-25,6 -45,20 -55,38l-222 0c-10,-18 -30,-32 -55,-38l0 -26 331 0 0 26z"/>
   <path class="fil0" d="M439 2393c-46,0 -40,-36 -65,-36 -11,0 -19,8 -19,19 0,22 26,51 84,51 55,0 83,-27 83,-64 0,-24 -11,-48 -53,-58l-38 -9c-15,-3 -31,-8 -31,-22 0,-14 12,-24 33,-24 43,0 39,30 60,30 11,0 21,-7 21,-18 0,-27 -42,-47 -78,-47 -39,0 -80,17 -80,62 0,22 8,45 49,55l52 13c16,4 20,13 20,21 0,13 -13,27 -37,27z"/>
   <path class="fil0" d="M558 2426c11,0 17,-4 20,-13l12 -34 74 0 12 34c3,9 11,13 21,13 12,0 22,-9 22,-20 0,-5 -3,-13 -4,-18l-55 -154c-5,-14 -14,-17 -25,-17l-11 0c-11,0 -18,4 -22,14l-59 157c-2,5 -4,13 -4,18 0,12 9,20 21,20zm70 -159l1 0 26 81 -54 0 27 -81z"/>
   <path class="fil0" d="M769 2422l96 0c13,0 24,-7 24,-19 0,-13 -11,-19 -24,-19l-77 0 0 -144c0,-14 -9,-23 -23,-23 -14,0 -23,9 -23,23l0 155c0,20 11,27 27,27z"/>
   <path class="fil0" d="M941 2422l110 0c13,0 23,-4 23,-18 0,-15 -10,-18 -23,-18l-91 0 0 -49 78 0c12,0 22,-3 22,-18 0,-14 -10,-18 -22,-18l-78 0 0 -44 89 0c13,0 23,-4 23,-18 0,-15 -10,-18 -23,-18l-108 0c-16,0 -27,6 -27,27l0 148c0,20 11,27 27,27z"/>
  </g>
 </g>
</svg>
