<?xml version="1.0" encoding="UTF-8"?>
<!DOCTYPE svg PUBLIC "-//W3C//DTD SVG 1.1//EN" "http://www.w3.org/Graphics/SVG/1.1/DTD/svg11.dtd">
<!-- Creator: CorelDRAW X6 -->
<svg xmlns="http://www.w3.org/2000/svg" xml:space="preserve" width="2480px" height="3508px" version="1.1" style="shape-rendering:geometricPrecision; text-rendering:geometricPrecision; image-rendering:optimizeQuality; fill-rule:evenodd; clip-rule:evenodd"
viewBox="0 0 2480 3507"
 xmlns:xlink="http://www.w3.org/1999/xlink">
 <defs>
  <style type="text/css">
   <![CDATA[
    .fil0 {fill:#FEFEFE}
   ]]>
  </style>
 </defs>
 <g id="Camada_x0020_1">
  <metadata id="CorelCorpID_0Corel-Layer"/>
  <g id="train.eps">
   <path class="fil0" d="M2177 1589c0,-38 -31,-69 -69,-69l-55 0 0 -273c0,-49 -39,-88 -88,-88l-54 0c-1,0 -1,0 -1,0 0,-1 -1,-2 0,-3l0 -160c0,-34 -30,-63 -65,-63l-176 0c-35,0 -64,29 -64,63l0 155 0 2c0,1 0,4 -1,6l-146 0c-23,0 -43,-20 -43,-44l0 -302c0,-48 -40,-88 -89,-88l-657 0c-50,0 -91,39 -91,88l0 707 -56 0c-38,0 -69,31 -69,69 0,38 31,69 69,69l23 0c-2,16 -3,32 -3,48 0,198 161,360 360,360 126,0 236,-65 300,-162 43,83 129,139 229,139 86,0 163,-43 210,-108 47,65 123,108 210,108 142,0 258,-116 258,-258 0,-46 -12,-89 -33,-127l33 0c38,0 69,-31 69,-69zm-1364 -349l0 -292c0,-14 11,-25 25,-25l302 0c14,0 25,11 25,25l0 292c0,14 -11,25 -25,25l-302 0c-14,0 -25,-11 -25,-25zm88 687c-122,0 -221,-99 -221,-221 0,-122 99,-221 221,-221 122,0 221,99 221,221 0,122 -99,221 -221,221zm529 -23c-66,0 -119,-54 -119,-119 0,-66 54,-119 119,-119 66,0 119,54 119,119 0,66 -54,119 -119,119zm420 0c-66,0 -119,-54 -119,-119 0,-66 54,-119 119,-119 66,0 119,54 119,119 0,66 -54,119 -119,119z"/>
  </g>
 </g>
</svg>
