<?xml version="1.0" encoding="UTF-8"?>
<!DOCTYPE svg PUBLIC "-//W3C//DTD SVG 1.1//EN" "http://www.w3.org/Graphics/SVG/1.1/DTD/svg11.dtd">
<!-- Creator: CorelDRAW X6 -->
<svg xmlns="http://www.w3.org/2000/svg" xml:space="preserve" width="2480px" height="3508px" version="1.1" style="shape-rendering:geometricPrecision; text-rendering:geometricPrecision; image-rendering:optimizeQuality; fill-rule:evenodd; clip-rule:evenodd"
viewBox="0 0 2480 3507"
 xmlns:xlink="http://www.w3.org/1999/xlink">
 <defs>
  <style type="text/css">
   <![CDATA[
    .fil0 {fill:#FEFEFE}
   ]]>
  </style>
 </defs>
 <g id="Camada_x0020_1">
  <metadata id="CorelCorpID_0Corel-Layer"/>
  <path class="fil0" d="M1983 919c-193,-193 -446,-290 -699,-290 -253,0 -506,97 -699,290 -193,193 -290,446 -290,699l0 0c0,253 97,506 290,699 386,386 1012,386 1399,0 386,-386 386,-1012 0,-1399zm-1237 1390c-58,-43 -110,-95 -153,-153 131,-97 261,-194 392,-292 18,24 29,35 53,53 -97,131 -194,261 -292,392zm738 -490c-111,111 -291,111 -402,0 -111,-111 -111,-291 0,-402 111,-111 291,-111 402,0 111,111 111,291 0,402zm98 -447c-18,-24 -29,-35 -53,-53 97,-131 194,-261 292,-392 58,43 110,95 153,153 -131,97 -261,194 -392,292z"/>
 </g>
</svg>
