<?xml version="1.0" encoding="UTF-8"?>
<!DOCTYPE svg PUBLIC "-//W3C//DTD SVG 1.1//EN" "http://www.w3.org/Graphics/SVG/1.1/DTD/svg11.dtd">
<!-- Creator: CorelDRAW X6 -->
<svg xmlns="http://www.w3.org/2000/svg" xml:space="preserve" width="2480px" height="3508px" version="1.1" style="shape-rendering:geometricPrecision; text-rendering:geometricPrecision; image-rendering:optimizeQuality; fill-rule:evenodd; clip-rule:evenodd"
viewBox="0 0 2480 3507"
 xmlns:xlink="http://www.w3.org/1999/xlink">
 <defs>
  <style type="text/css">
   <![CDATA[
    .fil0 {fill:#FEFEFE}
   ]]>
  </style>
 </defs>
 <g id="Camada_x0020_1">
  <metadata id="CorelCorpID_0Corel-Layer"/>
  <g id="_598523488">
   <polygon class="fil0" points="1120,800 2278,800 2278,1550 1120,1550 "/>
   <path class="fil0" d="M1037 1067c0,-31 -25,-55 -55,-55l-569 0c-28,0 -51,20 -55,48l-51 366c0,3 -1,5 -1,8l0 189 -25 0 0 220 119 0c-5,19 -8,39 -8,60 0,122 99,221 221,221 122,0 221,-99 221,-221 0,-21 -3,-41 -8,-60l823 0c-6,20 -9,40 -9,62 0,122 99,221 221,221 122,0 221,-99 221,-221 0,-22 -3,-42 -9,-62l207 0 0 -220 -1240 0 0 -555zm-425 942c-59,0 -107,-48 -107,-107 0,-59 48,-107 107,-107 59,0 107,48 107,107 0,59 -48,107 -107,107zm314 -775l-171 171 -334 0 40 -283 465 0 0 112zm933 563c59,0 107,48 107,107 0,59 -48,107 -107,107 -59,0 -107,-48 -107,-107 0,-59 48,-107 107,-107z"/>
  </g>
 </g>
</svg>
