<?xml version="1.0" encoding="UTF-8"?>
<!DOCTYPE svg PUBLIC "-//W3C//DTD SVG 1.0//EN" "http://www.w3.org/TR/2001/REC-SVG-20010904/DTD/svg10.dtd">
<!-- Creator: CorelDRAW X6 -->
<svg xmlns="http://www.w3.org/2000/svg" xml:space="preserve" width="96px" height="96px" version="1.0" style="shape-rendering:geometricPrecision; text-rendering:geometricPrecision; image-rendering:optimizeQuality; fill-rule:evenodd; clip-rule:evenodd"
viewBox="0 0 96 96"
 xmlns:xlink="http://www.w3.org/1999/xlink">
 <defs>
  <style type="text/css">
   <![CDATA[
    .fil0 {fill:white}
   ]]>
  </style>
 </defs>
 <g id="Camada_x0020_1">
  <metadata id="CorelCorpID_0Corel-Layer"/>
  <g id="_595310376">
   <g id="_441992288">
    <polygon class="fil0" points="43,19 46,61 19,29 "/>
    <polygon class="fil0" points="22,22 27,10 38,16 "/>
    <polygon class="fil0" points="14,30 35,56 3,34 "/>
    <polygon class="fil0" points="49,18 60,13 50,52 "/>
    <polygon class="fil0" points="55,9 45,13 30,7 39,4 "/>
    <polygon class="fil0" points="11,13 22,10 15,24 3,29 "/>
   </g>
   <path class="fil0" d="M93 58c-4,-7 -13,-11 -21,-13 0,0 0,-1 -1,-1l-3 -1c0,-2 -1,-4 -3,-5 -2,0 -4,3 -5,5 0,2 0,3 1,4 0,0 0,0 0,0l0 1c-1,0 -3,0 -3,0 -1,1 3,2 -2,7 -5,3 -9,7 -3,19 4,11 -4,13 -4,13l0 1 15 3 0 -1c0,0 -8,-4 0,-13 9,-9 7,-13 3,-19 -3,-5 1,-5 0,-7 0,-1 -1,-1 -3,-2l0 -1c0,0 0,0 0,0 1,0 2,-1 2,-2l3 1c0,0 1,0 1,0 7,2 14,5 19,11 5,7 3,17 -3,22 -2,-2 -7,-2 -11,0 -4,2 -8,7 -5,10 1,3 7,3 12,1 4,-2 8,-7 5,-10 8,-4 10,-15 5,-23l0 0 2 0z"/>
  </g>
 </g>
</svg>
