<?xml version="1.0" encoding="UTF-8"?>
<!DOCTYPE svg PUBLIC "-//W3C//DTD SVG 1.0//EN" "http://www.w3.org/TR/2001/REC-SVG-20010904/DTD/svg10.dtd">
<!-- Creator: CorelDRAW X6 -->
<svg xmlns="http://www.w3.org/2000/svg" xml:space="preserve" width="96px" height="96px" version="1.0" style="shape-rendering:geometricPrecision; text-rendering:geometricPrecision; image-rendering:optimizeQuality; fill-rule:evenodd; clip-rule:evenodd"
viewBox="0 0 96 96"
 xmlns:xlink="http://www.w3.org/1999/xlink">
 <defs>
  <style type="text/css">
   <![CDATA[
    .fil0 {fill:white}
   ]]>
  </style>
 </defs>
 <g id="Camada_x0020_1">
  <metadata id="CorelCorpID_0Corel-Layer"/>
  <g id="_420458992">
   <path class="fil0" d="M54 49l-8 -5c2,-2 2,-2 6,-5l-5 -11 9 11c1,1 2,1 3,1l14 -2c2,0 4,-2 3,-4 0,-2 -2,-4 -4,-3l-12 2 -8 -9 8 5c0,-1 0,-3 -2,-4l-7 -7c-1,-1 -3,-2 -4,-2 -2,0 -3,1 -4,2l-15 16c-3,3 -2,7 1,9l2 2 -6 0c-2,0 -3,1 -3,3 0,2 1,3 3,3l4 0 -3 5c-2,0 -3,-1 -5,-1 -11,0 -18,9 -18,18 0,11 9,18 18,18 8,0 14,-5 17,-12 -1,0 -2,0 -3,-1 -4,-2 -5,-7 -3,-11 2,-3 1,-1 6,-10l-1 -4 3 0 -9 -10c10,6 7,4 13,9l-9 16c-1,2 0,5 2,6 2,1 5,0 6,-2l11 -19c1,-2 0,-5 -1,-6l0 0 0 0zm-23 9l2 -4 4 9c-2,-2 -4,-4 -6,-5l0 0 0 0z"/>
   <path class="fil0" d="M56 13c0,2 0,5 2,7 3,3 9,4 11,0 1,-1 1,-1 2,-2 0,0 0,0 -1,0 -3,-1 -7,-2 -10,-3 -2,-1 -4,-1 -6,-2l0 0 1 0z"/>
   <path class="fil0" d="M72 14c0,0 0,0 0,0 0,0 0,0 1,0 0,0 0,0 1,-1 0,-2 0,-4 0,-5 -2,-3 -5,-5 -10,-5 -1,0 -2,0 -3,0 -1,0 -1,0 -2,0 -2,0 -3,0 -4,0 -2,0 -3,0 -3,1 -2,4 10,6 20,10l0 0 -1 0z"/>
   <path class="fil0" d="M75 56c-1,0 -3,0 -4,0l-5 -13 -4 0 1 4 -7 1c1,1 1,2 2,3 0,0 0,0 0,1l2 0 -2 3c0,1 0,2 -1,3l-6 11 13 -14 2 5c-7,3 -11,10 -11,16 0,11 9,18 18,18 11,0 18,-9 18,-18 0,-11 -9,-18 -18,-18l0 0 0 0zm0 32c-8,0 -13,-6 -13,-13 0,-5 3,-10 8,-11l4 12c0,1 1,1 2,1 0,0 0,0 1,0 1,0 2,-2 1,-3l-4 -12c1,0 2,0 2,0 8,0 13,6 13,13 0,8 -6,13 -13,13l0 0 0 0z"/>
  </g>
 </g>
</svg>
