<?xml version="1.0" encoding="UTF-8"?>
<!DOCTYPE svg PUBLIC "-//W3C//DTD SVG 1.0//EN" "http://www.w3.org/TR/2001/REC-SVG-20010904/DTD/svg10.dtd">
<!-- Creator: CorelDRAW X6 -->
<svg xmlns="http://www.w3.org/2000/svg" xml:space="preserve" width="96px" height="96px" version="1.0" style="shape-rendering:geometricPrecision; text-rendering:geometricPrecision; image-rendering:optimizeQuality; fill-rule:evenodd; clip-rule:evenodd"
viewBox="0 0 96 96"
 xmlns:xlink="http://www.w3.org/1999/xlink">
 <defs>
  <style type="text/css">
   <![CDATA[
    .fil0 {fill:white}
   ]]>
  </style>
 </defs>
 <g id="Camada_x0020_1">
  <metadata id="CorelCorpID_0Corel-Layer"/>
  <g id="_593799504">
   <path class="fil0" d="M46 77l-33 0c-1,0 -1,-1 -1,-1l0 -64c0,-1 1,-1 1,-1l48 0c1,0 1,1 1,1l0 8 8 0 0 -13c0,-3 -2,-5 -5,-5l-57 0c-3,0 -5,2 -5,5l0 78c0,3 2,5 5,5l39 0c-1,-1 -1,-3 -1,-5l0 -10 0 0 0 1zm-9 12c-2,0 -3,-2 -3,-3 0,-2 2,-3 3,-3 2,0 3,2 3,3 0,2 -2,3 -3,3l0 0z"/>
   <path class="fil0" d="M88 27l-30 0c-3,0 -5,2 -5,5l0 55c0,3 2,5 5,5l30 0c3,0 5,-2 5,-5l0 -55c0,-3 -2,-5 -5,-5zm-16 63c-2,0 -3,-1 -3,-3 0,-2 1,-3 3,-3 2,0 3,1 3,3 0,2 -1,3 -3,3l0 0zm15 -9c0,1 0,1 -1,1l-27 0c-1,0 -1,0 -1,-1l0 -47c0,-1 0,-1 1,-1l27 0c1,0 1,0 1,1l0 47z"/>
  </g>
 </g>
</svg>
