<?xml version="1.0" encoding="UTF-8"?>
<!DOCTYPE svg PUBLIC "-//W3C//DTD SVG 1.1//EN" "http://www.w3.org/Graphics/SVG/1.1/DTD/svg11.dtd">
<!-- Creator: CorelDRAW X6 -->
<svg xmlns="http://www.w3.org/2000/svg" xml:space="preserve" width="2480px" height="3508px" version="1.1" style="shape-rendering:geometricPrecision; text-rendering:geometricPrecision; image-rendering:optimizeQuality; fill-rule:evenodd; clip-rule:evenodd"
viewBox="0 0 2480 3507"
 xmlns:xlink="http://www.w3.org/1999/xlink">
 <defs>
  <style type="text/css">
   <![CDATA[
    .fil0 {fill:#FEFEFE}
   ]]>
  </style>
 </defs>
 <g id="Camada_x0020_1">
  <metadata id="CorelCorpID_0Corel-Layer"/>
  <g id="_598312240">
   <polygon class="fil0" points="892,722 627,722 564,1540 943,1390 "/>
   <path class="fil0" d="M1206 688c144,34 330,12 430,-120 -154,10 -348,-55 -520,-55 -118,0 -225,30 -303,134 133,-8 265,9 394,41z"/>
   <path class="fil0" d="M1034 794c53,2 105,14 155,32 56,19 131,18 176,-31 -104,-4 -244,-96 -331,-2z"/>
   <path class="fil0" d="M1928 1435l0 -169 -488 193 0 -193 -977 386 0 690 362 0 0 -242 833 0 0 242 698 0 0 -1076 -428 169zm-911 456l-392 0 0 -104 392 0 0 104zm496 0l-392 0 0 -104 392 0 0 104zm496 0l-392 0 0 -104 392 0 0 104z"/>
  </g>
 </g>
</svg>
