<?xml version="1.0" encoding="UTF-8"?>
<!DOCTYPE svg PUBLIC "-//W3C//DTD SVG 1.0//EN" "http://www.w3.org/TR/2001/REC-SVG-20010904/DTD/svg10.dtd">
<!-- Creator: CorelDRAW X6 -->
<svg xmlns="http://www.w3.org/2000/svg" xml:space="preserve" width="96px" height="96px" version="1.0" style="shape-rendering:geometricPrecision; text-rendering:geometricPrecision; image-rendering:optimizeQuality; fill-rule:evenodd; clip-rule:evenodd"
viewBox="0 0 96 96"
 xmlns:xlink="http://www.w3.org/1999/xlink">
 <defs>
  <style type="text/css">
   <![CDATA[
    .fil0 {fill:white}
   ]]>
  </style>
 </defs>
 <g id="Camada_x0020_1">
  <metadata id="CorelCorpID_0Corel-Layer"/>
  <g id="_593800224">
   <g id="_443291136">
    <path class="fil0" d="M50 86c0,4 -3,7 -7,7 -4,0 -7,-3 -7,-7 0,-4 3,-7 7,-7 4,0 7,3 7,7z"/>
    <path class="fil0" d="M71 86c0,4 -3,7 -7,7 -4,0 -7,-3 -7,-7 0,-4 3,-7 7,-7 4,0 7,3 7,7z"/>
    <path class="fil0" d="M91 86c0,4 -3,7 -7,7 -4,0 -7,-3 -7,-7 0,-4 3,-7 7,-7 4,0 7,3 7,7z"/>
    <path class="fil0" d="M88 76l0 -6c0,-2 -2,-5 -4,-5 0,0 -10,-2 -14,-3 -2,-1 -4,-3 -4,-5l0 -2 -9 0 0 -4 9 0 0 -5 -9 0 0 -4 9 0 0 -8 -25 2 0 36 -8 0 0 4 55 0 0 0z"/>
   </g>
   <path class="fil0" d="M50 6c-5,-5 -12,-5 -17,0l-26 26c-2,2 -4,5 -4,9 0,3 1,6 4,9 5,5 12,5 17,0l26 -26c2,-2 4,-5 4,-9 0,-3 -1,-6 -4,-9l0 0zm-29 39l-2 -2 2 -2 -5 -5 -2 2 -2 -2 7 -7 2 2 -2 2 5 5 2 -2 2 2 -7 7zm19 -19l-2 -2 2 -2 -5 -5 -2 2 -2 -2 7 -7 2 2 -2 2 5 5 2 -2 2 2 -7 7z"/>
  </g>
 </g>
</svg>
