<?xml version="1.0" encoding="UTF-8"?>
<!DOCTYPE svg PUBLIC "-//W3C//DTD SVG 1.1//EN" "http://www.w3.org/Graphics/SVG/1.1/DTD/svg11.dtd">
<!-- Creator: CorelDRAW X6 -->
<svg xmlns="http://www.w3.org/2000/svg" xml:space="preserve" width="210mm" height="297mm" version="1.1" style="shape-rendering:geometricPrecision; text-rendering:geometricPrecision; image-rendering:optimizeQuality; fill-rule:evenodd; clip-rule:evenodd"
viewBox="0 0 21000 29700"
 xmlns:xlink="http://www.w3.org/1999/xlink">
 <defs>
  <style type="text/css">
   <![CDATA[
    .fil0 {fill:#FEFEFE}
   ]]>
  </style>
 </defs>
 <g id="Camada_x0020_1">
  <metadata id="CorelCorpID_0Corel-Layer"/>
  <g id="baby-with-diaper.eps">
   <path class="fil0" d="M13574 16687c0,0 1943,1948 1950,1948 623,624 463,1724 -127,2326l-2717 2824c-1047,1049 -2447,-404 -1433,-1417l1724 -1724 -1683 -1670 2286 -2287zm-6052 0l0 0c0,0 -1950,1948 -1950,1948 -622,624 -463,1724 121,2326l2724 2824c1047,1049 2447,-404 1439,-1417l-1724 -1724 1677 -1670 -2286 -2287zm3088 -7253c1565,0 2824,-1259 2824,-2831 0,-1556 -1259,-2817 -2824,-2817 -1558,0 -2824,1261 -2824,2817 0,1572 1266,2831 2824,2831zm3063 6120l39 -1930 2347 2195c192,180 438,265 682,265 267,0 538,-105 730,-311 379,-404 358,-1040 -46,-1419 0,0 -2692,-2924 -3077,-3262 -716,-636 -1770,-995 -3474,-995l-530 0c-1704,0 -2758,358 -3474,995 -385,338 -3075,3262 -3075,3262 -406,379 -424,1015 -48,1419 192,205 465,311 730,311 244,0 491,-85 683,-265l2347 -2188 39 1923 6126 0z"/>
  </g>
 </g>
</svg>
