<?xml version="1.0" encoding="UTF-8"?>
<!DOCTYPE svg PUBLIC "-//W3C//DTD SVG 1.1//EN" "http://www.w3.org/Graphics/SVG/1.1/DTD/svg11.dtd">
<!-- Creator: CorelDRAW X6 -->
<svg xmlns="http://www.w3.org/2000/svg" xml:space="preserve" width="2480px" height="3508px" version="1.1" style="shape-rendering:geometricPrecision; text-rendering:geometricPrecision; image-rendering:optimizeQuality; fill-rule:evenodd; clip-rule:evenodd"
viewBox="0 0 2480 3507"
 xmlns:xlink="http://www.w3.org/1999/xlink">
 <defs>
  <style type="text/css">
   <![CDATA[
    .fil0 {fill:#FEFEFE}
   ]]>
  </style>
 </defs>
 <g id="Camada_x0020_1">
  <metadata id="CorelCorpID_0Corel-Layer"/>
  <g id="_398841320">
   <path class="fil0" d="M1369 1378l283 206 245 -75 130 -400c-88,-97 -196,-175 -317,-230l-341 248 0 252z"/>
   <path class="fil0" d="M2283 1724c-8,-182 -66,-350 -160,-493l-99 305 259 188z"/>
   <polygon class="fil0" points="1044,1679 1144,1985 1465,1985 1564,1679 1304,1491 "/>
   <path class="fil0" d="M486 1231c-94,143 -152,311 -160,493l259 -188 -99 -305z"/>
   <path class="fil0" d="M1691 1707l-108 332 152 214 421 0c64,-112 106,-238 121,-373l-342 -248 -245 75z"/>
   <path class="fil0" d="M1025 2038l-108 -332 -245 -75 -342 248c15,134 57,260 121,372l421 0 152 -214z"/>
   <path class="fil0" d="M1563 825c-83,-23 -169,-35 -259,-35 -90,0 -177,12 -259,35l259 188 259 -188z"/>
   <path class="fil0" d="M1130 2114l-152 214 131 402c63,13 129,20 196,20 67,0 133,-7 196,-20l131 -402 -152 -214 -348 0z"/>
   <path class="fil0" d="M1650 2687c166,-63 310,-169 419,-305l-320 0 -99 305z"/>
   <path class="fil0" d="M956 1583l283 -206 0 -252 -341 -248c-121,55 -228,134 -317,230l130 400 245 75z"/>
   <path class="fil0" d="M539 2382c109,136 253,242 419,305l-99 -305 -320 0z"/>
  </g>
 </g>
</svg>
