<?xml version="1.0" encoding="UTF-8"?>
<!DOCTYPE svg PUBLIC "-//W3C//DTD SVG 1.1//EN" "http://www.w3.org/Graphics/SVG/1.1/DTD/svg11.dtd">
<!-- Creator: CorelDRAW X6 -->
<svg xmlns="http://www.w3.org/2000/svg" xml:space="preserve" width="2480px" height="3508px" version="1.1" style="shape-rendering:geometricPrecision; text-rendering:geometricPrecision; image-rendering:optimizeQuality; fill-rule:evenodd; clip-rule:evenodd"
viewBox="0 0 2480 3507"
 xmlns:xlink="http://www.w3.org/1999/xlink">
 <defs>
  <style type="text/css">
   <![CDATA[
    .fil0 {fill:#FEFEFE}
   ]]>
  </style>
 </defs>
 <g id="Camada_x0020_1">
  <metadata id="CorelCorpID_0Corel-Layer"/>
  <g id="_439099416">
   <path class="fil0" d="M1071 2381c18,-24 13,-59 -12,-77l-138 -102 -1 -164c0,-71 -59,-129 -130,-129l-294 0c-71,0 -130,58 -130,129l-1 164 -138 102c-15,11 -22,27 -22,44 0,11 3,23 11,33 3,4 7,8 10,11l0 368c0,230 187,418 418,418 230,0 418,-187 418,-418l0 -368c4,-3 7,-7 10,-11zm-428 729c-193,0 -350,-157 -350,-350l0 -368 159 -117c14,-10 22,-27 22,-44l1 -192c0,-6 5,-11 11,-11 6,0 11,5 11,11l0 923c0,36 29,66 66,66 36,0 66,-30 66,-66l0 -527 28 0 0 527c0,36 30,66 66,66 36,0 66,-30 66,-66l-1 -923c0,-6 5,-11 11,-11 6,0 11,5 11,11l0 0 1 192c0,17 8,34 22,44l159 117 0 368c0,193 -157,350 -350,350z"/>
   <path class="fil0" d="M757 1759c0,63 -51,114 -114,114 -63,0 -114,-51 -114,-114 0,-63 51,-114 114,-114 63,0 114,51 114,114z"/>
  </g>
  <g id="_441290488">
   <path class="fil0" d="M2216 1858c-9,-39 -49,-63 -88,-54l-656 159 -119 -215 170 33c22,4 45,-6 57,-25 12,-20 10,-44 -4,-62l-176 -218c-17,-21 -45,-26 -67,-14 10,34 9,70 -2,102l67 83 -103 -20 -128 264 84 -254c9,-29 -6,-59 -35,-69 -29,-9 -59,6 -69,35l-63 192 15 -119c0,0 0,0 0,0l-84 46c-21,15 -48,39 -42,75l39 233c4,26 27,45 54,45 23,0 44,-15 52,-37l6 -17 77 149 0 678c0,40 33,73 73,73 40,0 73,-33 73,-73l0 -701c0,0 9,-2 815,-198 39,-9 63,-49 54,-88z"/>
   <path class="fil0" d="M1110 1624l7 -33c10,-48 56,-78 104,-68 25,5 45,20 57,40 16,-35 16,-78 -4,-114 -23,-42 -66,-65 -111,-65 -21,0 -42,5 -61,16 -61,34 -83,110 -50,171 13,24 34,42 57,53z"/>
  </g>
 </g>
</svg>
