<?xml version="1.0" encoding="UTF-8"?>
<!DOCTYPE svg PUBLIC "-//W3C//DTD SVG 1.0//EN" "http://www.w3.org/TR/2001/REC-SVG-20010904/DTD/svg10.dtd">
<!-- Creator: CorelDRAW X6 -->
<svg xmlns="http://www.w3.org/2000/svg" xml:space="preserve" width="96px" height="96px" version="1.0" style="shape-rendering:geometricPrecision; text-rendering:geometricPrecision; image-rendering:optimizeQuality; fill-rule:evenodd; clip-rule:evenodd"
viewBox="0 0 96 96"
 xmlns:xlink="http://www.w3.org/1999/xlink">
 <defs>
  <style type="text/css">
   <![CDATA[
    .fil0 {fill:white}
   ]]>
  </style>
 </defs>
 <g id="Camada_x0020_1">
  <metadata id="CorelCorpID_0Corel-Layer"/>
  <g id="_597334344">
   <path class="fil0" d="M91 64l-33 -24c-1,-1 -2,0 -2,1l-3 13 -18 9c-1,1 -1,2 1,2l8 0 0 8 -7 0c-2,0 -4,2 -4,4l0 14 5 0 0 -12c0,0 0,-1 1,-1l6 0 0 13 43 0 0 -25 4 0c1,0 2,-2 1,-2l0 0 -2 -1zm-14 15l-8 0c-1,0 -1,-1 -1,-1l0 -6c0,-1 1,-1 1,-1l8 0c1,0 1,1 1,1l0 6c0,1 -1,1 -1,1z"/>
   <path class="fil0" d="M11 15c4,-1 8,0 11,3 2,2 3,3 4,5 -1,-1 -3,-2 -5,-3 -3,0 -6,1 -8,3 -1,1 -1,2 -1,3 0,1 1,1 1,1 2,-1 4,-2 7,-2 2,0 4,1 6,3 0,0 -22,25 -23,63l13 0c-1,-42 14,-59 14,-59 2,1 3,3 4,5 1,3 1,5 0,7 0,1 0,1 1,1 1,0 2,-1 3,-2 2,-2 3,-6 2,-8 -1,-2 -2,-3 -4,-4 2,1 4,2 6,3 4,3 6,7 6,10 0,1 1,1 1,0 1,-2 2,-4 3,-6 1,-5 -1,-8 -5,-11 -1,-1 -2,-2 -4,-2 0,0 0,0 0,0 5,1 8,3 10,6 0,1 2,0 2,0 0,-2 0,-4 -1,-6 -2,-5 -6,-8 -10,-8 -2,0 -4,0 -5,1 0,-2 0,-3 -1,-5 -2,-5 -6,-8 -10,-8 -2,0 -4,0 -6,0 -1,0 -1,1 0,2 4,1 7,4 8,8 0,0 0,0 0,0 -1,-1 -2,-2 -3,-3 -4,-3 -8,-3 -12,-2 -3,1 -4,2 -6,4 0,1 0,1 1,1l0 0 1 1z"/>
  </g>
 </g>
</svg>
