<?xml version="1.0" encoding="UTF-8"?>
<!DOCTYPE svg PUBLIC "-//W3C//DTD SVG 1.0//EN" "http://www.w3.org/TR/2001/REC-SVG-20010904/DTD/svg10.dtd">
<!-- Creator: CorelDRAW X6 -->
<svg xmlns="http://www.w3.org/2000/svg" xml:space="preserve" width="96px" height="96px" version="1.0" style="shape-rendering:geometricPrecision; text-rendering:geometricPrecision; image-rendering:optimizeQuality; fill-rule:evenodd; clip-rule:evenodd"
viewBox="0 0 96 96"
 xmlns:xlink="http://www.w3.org/1999/xlink">
 <defs>
  <style type="text/css">
   <![CDATA[
    .fil0 {fill:white}
   ]]>
  </style>
 </defs>
 <g id="Camada_x0020_1">
  <metadata id="CorelCorpID_0Corel-Layer"/>
  <path class="fil0" d="M46 6c-19,1 -36,14 -41,32 -5,19 2,39 18,50 2,2 5,3 8,3l35 0c3,0 6,-1 8,-3 16,-11 23,-31 18,-50 -5,-19 -22,-32 -41,-32 -1,0 -2,0 -3,0zm2 11l0 0c0,0 0,0 0,0l0 0c15,0 29,10 33,25 0,0 0,0 0,0 0,1 0,2 -1,2l-63 0c-1,0 -2,-1 -1,-2 0,0 0,0 0,0 4,-15 18,-25 33,-25zm-32 37c0,0 0,0 0,0 12,3 22,12 26,24 0,1 0,2 -1,2l-10 0c-1,0 -1,0 -2,-1 -8,-5 -13,-14 -15,-23 0,-1 1,-2 1,-2zm65 0c1,0 2,1 1,2 -1,10 -7,18 -15,23 -1,0 -1,1 -2,1l-10 0c-1,0 -2,-1 -1,-2 4,-12 14,-21 26,-24 0,0 0,0 0,0z"/>
 </g>
</svg>
