<?xml version="1.0" encoding="UTF-8"?>
<!DOCTYPE svg PUBLIC "-//W3C//DTD SVG 1.1//EN" "http://www.w3.org/Graphics/SVG/1.1/DTD/svg11.dtd">
<!-- Creator: CorelDRAW X6 -->
<svg xmlns="http://www.w3.org/2000/svg" xml:space="preserve" width="96px" height="96px" version="1.1" style="shape-rendering:geometricPrecision; text-rendering:geometricPrecision; image-rendering:optimizeQuality; fill-rule:evenodd; clip-rule:evenodd"
viewBox="0 0 9600000 9600000"
 xmlns:xlink="http://www.w3.org/1999/xlink">
 <defs>
  <style type="text/css">
   <![CDATA[
    .fil0 {fill:white}
   ]]>
  </style>
 </defs>
 <g id="Camada_x0020_1">
  <metadata id="CorelCorpID_0Corel-Layer"/>
  <g id="_372957136">
   <g id="baby-dummy-with-bear-head-silhouette.eps">
    <path class="fil0" d="M1125472 3382677c58583,187795 254409,313465 451299,284409l371457 -55394 -317480 3559370c-9094,103465 22677,202323 90236,278504 67559,76654 166890,123307 271181,126969 505276,19016 1693937,189567 1815000,1362402 20433,202677 193228,361063 393780,361063l1198583 0c203268,0 372402,-155669 393307,-360591 121063,-1173780 1309724,-1344331 1815000,-1362874 104291,-3661 203150,-50315 271181,-126969 67087,-75827 99331,-175039 90236,-278504l-317008 -3557953 370984 53976c19016,3189 37677,4016 57165,4016 179173,0 341457,-117874 394134,-288425l542835 -1747441c61654,-199134 -48071,-415394 -245315,-482953l-2424094 -831850c-38622,-13110 -78071,-19961 -117992,-20433l-4016 0c-168307,0 -310276,113386 -353858,282638 -160039,625394 -656220,758268 -937795,782362 -74409,5787 -195472,5787 -268937,0 -281693,-24094 -777874,-156969 -938858,-782362 -42638,-169252 -185551,-282638 -353740,-282638l-4134 0c-39921,472 -78898,7323 -117402,20433l-2423268 831378c-197244,67559 -306969,284764 -245315,483425l542835 1747441zm2180551 -2593701c266693,854409 1005945,1009134 1320236,1035354 96142,8268 251693,8268 346063,0 313819,-26220 1054016,-180945 1320236,-1035354l2262165 776457 -508819 1638543 -464882 -67559c-124724,-19016 -235866,22677 -313346,107008 -66260,73110 -97559,169252 -88465,271772l320669 3604606c-562441,36732 -1978819,274843 -2160236,1718504l-1079764 0c-182362,-1443189 -1598740,-1681299 -2161063,-1718504l321024 -3604606c9094,-102992 -22677,-199606 -89291,-272598 -77598,-83976 -187795,-125197 -312520,-106654l-464882 68031 -510236 -1639016 2262756 -776457 354 472z"/>
    <path class="fil0" d="M3499252 4253976c0,623976 582756,1131024 1302165,1131024 719291,0 1302047,-506102 1302047,-1131024 0,-161457 -39449,-315236 -108898,-454488 118346,-106063 192756,-260787 192756,-432638 0,-321614 -259843,-581929 -581811,-581929 -242717,0 -451299,149291 -538346,361063 -85748,-15000 -174213,-23150 -265748,-23150 -92598,0 -182362,8150 -269409,24094 -87165,-211890 -295276,-362008 -538346,-362008 -321614,0 -581929,260315 -581929,581929 0,173268 75709,328819 195945,435354 -68976,137953 -107953,290315 -107953,451299l-472 472z"/>
   </g>
   <polygon class="fil0" points="841535,1445197 3175512,605315 4191850,1513701 5407323,1479213 6231378,587598 7579252,949488 8795197,1531890 8203346,3347835 7399134,3501496 7739291,7193740 6039449,7765157 5502520,8959843 4103386,8930787 3479291,7760197 1927323,7206024 2215276,3463465 1385787,3355512 "/>
  </g>
 </g>
</svg>
