<?xml version="1.0" encoding="UTF-8"?>
<!DOCTYPE svg PUBLIC "-//W3C//DTD SVG 1.1//EN" "http://www.w3.org/Graphics/SVG/1.1/DTD/svg11.dtd">
<!-- Creator: CorelDRAW X6 -->
<svg xmlns="http://www.w3.org/2000/svg" xml:space="preserve" width="2480px" height="3508px" version="1.1" style="shape-rendering:geometricPrecision; text-rendering:geometricPrecision; image-rendering:optimizeQuality; fill-rule:evenodd; clip-rule:evenodd"
viewBox="0 0 2480 3507"
 xmlns:xlink="http://www.w3.org/1999/xlink">
 <defs>
  <style type="text/css">
   <![CDATA[
    .fil0 {fill:#FEFEFE}
   ]]>
  </style>
 </defs>
 <g id="Camada_x0020_1">
  <metadata id="CorelCorpID_0Corel-Layer"/>
  <g id="_596715232">
   <path class="fil0" d="M1238 1320l-802 661c0,1 0,2 -1,4 0,2 -1,3 -1,4l0 669c0,24 9,45 26,63 18,18 39,27 63,27l536 0 0 -536 357 0 0 536 536 0c24,0 45,-9 63,-26 18,-18 27,-39 27,-63l0 -669c0,-4 -1,-7 -1,-8l-802 -661z"/>
   <path class="fil0" d="M2347 1831l-305 -254 0 -569c0,-13 -4,-24 -13,-32 -8,-8 -19,-13 -32,-13l-268 0c-13,0 -24,4 -32,13 -8,8 -13,19 -13,32l0 272 -340 -285c-30,-24 -65,-36 -106,-36 -41,0 -76,12 -106,36l-1003 835c-9,7 -14,17 -15,30 -1,13 2,23 10,33l86 103c7,8 17,14 29,15 11,1 22,-2 34,-10l965 -805 965 805c7,7 17,10 29,10l4 0c12,-2 22,-7 29,-15l87 -103c7,-9 11,-20 10,-33 -1,-13 -6,-22 -15,-30z"/>
  </g>
 </g>
</svg>
