<?xml version="1.0" encoding="UTF-8"?>
<!DOCTYPE svg PUBLIC "-//W3C//DTD SVG 1.0//EN" "http://www.w3.org/TR/2001/REC-SVG-20010904/DTD/svg10.dtd">
<!-- Creator: CorelDRAW X6 -->
<svg xmlns="http://www.w3.org/2000/svg" xml:space="preserve" width="96px" height="96px" version="1.0" style="shape-rendering:geometricPrecision; text-rendering:geometricPrecision; image-rendering:optimizeQuality; fill-rule:evenodd; clip-rule:evenodd"
viewBox="0 0 96 96"
 xmlns:xlink="http://www.w3.org/1999/xlink">
 <defs>
  <style type="text/css">
   <![CDATA[
    .fil0 {fill:white}
   ]]>
  </style>
 </defs>
 <g id="Camada_x0020_1">
  <metadata id="CorelCorpID_0Corel-Layer"/>
  <g id="_420463384">
   <path class="fil0" d="M91 5c-9,-2 -18,-2 -27,-1l28 28c1,-9 1,-18 -1,-27l0 0z"/>
   <path class="fil0" d="M5 91c9,2 18,2 27,1l-28 -28c-1,9 -1,18 1,27l0 0z"/>
   <path class="fil0" d="M24 25c-10,10 -16,21 -19,33l33 33c12,-3 24,-10 33,-19 10,-10 16,-21 19,-33l-33 -33c-12,3 -24,10 -33,19l0 0zm41 20l-5 -5 -8 8 5 5 -4 4 -5 -5 -9 9 5 5 -4 4 -14 -14 4 -4 5 5 9 -9 -5 -5 4 -4 5 5 8 -8 -5 -5 4 -4 14 14 -4 4 0 0z"/>
  </g>
 </g>
</svg>
