<?xml version="1.0" encoding="UTF-8"?>
<!DOCTYPE svg PUBLIC "-//W3C//DTD SVG 1.0//EN" "http://www.w3.org/TR/2001/REC-SVG-20010904/DTD/svg10.dtd">
<!-- Creator: CorelDRAW X6 -->
<svg xmlns="http://www.w3.org/2000/svg" xml:space="preserve" width="96px" height="96px" version="1.0" style="shape-rendering:geometricPrecision; text-rendering:geometricPrecision; image-rendering:optimizeQuality; fill-rule:evenodd; clip-rule:evenodd"
viewBox="0 0 96 96"
 xmlns:xlink="http://www.w3.org/1999/xlink">
 <defs>
  <style type="text/css">
   <![CDATA[
    .fil0 {fill:white}
   ]]>
  </style>
 </defs>
 <g id="Camada_x0020_1">
  <metadata id="CorelCorpID_0Corel-Layer"/>
  <g id="_401162232">
   <path class="fil0" d="M32 16c3,-4 8,-5 12,-2l15 11c2,2 3,5 3,7 3,0 5,-1 8,1l14 11c4,3 5,8 2,12l0 0 2 1 4 -6c3,-4 2,-9 -2,-12l-42 -31c-4,-3 -9,-2 -12,2l-4 6 2 1 0 0 -1 -1z"/>
   <path class="fil0" d="M87 62l-63 -46c-2,-1 -4,-1 -5,1l-12 16c-1,2 -1,4 1,5l1 1 -4 3c-1,1 -1,2 -1,3 0,0 0,0 1,1 1,1 2,0 2,0l5 -3 55 40 -2 6c-1,1 0,1 1,2 0,0 0,0 1,1 1,1 3,0 2,-2l1 -5 1 1c2,1 4,1 5,-1l12 -16c1,-2 1,-4 -1,-5l0 0 1 1z"/>
   <path class="fil0" d="M66 36c-2,-2 -5,-1 -7,1l0 0 21 16 0 0c2,-2 1,-5 -1,-7l-14 -11 0 0 1 1z"/>
   <path class="fil0" d="M40 17c-2,-2 -5,-1 -7,1l0 0 21 16 0 0c2,-2 1,-5 -1,-7l-14 -11 0 0 1 1z"/>
  </g>
 </g>
</svg>
