<?xml version="1.0" encoding="UTF-8"?>
<!DOCTYPE svg PUBLIC "-//W3C//DTD SVG 1.1//EN" "http://www.w3.org/Graphics/SVG/1.1/DTD/svg11.dtd">
<!-- Creator: CorelDRAW X6 -->
<svg xmlns="http://www.w3.org/2000/svg" xml:space="preserve" width="2480px" height="3508px" version="1.1" style="shape-rendering:geometricPrecision; text-rendering:geometricPrecision; image-rendering:optimizeQuality; fill-rule:evenodd; clip-rule:evenodd"
viewBox="0 0 2480 3507"
 xmlns:xlink="http://www.w3.org/1999/xlink">
 <defs>
  <style type="text/css">
   <![CDATA[
    .fil0 {fill:#FEFEFE}
   ]]>
  </style>
 </defs>
 <g id="Camada_x0020_1">
  <metadata id="CorelCorpID_0Corel-Layer"/>
  <g id="_397360096">
   <path class="fil0" d="M678 1669l-60 -260c-4,-18 7,-36 25,-40 18,-4 36,7 40,25l63 275 250 0 0 -440 -322 0c-52,0 -94,42 -94,94l0 345 98 0z"/>
   <path class="fil0" d="M724 1885c18,-5 36,6 41,24l76 294 156 0 0 -467 -416 0 0 467 69 0 -57 -251c-4,-18 7,-36 25,-40 18,-4 36,7 40,25l59 258c1,3 1,5 1,7l55 0 -72 -278c-5,-18 6,-36 24,-41z"/>
   <path class="fil0" d="M1063 2767l444 0 0 -1537 -444 0 0 1537zm264 -802l38 0c18,0 33,15 33,33 0,18 -15,33 -33,33l-38 0c-18,0 -33,-15 -33,-33 0,-18 15,-33 33,-33z"/>
   <path class="fil0" d="M996 2270l-416 0 0 403c0,52 42,94 94,94l322 0 0 -497z"/>
   <path class="fil0" d="M1931 1230l-358 0 0 1537 358 0c52,0 94,-42 94,-94l0 -1348c0,-52 -42,-94 -94,-94zm-178 802l-38 0c-18,0 -33,-15 -33,-33 0,-18 15,-33 33,-33l38 0c18,0 33,15 33,33 0,18 -15,33 -33,33z"/>
  </g>
 </g>
</svg>
