<?xml version="1.0" encoding="UTF-8"?>
<!DOCTYPE svg PUBLIC "-//W3C//DTD SVG 1.1//EN" "http://www.w3.org/Graphics/SVG/1.1/DTD/svg11.dtd">
<!-- Creator: CorelDRAW X6 -->
<svg xmlns="http://www.w3.org/2000/svg" xml:space="preserve" width="2480px" height="3508px" version="1.1" style="shape-rendering:geometricPrecision; text-rendering:geometricPrecision; image-rendering:optimizeQuality; fill-rule:evenodd; clip-rule:evenodd"
viewBox="0 0 2480 3507"
 xmlns:xlink="http://www.w3.org/1999/xlink">
 <defs>
  <style type="text/css">
   <![CDATA[
    .fil0 {fill:#FEFEFE}
   ]]>
  </style>
 </defs>
 <g id="Camada_x0020_1">
  <metadata id="CorelCorpID_0Corel-Layer"/>
  <path class="fil0" d="M2291 1365c-62,-77 -150,-118 -254,-118 -31,0 -64,4 -98,11 119,-130 114,-253 95,-326 -44,-162 -217,-290 -395,-290 -100,0 -185,40 -247,115 -32,39 -57,86 -74,141 -18,-55 -42,-102 -74,-141 -62,-75 -147,-115 -247,-115 -178,0 -351,127 -395,290 -21,79 -10,161 31,238 17,30 38,60 64,89 -34,-7 -67,-11 -99,-11 -104,0 -192,41 -254,118 -54,67 -83,157 -83,253 0,96 30,186 83,253 62,77 150,118 254,118 32,0 65,-4 99,-11 -26,29 -47,58 -64,89 -42,77 -53,160 -31,238 44,162 217,291 395,291l0 0c100,0 185,-41 247,-116 32,-39 57,-87 74,-142 18,55 42,102 74,141 62,75 147,115 247,115 178,0 351,-128 395,-290 20,-73 24,-197 -95,-327 34,7 67,10 98,10l0 0c104,0 192,-40 254,-117 54,-67 83,-156 83,-252 0,-96 -30,-186 -83,-253zm-974 -236c0,1 0,2 0,3 0,-1 0,-2 0,-3l0 0zm-420 246l0 0c0,0 0,0 0,0 0,0 0,0 0,0zm420 732c0,-1 0,-2 0,-3 0,1 0,2 0,3l0 0zm-3 -110c-209,0 -378,-169 -378,-378 0,-209 169,-378 378,-378 209,0 378,169 378,378 0,209 -169,378 -378,378zm423 -621c0,0 0,0 0,0 0,0 0,0 0,0z"/>
 </g>
</svg>
