<?xml version="1.0" encoding="UTF-8"?>
<!DOCTYPE svg PUBLIC "-//W3C//DTD SVG 1.1//EN" "http://www.w3.org/Graphics/SVG/1.1/DTD/svg11.dtd">
<!-- Creator: CorelDRAW X6 -->
<svg xmlns="http://www.w3.org/2000/svg" xml:space="preserve" width="2480px" height="3508px" version="1.1" style="shape-rendering:geometricPrecision; text-rendering:geometricPrecision; image-rendering:optimizeQuality; fill-rule:evenodd; clip-rule:evenodd"
viewBox="0 0 2480 3507"
 xmlns:xlink="http://www.w3.org/1999/xlink">
 <defs>
  <style type="text/css">
   <![CDATA[
    .fil0 {fill:#FEFEFE}
   ]]>
  </style>
 </defs>
 <g id="Camada_x0020_1">
  <metadata id="CorelCorpID_0Corel-Layer"/>
  <g id="_596122952">
   <path class="fil0" d="M446 1614c-101,0 -182,81 -182,182 0,8 1,15 2,23 11,90 88,159 180,159 95,0 173,-73 181,-167 0,-5 1,-10 1,-16 0,-101 -82,-182 -182,-182zm-91 113l37 37c-3,5 -5,10 -7,16l-52 0c3,-20 10,-38 22,-53zm-22 85l53 0c1,6 4,11 7,16l-37 37c-11,-15 -19,-33 -22,-53zm97 97c-20,-3 -38,-10 -53,-22l37 -37c5,3 10,5 16,6l0 53zm0 -174c-6,1 -11,4 -16,7l-37 -37c15,-12 33,-19 53,-22l0 52zm32 -52c20,3 38,10 53,22l-37 37c-5,-3 -10,-5 -16,-7l0 -52zm0 226l0 -53c6,-1 11,-4 16,-6l37 37c-15,11 -33,19 -53,22zm75 -44l-37 -37c3,-5 5,-10 7,-16l52 0c-3,20 -10,38 -22,53zm-31 -85c-1,-6 -4,-11 -7,-16l37 -37c11,15 19,33 22,53l-52 0z"/>
   <path class="fil0" d="M1979 1614c-100,0 -182,81 -182,182 0,8 1,15 2,23 11,90 88,159 180,159 95,0 173,-73 181,-167 0,-5 1,-10 1,-16 0,-101 -82,-182 -182,-182zm-91 113l37 37c-3,5 -5,10 -7,16l-52 0c3,-20 10,-38 22,-53zm-22 85l53 0c1,6 4,11 7,16l-37 37c-11,-15 -19,-33 -22,-53zm97 97c-20,-3 -38,-10 -53,-22l37 -37c5,3 10,5 16,6l0 53zm0 -174c-6,1 -11,4 -16,7l-37 -37c15,-12 33,-19 53,-22l0 52zm32 -52c20,3 38,10 53,22l-37 37c-5,-3 -10,-5 -16,-7l0 -52zm0 226l0 -53c6,-1 11,-4 16,-6l37 37c-15,11 -33,19 -53,22zm75 -44l-37 -37c3,-5 5,-10 7,-16l52 0c-3,20 -10,38 -22,53zm-31 -85c-1,-6 -4,-11 -7,-16l37 -37c12,15 19,33 22,53l-52 0z"/>
   <path class="fil0" d="M2367 1556l-35 -33 0 -106c0,-28 -10,-54 -29,-75l-129 -143c-1,-30 -22,-55 -51,-60 -154,-29 -631,-104 -1009,-2 -233,63 -471,189 -471,189 0,0 -412,52 -511,181 -34,45 -49,104 -54,157 0,4 -1,7 -1,11l0 7c2,67 48,125 115,140l38 9c0,-2 -1,-4 -1,-6 -1,-10 -2,-19 -2,-27 0,-121 98,-219 219,-219 121,0 219,98 219,219 0,6 0,12 -1,19 -1,7 -2,15 -3,22l1104 2c-1,-5 -2,-10 -3,-15 -1,-10 -2,-19 -2,-27 0,-121 98,-219 219,-219 121,0 219,98 219,219 0,6 0,12 -1,19 -1,8 -2,17 -4,25l15 0 63 -34c65,-36 107,-104 110,-178l1 -33c1,-14 -5,-28 -16,-38zm-1507 -216l17 -68c0,0 256,-134 684,-119l0 199 -685 54c0,0 4,-43 -15,-67zm1098 -19l-322 25 0 -189c106,8 221,24 345,54 13,3 23,12 27,24 4,12 1,26 -7,36l-42 50z"/>
  </g>
 </g>
</svg>
