<?xml version="1.0" encoding="UTF-8"?>
<!DOCTYPE svg PUBLIC "-//W3C//DTD SVG 1.1//EN" "http://www.w3.org/Graphics/SVG/1.1/DTD/svg11.dtd">
<!-- Creator: CorelDRAW X6 -->
<svg xmlns="http://www.w3.org/2000/svg" xml:space="preserve" width="2480px" height="3508px" version="1.1" style="shape-rendering:geometricPrecision; text-rendering:geometricPrecision; image-rendering:optimizeQuality; fill-rule:evenodd; clip-rule:evenodd"
viewBox="0 0 2480 3507"
 xmlns:xlink="http://www.w3.org/1999/xlink">
 <defs>
  <style type="text/css">
   <![CDATA[
    .fil0 {fill:#FEFEFE}
   ]]>
  </style>
 </defs>
 <g id="Camada_x0020_1">
  <metadata id="CorelCorpID_0Corel-Layer"/>
  <g id="ship-in-a-bottle.eps">
   <path class="fil0" d="M2337 1404l-188 0c-87,0 -164,-55 -192,-138 -50,-146 -187,-244 -341,-244l-1354 0c-122,0 -221,99 -221,221l0 755c0,122 99,221 221,221l1354 0c154,0 292,-98 341,-244 28,-82 105,-138 192,-138l188 0c21,0 38,-17 38,-38l0 -356c0,-21 -17,-38 -38,-38zm-721 738l-1354 0c-80,0 -145,-65 -145,-145l0 -12c18,8 37,12 57,12 45,0 87,-21 114,-57 13,-17 33,-27 54,-27 21,0 41,10 54,27 27,36 69,57 114,57 45,0 87,-21 114,-57 13,-17 33,-27 54,-27 21,0 41,10 54,27 27,36 69,57 114,57 45,0 87,-21 114,-57 13,-17 33,-27 54,-27 21,0 41,10 54,27 27,36 69,57 114,57 45,0 87,-21 114,-57 13,-17 33,-27 54,-27 21,0 41,10 54,27 27,36 69,57 114,57 45,0 87,-21 114,-57 13,-17 33,-27 54,-27 21,0 41,10 54,27 27,36 69,57 114,57 3,0 5,0 8,0 -50,88 -144,145 -248,145zm-933 -704l-64 0 0 -119 64 0 0 119zm-102 76l805 0 17 88 -908 0 0 -88 87 0zm394 -76l-64 0 0 -119 64 0 0 119zm292 0l-64 0 0 -119 64 0 0 119zm301 239l-110 207c-27,-30 -65,-46 -105,-46 -45,0 -87,21 -114,57 -13,17 -33,27 -54,27 -21,0 -41,-10 -54,-27 -27,-36 -69,-57 -114,-57 -45,0 -87,21 -114,57 -13,17 -33,27 -54,27 -21,0 -41,-10 -54,-27 -27,-36 -69,-57 -114,-57 -45,0 -87,21 -114,57 -13,17 -33,27 -54,27 -21,0 -41,-10 -54,-27 -21,-28 -50,-46 -83,-54l0 -164 1194 0zm336 231c-13,9 -31,14 -47,14 -21,0 -41,-10 -54,-27 -27,-36 -69,-57 -114,-57 -45,0 -87,21 -114,57 -12,16 -31,26 -51,27l140 -265c6,-12 6,-26 -1,-37 -7,-11 -19,-18 -32,-18l-151 0 -25 -133c-3,-18 -19,-31 -37,-31l-75 0 0 -157c0,-21 -17,-38 -38,-38l-140 0c-21,0 -38,17 -38,38l0 157 -76 0 0 -157c0,-21 -17,-38 -38,-38l-140 0c-21,0 -38,17 -38,38l0 157 -76 0 0 -157c0,-21 -17,-38 -38,-38l-140 0c-21,0 -38,17 -38,38l0 157 -87 0c-21,0 -38,17 -38,38l0 125 -83 0c-21,0 -38,17 -38,38l0 206c-28,9 -52,26 -70,50 -13,17 -33,27 -54,27 -21,0 -45,-12 -57,-33l0 -646c0,-80 65,-145 145,-145l1354 0c122,0 230,78 270,193 38,113 145,189 264,189l15 0 0 280 -15 0c-104,0 -199,58 -246,148zm396 -148l-59 0 0 -280 59 0 0 280z"/>
   <path class="fil0" d="M1457 1748c0,23 -19,41 -41,41 -23,0 -42,-19 -42,-41 0,-23 19,-42 42,-42 23,0 41,19 41,42z"/>
   <path class="fil0" d="M1645 1175c-21,0 -38,17 -38,38 0,21 17,38 38,38 61,0 110,49 110,110 0,21 17,38 38,38 21,0 38,-17 38,-38 0,-102 -83,-186 -186,-186z"/>
  </g>
  <polygon class="fil0" points="115,1950 262,1923 352,1872 512,1950 699,1876 849,1967 1005,1874 1176,1954 1352,1885 1530,1958 1694,1875 1822,1952 1907,2001 1762,2140 177,2170 85,2046 "/>
  <rect class="fil0" x="475" y="1488" width="962" height="130"/>
  <rect class="fil0" x="585" y="1288" width="130" height="200"/>
  <rect class="fil0" x="2209" y="1443" width="127" height="342"/>
 </g>
</svg>
