<?xml version="1.0" encoding="UTF-8"?>
<!DOCTYPE svg PUBLIC "-//W3C//DTD SVG 1.0//EN" "http://www.w3.org/TR/2001/REC-SVG-20010904/DTD/svg10.dtd">
<!-- Creator: CorelDRAW X6 -->
<svg xmlns="http://www.w3.org/2000/svg" xml:space="preserve" width="96px" height="96px" version="1.0" style="shape-rendering:geometricPrecision; text-rendering:geometricPrecision; image-rendering:optimizeQuality; fill-rule:evenodd; clip-rule:evenodd"
viewBox="0 0 96 96"
 xmlns:xlink="http://www.w3.org/1999/xlink">
 <defs>
  <style type="text/css">
   <![CDATA[
    .fil0 {fill:white}
   ]]>
  </style>
 </defs>
 <g id="Camada_x0020_1">
  <metadata id="CorelCorpID_0Corel-Layer"/>
  <g id="_597101104">
   <path class="fil0" d="M87 23c0,0 0,0 0,-1 0,-1 -1,-2 -2,-2l-5 0c-1,0 -2,1 -2,2 0,0 0,0 0,1l-10 0 -3 -7c-1,-2 -4,-4 -7,-4l-21 0c-3,0 -6,2 -7,4l-3 7 -3 0 0 -3c0,0 0,0 -1,0l-14 0c0,0 -1,0 -1,0l0 3c-4,0 -7,3 -7,7l0 47c0,4 3,7 7,7l77 0c4,0 7,-3 7,-7l0 -47c0,-3 -3,-6 -6,-6l0 0 0 -1zm-50 -4c0,0 0,-1 1,-1l21 0c0,0 1,0 1,1l0 3c0,0 0,1 -1,1l-21 0c0,0 -1,0 -1,-1l0 -3 0 0zm-24 18c-2,0 -4,-2 -4,-4 0,-2 2,-4 4,-4 2,0 4,2 4,4 0,2 -2,4 -4,4zm6 4c-1,0 -2,-1 -2,-2 0,-1 1,-2 2,-2 1,0 2,1 2,2 0,1 -1,2 -2,2zm30 37c-13,0 -24,-11 -24,-24 0,-13 11,-24 24,-24 13,0 24,11 24,24 0,13 -11,24 -24,24z"/>
   <path class="fil0" d="M49 34c-11,0 -19,9 -19,19 0,11 9,19 19,19 11,0 19,-9 19,-19 0,-11 -9,-19 -19,-19zm0 30c-6,0 -11,-5 -11,-11 0,-6 5,-11 11,-11 6,0 11,5 11,11 0,6 -5,11 -11,11z"/>
  </g>
 </g>
</svg>
