<?xml version="1.0" encoding="UTF-8"?>
<!DOCTYPE svg PUBLIC "-//W3C//DTD SVG 1.1//EN" "http://www.w3.org/Graphics/SVG/1.1/DTD/svg11.dtd">
<!-- Creator: CorelDRAW X6 -->
<svg xmlns="http://www.w3.org/2000/svg" xml:space="preserve" width="2480px" height="3508px" version="1.1" style="shape-rendering:geometricPrecision; text-rendering:geometricPrecision; image-rendering:optimizeQuality; fill-rule:evenodd; clip-rule:evenodd"
viewBox="0 0 2480 3507"
 xmlns:xlink="http://www.w3.org/1999/xlink">
 <defs>
  <style type="text/css">
   <![CDATA[
    .fil0 {fill:#FEFEFE}
   ]]>
  </style>
 </defs>
 <g id="Camada_x0020_1">
  <metadata id="CorelCorpID_0Corel-Layer"/>
  <g id="_397360624">
   <path class="fil0" d="M2038 2084c-70,9 -138,17 -209,26 -4,51 -13,105 49,136l109 0c54,-32 71,-94 50,-163z"/>
   <path class="fil0" d="M2120 1338c-78,-22 -156,15 -192,91 -29,61 -56,122 -84,185 -347,-104 -690,-101 -1038,1 -28,-62 -54,-121 -79,-179 -31,-72 -98,-112 -174,-103 -70,8 -130,66 -142,136 -12,73 24,143 94,175 21,10 27,22 29,43 6,67 15,134 23,202 6,57 37,99 90,117 43,15 89,25 134,25 363,2 727,1 1090,1 18,0 36,-1 54,-3 103,-14 159,-60 169,-140 8,-66 17,-132 23,-198 2,-24 9,-38 33,-48 65,-30 99,-95 91,-166 -7,-66 -55,-120 -121,-139z"/>
   <path class="fil0" d="M1967 933c-44,-14 -184,-19 -231,-19 -121,-1 -265,-1 -411,-1 -146,0 -289,0 -411,1 -46,0 -186,5 -231,19 -130,40 -138,190 -128,322 170,-4 241,111 290,251 161,-30 320,-45 479,-44 159,0 319,14 479,44 48,-140 119,-255 290,-251 10,-132 3,-282 -128,-322z"/>
   <path class="fil0" d="M616 2083c70,9 138,17 209,26 4,51 13,105 -49,136l-109 0c-54,-32 -71,-94 -50,-163z"/>
  </g>
 </g>
</svg>
