<?xml version="1.0" encoding="UTF-8"?>
<!DOCTYPE svg PUBLIC "-//W3C//DTD SVG 1.0//EN" "http://www.w3.org/TR/2001/REC-SVG-20010904/DTD/svg10.dtd">
<!-- Creator: CorelDRAW X6 -->
<svg xmlns="http://www.w3.org/2000/svg" xml:space="preserve" width="96px" height="96px" version="1.0" style="shape-rendering:geometricPrecision; text-rendering:geometricPrecision; image-rendering:optimizeQuality; fill-rule:evenodd; clip-rule:evenodd"
viewBox="0 0 96 96"
 xmlns:xlink="http://www.w3.org/1999/xlink">
 <defs>
  <style type="text/css">
   <![CDATA[
    .fil0 {fill:white}
   ]]>
  </style>
 </defs>
 <g id="Camada_x0020_1">
  <metadata id="CorelCorpID_0Corel-Layer"/>
  <path class="fil0" d="M31 4l-26 26c-2,2 -2,4 0,6l54 54c2,2 4,2 6,0l26 -26c2,-2 2,-4 0,-6l-54 -54c-2,-2 -4,-2 -6,0zm-13 22l9 -9 1 1 -9 9 -1 -1zm57 48c-1,1 -3,1 -4,0 -1,-1 -1,-3 0,-4 1,-1 3,-1 4,0 1,1 1,3 0,4l0 0zm8 -20l-28 28 -42 -42 28 -28 42 42z"/>
 </g>
</svg>
