<?xml version="1.0" encoding="UTF-8"?>
<!DOCTYPE svg PUBLIC "-//W3C//DTD SVG 1.0//EN" "http://www.w3.org/TR/2001/REC-SVG-20010904/DTD/svg10.dtd">
<!-- Creator: CorelDRAW X6 -->
<svg xmlns="http://www.w3.org/2000/svg" xml:space="preserve" width="96px" height="96px" version="1.0" style="shape-rendering:geometricPrecision; text-rendering:geometricPrecision; image-rendering:optimizeQuality; fill-rule:evenodd; clip-rule:evenodd"
viewBox="0 0 96 96"
 xmlns:xlink="http://www.w3.org/1999/xlink">
 <defs>
  <style type="text/css">
   <![CDATA[
    .fil0 {fill:white}
   ]]>
  </style>
 </defs>
 <g id="Camada_x0020_1">
  <metadata id="CorelCorpID_0Corel-Layer"/>
  <g id="_597410592">
   <path class="fil0" d="M33 32c0,0 2,-1 2,-1 1,0 2,0 3,1l2 6 2 -6c0,-1 2,-2 3,-1 0,0 2,1 2,1 3,1 4,3 5,6l0 -19c0,-1 -1,-2 -2,-2l-20 0c-1,0 -2,1 -2,2l0 19c0,-3 2,-5 5,-6l0 0zm7 -12c3,0 6,3 6,6 0,3 -3,6 -6,6 -3,0 -6,-3 -6,-6 0,-3 3,-6 6,-6z"/>
   <path class="fil0" d="M46 36l-3 7 4 0 0 -5c0,-1 0,-1 -1,-2l0 0z"/>
   <path class="fil0" d="M33 38l0 5 4 0 -3 -7c-1,0 -1,1 -1,2l0 0z"/>
   <path class="fil0" d="M79 3l-61 0c-2,0 -3,1 -3,3l0 84c0,2 1,3 3,3l61 0c2,0 3,-1 3,-3l0 -84c0,-2 -1,-3 -3,-3zm-55 11c0,-1 1,-2 2,-2l28 0c1,0 2,1 2,2l0 32c0,1 -1,2 -2,2l-28 0c-1,0 -2,-1 -2,-2l0 -32zm47 64l-45 0c-1,0 -2,-1 -2,-2 0,-1 1,-2 2,-2l45 0c1,0 2,1 2,2 0,1 -1,2 -2,2zm0 -17l-45 0c-1,0 -2,-1 -2,-2 0,-1 1,-2 2,-2l45 0c1,0 2,1 2,2 0,1 -1,2 -2,2zm0 -23l-6 0c-1,0 -2,-1 -2,-2 0,-1 1,-2 2,-2l6 0c1,0 2,1 2,2 0,1 -1,2 -2,2zm0 -11l-6 0c-1,0 -2,-1 -2,-2 0,-1 1,-2 2,-2l6 0c1,0 2,1 2,2 0,1 -1,2 -2,2z"/>
  </g>
 </g>
</svg>
