<?xml version="1.0" encoding="UTF-8"?>
<!DOCTYPE svg PUBLIC "-//W3C//DTD SVG 1.1//EN" "http://www.w3.org/Graphics/SVG/1.1/DTD/svg11.dtd">
<!-- Creator: CorelDRAW X6 -->
<svg xmlns="http://www.w3.org/2000/svg" xml:space="preserve" width="2480px" height="3508px" version="1.1" style="shape-rendering:geometricPrecision; text-rendering:geometricPrecision; image-rendering:optimizeQuality; fill-rule:evenodd; clip-rule:evenodd"
viewBox="0 0 2480 3507"
 xmlns:xlink="http://www.w3.org/1999/xlink">
 <defs>
  <style type="text/css">
   <![CDATA[
    .fil0 {fill:#FEFEFE}
   ]]>
  </style>
 </defs>
 <g id="Camada_x0020_1">
  <metadata id="CorelCorpID_0Corel-Layer"/>
  <path class="fil0" d="M369 1483c34,0 68,-17 89,-48l23 -34c11,47 52,82 102,82 59,0 107,-48 107,-107 0,59 48,107 107,107 59,0 107,-48 107,-107 0,59 48,107 107,107 59,0 107,-48 107,-107 0,59 48,107 107,107 59,0 107,-48 107,-107 0,59 48,107 107,107 59,0 107,-48 107,-107 0,59 48,107 107,107 50,0 90,-35 102,-82l23 34c21,31 54,48 89,48 20,0 41,-6 59,-18 49,-33 62,-99 30,-148l-195 -261 -427 0 0 -107 107 0c59,0 107,-48 107,-107l0 -107c0,-59 -48,-107 -107,-107l-640 0c-59,0 -107,48 -107,107l0 107c0,59 48,107 107,107l107 0 0 107 -427 0 -195 261c-33,49 -19,115 30,148 18,12 39,18 59,18zm933 -773l133 0 0 80 -107 0 0 53 -27 0 0 -133zm-187 0l133 0 0 133 -133 0 0 -133zm-160 0l27 0 0 53 53 0 0 -53 27 0 0 133 -27 0 0 -53 -53 0 0 53 -27 0 0 -133zm-160 133l0 -27 80 0 0 -27 -80 0 0 -80 107 0 0 27 -80 0 0 27 80 0 0 80 -107 0zm213 107l213 0 0 107 -213 0 0 -107zm960 1386l-1706 0c0,-88 72,-160 160,-160l1386 0c88,0 160,72 160,160zm-1386 -800l-107 0 0 587 1280 0 0 -587 -1173 0zm0 480l0 -373 320 0 0 373 -320 0zm427 0l0 -373 640 0 0 373 -640 0zm-267 -213c0,29 -24,53 -53,53 -29,0 -53,-24 -53,-53 0,-29 24,-53 53,-53 29,0 53,24 53,53zm667 -1040l-80 0 0 -27 80 0 0 27zm-267 -27l80 0 0 80 -80 0 0 -80z"/>
  <rect class="fil0" x="746" y="678" width="715" height="200"/>
 </g>
</svg>
