<?xml version="1.0" encoding="UTF-8"?>
<!DOCTYPE svg PUBLIC "-//W3C//DTD SVG 1.0//EN" "http://www.w3.org/TR/2001/REC-SVG-20010904/DTD/svg10.dtd">
<!-- Creator: CorelDRAW X6 -->
<svg xmlns="http://www.w3.org/2000/svg" xml:space="preserve" width="96px" height="96px" version="1.0" style="shape-rendering:geometricPrecision; text-rendering:geometricPrecision; image-rendering:optimizeQuality; fill-rule:evenodd; clip-rule:evenodd"
viewBox="0 0 96 96"
 xmlns:xlink="http://www.w3.org/1999/xlink">
 <defs>
  <style type="text/css">
   <![CDATA[
    .fil0 {fill:white}
   ]]>
  </style>
 </defs>
 <g id="Camada_x0020_1">
  <metadata id="CorelCorpID_0Corel-Layer"/>
  <g id="_598560776">
   <path class="fil0" d="M81 61c7,7 7,18 0,24 -7,7 -18,7 -24,0 -7,-7 -7,-18 0,-24 7,-7 18,-7 24,0zm-19 19c4,4 10,4 13,0 4,-4 4,-10 0,-13 -4,-4 -10,-4 -13,0 -4,4 -4,10 0,13z"/>
   <path class="fil0" d="M32 12c1,1 2,3 3,5l9 -2c0,-1 0,-2 -1,-4l6 -6 3 8 13 -3 10 10 0 3 -11 -6 -9 2 5 14 16 3 18 13 -4 4 -20 -3 -21 7 -13 -13 9 -16c0,0 0,-3 0,-7l-7 2c0,5 -1,9 -5,13 -7,7 -18,7 -24,0 -7,-7 -7,-18 0,-24 7,-7 18,-7 24,0l0 0zm-19 19c4,4 10,4 13,0 2,-2 3,-4 3,-6l-9 2 -2 -7 9 -2c0,0 0,-1 -1,-1 -4,-4 -10,-4 -13,0 -4,4 -4,10 0,13l0 0z"/>
  </g>
 </g>
</svg>
