<?xml version="1.0" encoding="UTF-8"?>
<!DOCTYPE svg PUBLIC "-//W3C//DTD SVG 1.0//EN" "http://www.w3.org/TR/2001/REC-SVG-20010904/DTD/svg10.dtd">
<!-- Creator: CorelDRAW X6 -->
<svg xmlns="http://www.w3.org/2000/svg" xml:space="preserve" width="96px" height="96px" version="1.0" style="shape-rendering:geometricPrecision; text-rendering:geometricPrecision; image-rendering:optimizeQuality; fill-rule:evenodd; clip-rule:evenodd"
viewBox="0 0 96 96"
 xmlns:xlink="http://www.w3.org/1999/xlink">
 <defs>
  <style type="text/css">
   <![CDATA[
    .fil0 {fill:white}
   ]]>
  </style>
 </defs>
 <g id="Camada_x0020_1">
  <metadata id="CorelCorpID_0Corel-Layer"/>
  <g id="_590828080">
   <polygon class="fil0" points="23,15 10,15 7,54 25,47 "/>
   <path class="fil0" d="M38 14c7,2 16,1 20,-6 -7,0 -16,-3 -24,-3 -6,0 -11,1 -14,6 6,0 12,0 19,2l0 0 -1 1z"/>
   <path class="fil0" d="M30 19c2,0 5,1 7,2 3,1 6,1 8,-1 -5,0 -11,-5 -16,0l0 0 1 -1z"/>
   <path class="fil0" d="M73 49l0 -8 -23 9 0 -9 -47 18 0 32 17 0 0 -11 39 0 0 11 33 0 0 -52 -20 8 0 1zm-43 21l-18 0 0 -5 18 0 0 5zm23 0l-18 0 0 -5 18 0 0 5zm23 0l-18 0 0 -5 18 0 0 5z"/>
  </g>
 </g>
</svg>
