<?xml version="1.0" encoding="UTF-8"?>
<!DOCTYPE svg PUBLIC "-//W3C//DTD SVG 1.1//EN" "http://www.w3.org/Graphics/SVG/1.1/DTD/svg11.dtd">
<!-- Creator: CorelDRAW X6 -->
<svg xmlns="http://www.w3.org/2000/svg" xml:space="preserve" width="2480px" height="3508px" version="1.1" style="shape-rendering:geometricPrecision; text-rendering:geometricPrecision; image-rendering:optimizeQuality; fill-rule:evenodd; clip-rule:evenodd"
viewBox="0 0 2480 3507"
 xmlns:xlink="http://www.w3.org/1999/xlink">
 <defs>
  <style type="text/css">
   <![CDATA[
    .fil0 {fill:#FEFEFE}
   ]]>
  </style>
 </defs>
 <g id="Camada_x0020_1">
  <metadata id="CorelCorpID_0Corel-Layer"/>
  <path class="fil0" d="M386 2729l0 321 -169 0 0 -1174c0,-46 38,-84 84,-84 47,0 84,38 84,84l0 694 1895 0 0 480 -169 0 0 -321 -1726 0zm259 -515c84,0 152,-68 152,-153 0,-84 -68,-152 -152,-152 -84,0 -152,68 -152,152 -1,84 68,153 152,153zm1639 230l-1 -210c-1,-67 -57,-112 -122,-120l-1196 -120c-3,0 -4,-1 -6,-1 -41,0 -75,34 -75,75l0 225 -314 0c-41,0 -75,34 -75,76 0,41 34,75 75,75l1713 0zm73 -1043l-1105 -549 -1 -1 -1 1 -1 -1 -1 1 -1105 549 92 186 1014 -504 1014 504 92 -186z"/>
 </g>
</svg>
