<?xml version="1.0" encoding="UTF-8"?>
<!DOCTYPE svg PUBLIC "-//W3C//DTD SVG 1.1//EN" "http://www.w3.org/Graphics/SVG/1.1/DTD/svg11.dtd">
<!-- Creator: CorelDRAW X6 -->
<svg xmlns="http://www.w3.org/2000/svg" xml:space="preserve" width="96px" height="96px" version="1.1" style="shape-rendering:geometricPrecision; text-rendering:geometricPrecision; image-rendering:optimizeQuality; fill-rule:evenodd; clip-rule:evenodd"
viewBox="0 0 9600000 9600000"
 xmlns:xlink="http://www.w3.org/1999/xlink">
 <defs>
  <style type="text/css">
   <![CDATA[
    .fil0 {fill:black}
   ]]>
  </style>
 </defs>
 <g id="Camada_x0020_1">
  <metadata id="CorelCorpID_0Corel-Layer"/>
  <g id="_373510632">
   <g id="ship-in-a-bottle.eps">
    <path class="fil0" d="M9195354 3962717l-732520 0c-313937,0 -627874,-209291 -732638,-523228 -209291,-523228 -732520,-941811 -1360394,-941811l-5232638 0c-418583,0 -837165,418583 -837165,837165l0 2930315c0,418583 418583,837165 837165,837165l5232638 0c627874,0 1151102,-418583 1360394,-941811 104764,-313937 418701,-523228 732638,-523228l732520 0c104646,0 104646,-104646 104646,-104646l0 -1360512c0,-104646 -104646,-104646 -104646,-104646l0 0 0 -104764zm-2825551 2825669l-5232638 0c-313937,0 -523228,-209291 -523228,-523228l0 0c104646,0 104646,0 209291,0 209291,0 314055,-104764 418583,-209409 0,-104646 104646,-104646 209409,-104646 104646,0 209291,0 209291,104646 104646,104646 313937,209409 418583,209409 209291,0 313937,-104764 418583,-209409 0,-104646 104646,-104646 209291,-104646 104646,0 209291,0 209291,104646 104646,104646 314055,209409 418583,209409 209409,0 314055,-104764 418583,-209409 0,-104646 104764,-104646 209409,-104646 104646,0 209291,0 209291,104646 104646,104646 313937,209409 418583,209409 209291,0 313937,-104764 418583,-209409 0,-104646 104646,-104646 209291,-104646 104646,0 209291,0 209291,104646 104764,104646 314055,209409 418701,209409 209291,0 313937,-104764 418583,-209409 0,-104646 104646,-104646 209291,-104646 104646,0 209291,0 209291,104646 104646,104646 313937,209409 418583,209409 0,0 0,0 0,0 -209291,313937 -523228,523228 -941811,523228l0 0 209291 0zm-3558189 -2721024l-209291 0 0 -418583 209291 0 0 418583zm-418583 314055l3139488 0 104646 313937 -3453425 0 0 -313937 313937 0 0 0 -104646 0zm1569803 -314055l-209409 0 0 -418583 209409 0 0 418583zm1151102 0l-209291 0 0 -418583 209291 0 0 418583zm1151220 941929l-418583 837165c-104764,-104646 -209409,-209291 -418701,-209291 -209291,0 -313819,104646 -418583,209291 0,104764 -104646,104764 -209291,104764 -104646,0 -209291,0 -209291,-104764 -104646,-104646 -313937,-209291 -418583,-209291 -209291,0 -313937,104646 -418583,209291 0,104764 -104646,104764 -209291,104764 -104646,0 -209409,0 -209409,-104764 -104646,-104646 -313937,-209291 -418583,-209291 -209291,0 -313937,104646 -418583,209291 0,104764 -104646,104764 -209291,104764 -104646,0 -209291,0 -209291,-104764 -104646,-104646 -209291,-209291 -313937,-209291l0 -627874 4604646 0 0 0 -104646 0zm1255748 941811c0,0 -104646,104646 -209291,104646 -104646,0 -209291,0 -209291,-104646 -104646,-104646 -313937,-209291 -418583,-209291 -209291,0 -313937,104646 -418583,209291 0,104646 -104646,104646 -209409,104646l523346 -1046457c0,0 0,-104646 0,-104646 0,0 -104646,-104646 -104646,-104646l-627992 0 -104646 -523228c0,-104646 -104646,-104646 -104646,-104646l-313937 0 0 -627992c0,-104646 -104646,-104646 -104646,-104646l-523228 0c-104646,0 -104646,104646 -104646,104646l0 627992 -313937 0 0 -627992c0,-104646 -104646,-104646 -104646,-104646l-523346 0c-104646,0 -104646,104646 -104646,104646l0 627992 -313937 0 0 -627992c0,-104646 -104646,-104646 -104646,-104646l-523228 0c-104646,0 -104646,104646 -104646,104646l0 627992 -313937 0c-104646,0 -104646,104646 -104646,104646l0 523228 -313937 0c-104646,0 -104646,104646 -104646,104646l0 837165c-104646,0 -209291,104646 -313937,209409 0,104646 -104646,104646 -209291,104646 -104764,0 -209409,0 -209409,-104646l0 -2511614c0,-313937 209409,-523346 523346,-523346l5232520 0c418583,0 837283,314055 1046457,732638 104764,418583 523346,732520 1046575,732520l104646 0 0 1046457 -104646 0c-418583,0 -732638,209409 -941811,523346l0 0 -314055 -118zm1569803 -523228l-209291 0 0 -1046457 209291 0 0 1046457z"/>
    <path class="fil0" d="M5741811 5218583c0,104646 -104646,209291 -209291,209291 -104646,0 -209291,-104646 -209291,-209291 0,-104646 104646,-209291 209291,-209291 104646,0 209291,104646 209291,209291z"/>
    <path class="fil0" d="M6474449 3020906c-104646,0 -104646,104646 -104646,104646 0,104646 104646,104646 104646,104646 209291,0 418583,209409 418583,418583 0,104764 104646,104764 104646,104764 104646,0 104646,-104764 104646,-104764 0,-418583 -313937,-732520 -732520,-732520l0 0 104646 104646z"/>
   </g>
   <polygon class="fil0" points="613937,6055748 1137165,5951102 1451220,5741811 2079094,6055748 2811614,5741811 3439606,6055748 3962835,5741811 4695354,6055748 5323228,5741811 6055866,6055748 6683740,5741811 7206969,6055748 7520906,6265157 6893031,6788386 823228,6893031 509291,6369803 "/>
   <rect class="fil0" x="1974414" y="4276773" width="3662795" height="523247"/>
   <rect class="fil0" x="2393046" y="3439554" width="523251" height="732562"/>
   <rect class="fil0" x="8672135" y="4067418" width="523251" height="1360466"/>
  </g>
 </g>
</svg>
