<?xml version="1.0" encoding="UTF-8"?>
<!DOCTYPE svg PUBLIC "-//W3C//DTD SVG 1.1//EN" "http://www.w3.org/Graphics/SVG/1.1/DTD/svg11.dtd">
<!-- Creator: CorelDRAW X6 -->
<svg xmlns="http://www.w3.org/2000/svg" xml:space="preserve" width="2480px" height="3508px" version="1.1" style="shape-rendering:geometricPrecision; text-rendering:geometricPrecision; image-rendering:optimizeQuality; fill-rule:evenodd; clip-rule:evenodd"
viewBox="0 0 2480 3507"
 xmlns:xlink="http://www.w3.org/1999/xlink">
 <defs>
  <style type="text/css">
   <![CDATA[
    .fil0 {fill:#FEFEFE}
   ]]>
  </style>
 </defs>
 <g id="Camada_x0020_1">
  <metadata id="CorelCorpID_0Corel-Layer"/>
  <g id="_398703872">
   <path class="fil0" d="M2055 1664c11,11 29,11 40,0l57 -57c11,-11 11,-29 0,-40l-632 -632c-11,-11 -29,-11 -41,0l-57 57c-11,11 -11,29 0,41l632 632z"/>
   <path class="fil0" d="M2299 1419l-632 -632c-11,-11 -29,-11 -41,0l-57 57c-11,11 -11,29 0,41l632 632c11,11 29,11 40,0l57 -57c11,-11 11,-29 0,-41z"/>
   <path class="fil0" d="M604 2722c21,21 55,21 76,0l240 -240c21,-21 21,-55 0,-76l-45 -45 476 -476c-19,-30 -41,-58 -66,-83 -25,-25 -53,-47 -83,-66l-476 476 -45 -45c-21,-21 -55,-21 -76,0l-240 240c-21,21 -21,55 0,76l240 240zm-60 -376c54,-54 142,-54 197,0 54,54 54,142 0,197 -54,54 -142,54 -197,0 -54,-54 -54,-142 0,-197z"/>
   <path class="fil0" d="M826 1628c1,0 3,0 4,-1 40,-10 82,-15 123,-15 100,0 200,29 286,86 29,19 56,41 82,67 25,25 48,53 67,82 81,122 104,271 71,409 -3,12 7,21 16,21 4,0 8,-2 12,-5l511 -511c12,-12 12,-31 0,-42l-630 -630c-6,-6 -14,-9 -21,-9 -8,0 -15,3 -21,9l-511 511c-11,11 -2,29 12,29zm646 -129c31,-31 81,-31 111,0 31,31 31,81 0,111 -31,31 -81,31 -111,0 -31,-31 -31,-81 0,-111z"/>
  </g>
 </g>
</svg>
