<?xml version="1.0" encoding="UTF-8"?>
<!DOCTYPE svg PUBLIC "-//W3C//DTD SVG 1.1//EN" "http://www.w3.org/Graphics/SVG/1.1/DTD/svg11.dtd">
<!-- Creator: CorelDRAW X6 -->
<svg xmlns="http://www.w3.org/2000/svg" xml:space="preserve" width="2480px" height="3508px" version="1.1" style="shape-rendering:geometricPrecision; text-rendering:geometricPrecision; image-rendering:optimizeQuality; fill-rule:evenodd; clip-rule:evenodd"
viewBox="0 0 2480 3507"
 xmlns:xlink="http://www.w3.org/1999/xlink">
 <defs>
  <style type="text/css">
   <![CDATA[
    .fil0 {fill:#FEFEFE}
   ]]>
  </style>
 </defs>
 <g id="Camada_x0020_1">
  <metadata id="CorelCorpID_0Corel-Layer"/>
  <g id="_441991232">
   <path class="fil0" d="M984 1070c0,10 -1,20 -4,29 -5,17 -12,33 -20,48 67,35 113,106 113,187 0,43 -13,83 -35,117l7 110c66,-53 109,-135 109,-227 0,-117 -69,-218 -169,-264z"/>
   <path class="fil0" d="M419 1147c-8,-15 -15,-31 -20,-48 -3,-10 -5,-19 -4,-29 -99,47 -169,148 -169,264 0,92 42,173 109,227l7 -110c-22,-33 -35,-74 -35,-117 0,-81 46,-152 113,-187z"/>
   <path class="fil0" d="M961 1232c0,-7 -5,-14 -12,-16 -2,-1 -4,-1 -6,-1 -5,0 -10,2 -14,6 -59,66 -145,107 -240,107 -95,0 -181,-41 -240,-107 -4,-4 -9,-6 -14,-6 -2,0 -4,0 -6,1 -7,2 -12,9 -12,16l-23 381c-1,23 7,46 23,63 16,17 39,27 62,27l420 0c23,0 46,-10 62,-27 16,-17 24,-40 23,-63l-23 -381z"/>
   <path class="fil0" d="M462 1054c-5,7 -7,17 -4,26 32,97 123,168 231,168 108,0 199,-71 231,-168 3,-9 1,-18 -4,-26 -5,-7 -14,-12 -23,-12l-407 0c-9,0 -18,5 -23,12z"/>
   <path class="fil0" d="M859 864c0,-13 -10,-23 -23,-23l-292 0c-13,0 -23,10 -23,23l0 115c0,13 10,23 23,23l292 0c13,0 23,-10 23,-23l0 -115z"/>
   <path class="fil0" d="M432 1002l11 0c13,0 23,-10 23,-22l0 -115c0,-13 -10,-23 -23,-23l-11 0c-44,0 -81,37 -81,81l0 0c0,44 36,80 81,80z"/>
   <path class="fil0" d="M935 1002l11 0c44,0 81,-35 81,-80l0 0c0,-44 -36,-81 -81,-81l-11 0c-13,0 -23,11 -23,23l0 115c0,13 10,22 23,22z"/>
  </g>
  <path class="fil0" d="M2025 2057l-47 -409c-1,-13 -12,-22 -25,-22l-781 0c-13,0 -23,9 -25,22l-47 409c-5,43 9,86 37,118 29,32 70,51 113,51l624 0c43,0 84,-19 113,-51 29,-32 42,-75 37,-118zm-204 -335l-48 0c-2,20 -9,52 -25,84 -25,49 -77,108 -187,108 -110,0 -163,-59 -187,-108 -16,-32 -22,-64 -25,-84l-41 0c-14,0 -25,-11 -25,-25 0,-14 11,-25 25,-25l127 0c14,0 25,11 25,25 0,14 -11,25 -25,25l-35 0c6,45 35,142 162,142 68,0 116,-27 143,-81 11,-23 17,-46 19,-62l-28 0c-14,0 -25,-11 -25,-25 0,-14 11,-25 25,-25l127 0c14,0 25,11 25,25 0,14 -11,25 -25,25z"/>
 </g>
</svg>
