<?xml version="1.0" encoding="UTF-8"?>
<!DOCTYPE svg PUBLIC "-//W3C//DTD SVG 1.1//EN" "http://www.w3.org/Graphics/SVG/1.1/DTD/svg11.dtd">
<!-- Creator: CorelDRAW X6 -->
<svg xmlns="http://www.w3.org/2000/svg" xml:space="preserve" width="2480px" height="3508px" version="1.1" style="shape-rendering:geometricPrecision; text-rendering:geometricPrecision; image-rendering:optimizeQuality; fill-rule:evenodd; clip-rule:evenodd"
viewBox="0 0 2480 3507"
 xmlns:xlink="http://www.w3.org/1999/xlink">
 <defs>
  <style type="text/css">
   <![CDATA[
    .fil0 {fill:#FEFEFE}
   ]]>
  </style>
 </defs>
 <g id="Camada_x0020_1">
  <metadata id="CorelCorpID_0Corel-Layer"/>
  <path class="fil0" d="M1272 1225l-223 -53c0,0 -62,109 -211,109 -149,0 -211,-109 -211,-109l-223 53 -324 291 162 251 163 -76 0 887 867 0 0 -887 163 76 162 -251 -324 -291z"/>
  <path class="fil0" d="M2353 2467c-14,-13 -33,-21 -58,-26 -84,-16 -149,-37 -202,-59l-53 94c-5,9 -14,14 -23,14 -4,0 -9,-1 -13,-3 -13,-7 -17,-24 -10,-36l51 -91c-14,-7 -27,-15 -39,-22l-77 86c-5,6 -13,9 -20,9 -6,0 -13,-2 -18,-7 -11,-10 -12,-27 -2,-38l72 -80c-9,-7 -18,-13 -25,-19 -23,-17 -41,-31 -60,-38 -75,-114 -103,-114 -114,-114 -1,0 -1,0 -2,0 -29,2 -47,34 -66,124 -3,16 -7,32 -9,47 -7,0 -15,1 -23,1 -122,0 -153,-78 -154,-81 -3,-9 -11,-16 -20,-17 -9,-2 -19,2 -25,9 -2,3 -59,71 -72,185 25,-2 69,-2 117,11 68,19 158,70 204,203 21,-3 44,-5 69,-5 57,0 124,7 189,13 67,7 136,13 196,13 14,0 26,0 38,-1 29,-2 56,-9 81,-20 -21,29 -53,46 -93,46l-737 0 3 -27c22,3 43,4 64,4 49,0 90,-7 129,-14 2,0 4,-1 6,-1 -31,-84 -87,-138 -165,-160 -46,-13 -88,-11 -106,-9 0,2 0,4 0,7l0 2c0,76 15,130 20,146l-7 77c-1,7 2,15 7,20 5,6 12,9 20,9l766 0c49,0 92,-18 123,-52 27,-29 43,-68 48,-114 6,-11 9,-21 10,-33 1,-19 -6,-38 -21,-51zm-536 -209c0,0 0,0 0,0 -2,3 -20,28 -77,40 9,-48 19,-85 27,-103 11,11 29,33 50,63z"/>
 </g>
</svg>
