<?xml version="1.0" encoding="UTF-8"?>
<!DOCTYPE svg PUBLIC "-//W3C//DTD SVG 1.1//EN" "http://www.w3.org/Graphics/SVG/1.1/DTD/svg11.dtd">
<!-- Creator: CorelDRAW X6 -->
<svg xmlns="http://www.w3.org/2000/svg" xml:space="preserve" width="96px" height="96px" version="1.1" style="shape-rendering:geometricPrecision; text-rendering:geometricPrecision; image-rendering:optimizeQuality; fill-rule:evenodd; clip-rule:evenodd"
viewBox="0 0 9600000 9600000"
 xmlns:xlink="http://www.w3.org/1999/xlink">
 <defs>
  <style type="text/css">
   <![CDATA[
    .fil0 {fill:white}
   ]]>
  </style>
 </defs>
 <g id="Camada_x0020_1">
  <metadata id="CorelCorpID_0Corel-Layer"/>
  <g id="baby-with-diaper.eps">
   <path class="fil0" d="M6144213 5964803c0,0 864094,864094 864094,864094 288071,288071 192047,768189 -96024,1056260l-1152165 1248189c-480000,480000 -1056142,-192047 -672047,-576142l768071 -768071 -768071 -768189 960118 -960118 96024 -96024zm-2688425 0l0 0c0,0 -864094,864094 -864094,864094 -288071,288071 -192047,768189 96024,1056260l1152165 1248189c480000,480000 1056142,-192047 672047,-576142l-768071 -768071 768071 -768189 -960118 -960118 0 0 -96024 -96024zm1344213 -3168543c672047,0 1248189,-576024 1248189,-1248189 0,-672047 -576142,-1248189 -1248189,-1248189 -672165,0 -1248189,576142 -1248189,1248189 0,672165 576024,1248189 1248189,1248189zm1344213 2688425l0 -864094 1056142 960118c96024,96024 192047,96024 288071,96024 96024,0 192047,0 288071,-96024 192047,-192047 192047,-480000 0,-576024 0,0 -1152165,-1248189 -1344213,-1440236 -288071,-288071 -768189,-480000 -1536260,-480000l-192047 0c-768071,0 -1248189,191929 -1536260,480000 -192047,192047 -1344213,1440236 -1344213,1440236 -192047,192047 -192047,480000 0,576024 96024,96024 192047,96024 288071,96024 96024,0 192047,0 288071,-96024l1056142 -960118 0 864213 2688425 0 0 0 0 -118z"/>
  </g>
 </g>
</svg>
