<?xml version="1.0" encoding="UTF-8"?>
<!DOCTYPE svg PUBLIC "-//W3C//DTD SVG 1.0//EN" "http://www.w3.org/TR/2001/REC-SVG-20010904/DTD/svg10.dtd">
<!-- Creator: CorelDRAW X6 -->
<svg xmlns="http://www.w3.org/2000/svg" xml:space="preserve" width="96px" height="96px" version="1.0" style="shape-rendering:geometricPrecision; text-rendering:geometricPrecision; image-rendering:optimizeQuality; fill-rule:evenodd; clip-rule:evenodd"
viewBox="0 0 96 96"
 xmlns:xlink="http://www.w3.org/1999/xlink">
 <defs>
  <style type="text/css">
   <![CDATA[
    .fil0 {fill:white}
   ]]>
  </style>
 </defs>
 <g id="Camada_x0020_1">
  <metadata id="CorelCorpID_0Corel-Layer"/>
  <g id="_397360096">
   <path class="fil0" d="M12 28l-3 -15c0,-1 0,-2 1,-2 1,0 2,0 2,1l3 16 15 0 0 -25 -19 0c-3,0 -5,2 -5,5l0 20 5 0 0 0 1 0z"/>
   <path class="fil0" d="M14 41c1,0 2,0 2,1l4 17 10 0 0 -28 -24 0 0 28 4 0 -3 -15c0,-1 0,-2 1,-2 1,0 2,0 2,1l3 15c0,0 0,0 0,0l3 0 -4 -16c0,-1 0,-2 1,-2l0 0 1 1z"/>
   <path class="fil0" d="M34 93l26 0 0 -90 -26 0 0 90zm16 -47l2 0c1,0 2,1 2,2 0,1 -1,2 -2,2l-2 0c-1,0 -2,-1 -2,-2 0,-1 1,-2 2,-2z"/>
   <path class="fil0" d="M30 63l-24 0 0 23c0,3 2,5 5,5l19 0 0 -30 0 0 0 1z"/>
   <path class="fil0" d="M85 3l-21 0 0 90 21 0c3,0 5,-2 5,-5l0 -79c0,-3 -2,-5 -5,-5l0 0 0 0zm-11 47l-2 0c-1,0 -2,-1 -2,-2 0,-1 1,-2 2,-2l2 0c1,0 2,1 2,2 0,1 -1,2 -2,2z"/>
  </g>
 </g>
</svg>
