<?xml version="1.0" encoding="UTF-8"?>
<!DOCTYPE svg PUBLIC "-//W3C//DTD SVG 1.1//EN" "http://www.w3.org/Graphics/SVG/1.1/DTD/svg11.dtd">
<!-- Creator: CorelDRAW X6 -->
<svg xmlns="http://www.w3.org/2000/svg" xml:space="preserve" width="2480px" height="3508px" version="1.1" style="shape-rendering:geometricPrecision; text-rendering:geometricPrecision; image-rendering:optimizeQuality; fill-rule:evenodd; clip-rule:evenodd"
viewBox="0 0 2480 3507"
 xmlns:xlink="http://www.w3.org/1999/xlink">
 <defs>
  <style type="text/css">
   <![CDATA[
    .fil0 {fill:#FEFEFE}
   ]]>
  </style>
 </defs>
 <g id="Camada_x0020_1">
  <metadata id="CorelCorpID_0Corel-Layer"/>
  <g id="_399035824">
   <path class="fil0" d="M1856 664l-1119 0c-43,0 -77,34 -77,77l0 497 1273 0 0 -497c0,-43 -34,-77 -77,-77zm-957 401c0,26 -21,46 -46,46 -26,0 -46,-21 -46,-46l0 -227c0,-26 21,-46 46,-46 26,0 46,21 46,46l0 227z"/>
   <path class="fil0" d="M660 2703c0,43 34,77 77,77l98 0 0 28c0,41 33,74 74,74 41,0 74,-33 74,-74l0 -28 629 0 0 28c0,41 33,74 74,74 41,0 74,-33 74,-74l0 -28 98 0c42,0 77,-34 77,-77l0 -1312 -1273 0 0 1312zm147 -1087c0,-26 21,-46 46,-46 26,0 46,21 46,46l0 227c0,26 -21,46 -46,46 -26,0 -46,-21 -46,-46l0 -227z"/>
  </g>
 </g>
</svg>
