<?xml version="1.0" encoding="UTF-8"?>
<!DOCTYPE svg PUBLIC "-//W3C//DTD SVG 1.0//EN" "http://www.w3.org/TR/2001/REC-SVG-20010904/DTD/svg10.dtd">
<!-- Creator: CorelDRAW X6 -->
<svg xmlns="http://www.w3.org/2000/svg" xml:space="preserve" width="96px" height="96px" version="1.0" style="shape-rendering:geometricPrecision; text-rendering:geometricPrecision; image-rendering:optimizeQuality; fill-rule:evenodd; clip-rule:evenodd"
viewBox="0 0 96 96"
 xmlns:xlink="http://www.w3.org/1999/xlink">
 <defs>
  <style type="text/css">
   <![CDATA[
    .fil0 {fill:white}
   ]]>
  </style>
 </defs>
 <g id="Camada_x0020_1">
  <metadata id="CorelCorpID_0Corel-Layer"/>
  <g id="_420835408">
   <path class="fil0" d="M24 19l3 -12 -7 -3 -15 5 -2 7 11 8c-9,5 -13,16 -10,27 4,12 17,19 29,14 12,-4 19,-17 14,-29 -3,-11 -14,-16 -24,-15l0 0 0 0 0 -1zm8 37c-8,3 -16,-1 -20,-10 -3,-8 1,-16 10,-20 8,-3 16,1 20,10 3,8 -1,16 -10,20l0 0z"/>
   <g id="_397364296">
    <path class="fil0" d="M81 50l-10 3c0,0 0,0 0,0 0,0 0,0 -1,0 0,0 -1,0 -1,0 0,0 0,0 0,0l-4 -4c0,-1 -1,-1 -2,0 -1,0 -1,1 0,2l4 5c0,0 0,0 0,0 0,0 1,1 1,1 1,0 2,0 3,-1 0,0 0,0 0,0l10 -3c0,0 1,-1 1,-1 0,0 -1,-1 -1,-1l0 0 0 0 0 -1z"/>
    <path class="fil0" d="M89 57c-1,0 -1,0 -1,0 1,-8 -2,-16 -10,-20 -9,-4 -20,0 -24,9 -4,9 0,20 9,24 9,3 17,1 23,-7 0,0 1,0 1,0 1,0 2,-1 3,-2 1,-2 1,-3 0,-4l0 0 0 0 -1 0zm-25 10c-8,-3 -11,-12 -8,-20 3,-8 12,-11 20,-8 8,3 11,12 8,20 -3,8 -12,11 -20,8z"/>
    <path class="fil0" d="M79 34c2,1 4,3 7,4 0,0 0,0 0,0l8 -17c0,0 0,0 -1,-1l-13 -7c-1,0 -1,0 -1,0l-8 17c0,0 0,0 0,0 2,0 5,1 8,2l0 0 0 0 1 1z"/>
    <path class="fil0" d="M61 71c-2,-1 -4,-3 -7,-4 0,0 0,0 0,0l-8 17c0,0 0,0 1,1l13 7c1,0 1,0 1,0l8 -17c0,0 0,0 0,0 -2,0 -5,-1 -8,-2l0 0 -1 -1z"/>
   </g>
  </g>
 </g>
</svg>
