<?xml version="1.0" encoding="UTF-8"?>
<!DOCTYPE svg PUBLIC "-//W3C//DTD SVG 1.0//EN" "http://www.w3.org/TR/2001/REC-SVG-20010904/DTD/svg10.dtd">
<!-- Creator: CorelDRAW X6 -->
<svg xmlns="http://www.w3.org/2000/svg" xml:space="preserve" width="96px" height="96px" version="1.0" style="shape-rendering:geometricPrecision; text-rendering:geometricPrecision; image-rendering:optimizeQuality; fill-rule:evenodd; clip-rule:evenodd"
viewBox="0 0 96 96"
 xmlns:xlink="http://www.w3.org/1999/xlink">
 <defs>
  <style type="text/css">
   <![CDATA[
    .fil0 {fill:white}
   ]]>
  </style>
 </defs>
 <g id="Camada_x0020_1">
  <metadata id="CorelCorpID_0Corel-Layer"/>
  <g id="_593114120">
   <path class="fil0" d="M82 42c0,0 1,0 2,0l3 -3c0,0 0,-1 0,-2l-29 -29c0,0 -1,0 -2,0l-3 3c0,0 0,1 0,2l29 29 0 0 0 0z"/>
   <path class="fil0" d="M93 32l-29 -29c0,0 -1,0 -2,0l-3 3c0,0 0,1 0,2l29 29c0,0 1,0 2,0l3 -3c0,0 0,-1 0,-2l0 0 0 0z"/>
   <path class="fil0" d="M15 92c1,1 2,1 3,0l11 -11c1,-1 1,-2 0,-3l-2 -2 22 -22c-1,-1 -2,-3 -3,-4 -1,-1 -2,-2 -4,-3l-22 22 -2 -2c-1,-1 -2,-1 -3,0l-11 11c-1,1 -1,2 0,3l11 11 0 0 0 0zm-3 -18c2,-2 6,-2 9,0 2,2 2,6 0,9 -2,2 -6,2 -9,0 -2,-2 -2,-6 0,-9l0 0z"/>
   <path class="fil0" d="M25 41c0,0 0,0 0,0 2,0 4,-1 5,-1 4,0 9,1 13,4 1,1 2,2 4,3 1,1 2,2 3,4 4,5 5,12 3,19 0,1 0,1 1,1 0,0 0,0 1,0l24 -24c1,-1 1,-1 0,-2l-29 -29c0,0 -1,0 -1,0 0,0 -1,0 -1,0l-24 24c0,0 0,1 1,1l0 0 -1 0zm30 -6c1,-1 4,-1 5,0 1,1 1,4 0,5 -1,1 -4,1 -5,0 -1,-1 -1,-4 0,-5z"/>
  </g>
 </g>
</svg>
