<?xml version="1.0" encoding="UTF-8"?>
<!DOCTYPE svg PUBLIC "-//W3C//DTD SVG 1.0//EN" "http://www.w3.org/TR/2001/REC-SVG-20010904/DTD/svg10.dtd">
<!-- Creator: CorelDRAW X6 -->
<svg xmlns="http://www.w3.org/2000/svg" xml:space="preserve" width="96px" height="96px" version="1.0" style="shape-rendering:geometricPrecision; text-rendering:geometricPrecision; image-rendering:optimizeQuality; fill-rule:evenodd; clip-rule:evenodd"
viewBox="0 0 96 96"
 xmlns:xlink="http://www.w3.org/1999/xlink">
 <defs>
  <style type="text/css">
   <![CDATA[
    .fil0 {fill:white}
   ]]>
  </style>
 </defs>
 <g id="Camada_x0020_1">
  <metadata id="CorelCorpID_0Corel-Layer"/>
  <path class="fil0" d="M70 81c-3,-3 -7,-4 -13,-3 -3,0 -4,0 -4,0 -1,-1 0,-3 0,-4l0 -1c0,-1 0,-9 -5,-14 -2,-2 -6,-4 -11,-3 -1,0 -3,0 -4,-1l0 0c-1,-1 -1,-3 -1,-4 1,-2 1,-6 -1,-10 -2,-4 -6,-5 -13,-4 -1,1 -1,0 -1,0 -2,-14 7,-27 7,-27l26 26 6 -3 9 9 7 -4 8 8 -7 4 10 10 -6 3 11 11c0,0 -8,4 -16,6l0 0 0 0 0 1zm-32 -45l-3 -3 -3 3 3 3 3 -3zm5 5l-3 -3 -3 3 3 3 3 -3zm5 5l-3 -3 -3 3 3 3 3 -3zm5 5l-3 -3 -3 3 3 3 3 -3zm5 5l-3 -3 -3 3 3 3 3 -3zm5 5l-3 -3 -3 3 3 3 3 -3zm5 5l-3 -3 -3 3 3 3 3 -3zm-56 -34l-4 -1c0,0 -1,6 1,9 2,2 5,4 10,3 2,-1 5,-1 6,1 1,1 0,4 0,4l0 0 0 0c0,0 -1,6 4,11 2,2 6,3 9,2 2,-1 4,0 6,1 2,2 2,6 3,7 0,1 -1,7 2,11 0,0 0,0 0,0 2,2 6,3 11,2 2,-1 5,-1 6,1 1,1 1,5 0,6l4 1c1,-1 2,-6 -1,-10 -2,-2 -6,-3 -11,-2 -2,1 -5,1 -7,-1 -1,-1 -1,-6 -1,-6l0 0c0,0 0,-7 -4,-11 -2,-2 -6,-3 -9,-2 -3,0 -4,0 -6,-1 -2,-2 -2,-6 -2,-6 0,-1 1,-5 -1,-8 -2,-2 -5,-4 -10,-3 -2,1 -5,1 -6,-1 -1,-1 -1,-4 -1,-5l0 0 0 0 1 1z"/>
 </g>
</svg>
