<?xml version="1.0" encoding="UTF-8"?>
<!DOCTYPE svg PUBLIC "-//W3C//DTD SVG 1.0//EN" "http://www.w3.org/TR/2001/REC-SVG-20010904/DTD/svg10.dtd">
<!-- Creator: CorelDRAW X6 -->
<svg xmlns="http://www.w3.org/2000/svg" xml:space="preserve" width="96px" height="96px" version="1.0" style="shape-rendering:geometricPrecision; text-rendering:geometricPrecision; image-rendering:optimizeQuality; fill-rule:evenodd; clip-rule:evenodd"
viewBox="0 0 96 96"
 xmlns:xlink="http://www.w3.org/1999/xlink">
 <defs>
  <style type="text/css">
   <![CDATA[
    .fil0 {fill:white}
   ]]>
  </style>
 </defs>
 <g id="Camada_x0020_1">
  <metadata id="CorelCorpID_0Corel-Layer"/>
  <g id="_597343248">
   <path class="fil0" d="M3 86l87 0 0 -22c-59,-5 -87,22 -87,22z"/>
   <path class="fil0" d="M70 49l0 -14c3,0 5,2 5,-4 0,-8 -6,-22 -6,-22 0,0 -6,14 -6,22 0,7 2,5 5,4l0 14c-4,0 -8,1 -10,2l0 -17 0 0c0,0 1,0 1,0 1,0 1,0 2,-1 1,-1 0,-2 0,-3l-4 -3c0,0 0,0 0,0l0 -3c0,-1 -1,-2 -2,-2 -1,0 -2,1 -2,2l0 1 -4 -3c-1,-1 -2,-1 -2,0l-11 8c-1,1 -1,2 0,3 1,1 2,1 3,0l0 0 0 10c-16,-8 -34,-6 -34,-6l0 9c0,0 23,-5 45,5 -3,-3 -6,-5 -8,-7l0 -14 8 -6 8 6 0 20c-19,4 -35,12 -42,17 17,-6 50,-16 79,-9l0 -9c-8,-1 -14,-1 -22,-1l0 0 -2 0z"/>
  </g>
 </g>
</svg>
