<?xml version="1.0" encoding="UTF-8"?>
<!DOCTYPE svg PUBLIC "-//W3C//DTD SVG 1.1//EN" "http://www.w3.org/Graphics/SVG/1.1/DTD/svg11.dtd">
<!-- Creator: CorelDRAW X6 -->
<svg xmlns="http://www.w3.org/2000/svg" xml:space="preserve" width="2480px" height="3508px" version="1.1" style="shape-rendering:geometricPrecision; text-rendering:geometricPrecision; image-rendering:optimizeQuality; fill-rule:evenodd; clip-rule:evenodd"
viewBox="0 0 2480 3507"
 xmlns:xlink="http://www.w3.org/1999/xlink">
 <defs>
  <style type="text/css">
   <![CDATA[
    .fil0 {fill:#FEFEFE}
   ]]>
  </style>
 </defs>
 <g id="Camada_x0020_1">
  <metadata id="CorelCorpID_0Corel-Layer"/>
  <g id="_439303784">
   <path class="fil0" d="M1600 1366l-1443 0c-28,0 -52,23 -52,52l0 1153c0,28 23,52 52,52l1443 0c28,0 52,-23 52,-52l0 -1153c0,-28 -23,-52 -52,-52zm-1444 85l71 71 0 945 -71 71 0 -1086zm121 1001l0 -915 1205 0 0 915 -1205 0zm1219 -965l-1234 0 -71 -71 1375 0 -71 71zm-1234 1015l1234 0 71 71 -1375 0 71 -71zm1269 -35l0 -945 71 -71 0 1086 -71 -71z"/>
   <path class="fil0" d="M1385 1607l-1013 0c-14,0 -25,11 -25,25l0 724c0,14 11,25 25,25l1013 0c14,0 25,-11 25,-25l0 -724c0,-14 -11,-25 -25,-25zm-25 50l0 553 -182 0 -330 -330c-10,-10 -26,-10 -35,0l-163 163 -43 -43c-5,-5 -11,-7 -18,-7 -7,0 -13,3 -18,7l-174 175 0 -518 963 0zm-963 674l0 -85 192 -192 127 127c10,10 26,10 35,0 10,-10 10,-26 0,-35l-67 -67 146 -146 320 320c5,5 11,7 18,7l192 0 0 71 -963 0z"/>
   <path class="fil0" d="M1120 1922c54,0 97,-44 97,-97 0,-54 -44,-97 -97,-97 -54,0 -97,44 -97,97 0,54 44,97 97,97zm0 -145c26,0 47,21 47,47 0,26 -21,47 -47,47 -26,0 -47,-21 -47,-47 0,-26 21,-47 47,-47z"/>
  </g>
  <rect class="fil0" x="143" y="2460" width="1485" height="133"/>
  <rect class="fil0" x="131" y="1438" width="117" height="1155"/>
  <rect class="fil0" x="1523" y="1417" width="128" height="1120"/>
  <rect class="fil0" x="191" y="1366" width="1411" height="127"/>
  <polygon class="fil0" points="1373,2243 1159,2229 833,1901 660,2074 588,2024 373,2243 373,2343 1373,2343 "/>
  <ellipse class="fil0" cx="1118" cy="1829" rx="70" ry="65"/>
  <g id="_439300520">
   <path class="fil0" d="M2129 1318c-37,27 -45,79 -18,116 27,37 79,45 116,18 37,-27 111,-127 85,-164 -27,-37 -145,3 -182,30z"/>
   <path class="fil0" d="M2281 1518l-212 0 0 -258c-14,4 -29,6 -44,6 -15,0 -30,-2 -44,-6l0 258 -213 0c-33,0 -60,27 -60,60 0,33 27,60 60,60l14 0 63 275c8,34 38,58 72,58l214 0c35,0 65,-24 72,-58l63 -275 14 0c33,0 60,-27 60,-60 0,-33 -27,-60 -60,-60z"/>
   <path class="fil0" d="M1920 1318c-37,-27 -155,-67 -182,-30 -27,37 47,137 85,164 37,27 89,19 116,-18 27,-37 19,-89 -18,-116z"/>
   <path class="fil0" d="M2166 894c0,78 -63,141 -141,141 -78,0 -141,-63 -141,-141 0,-78 63,-141 141,-141 78,0 141,63 141,141z"/>
   <path class="fil0" d="M1787 993c-22,39 -17,89 17,122 20,20 46,30 72,30 17,0 35,-4 50,-13 12,43 51,75 98,75 47,0 86,-32 98,-75 16,9 33,13 50,13 26,0 52,-10 72,-30 33,-33 39,-83 17,-122 43,-12 75,-51 75,-98 0,-47 -32,-86 -75,-98 22,-39 16,-89 -17,-122 -20,-20 -46,-30 -72,-30 -17,0 -35,4 -50,13 -12,-43 -51,-75 -98,-75 -47,0 -86,32 -98,75 -16,-9 -33,-13 -50,-13 -26,0 -52,10 -72,30 -33,33 -39,83 -17,122 -43,12 -75,51 -75,98 0,47 32,86 75,98zm237 -285c103,0 186,83 186,186 0,103 -83,186 -186,186 -103,0 -186,-83 -186,-186 0,-103 83,-186 186,-186z"/>
  </g>
 </g>
</svg>
