<?xml version="1.0" encoding="UTF-8"?>
<!DOCTYPE svg PUBLIC "-//W3C//DTD SVG 1.0//EN" "http://www.w3.org/TR/2001/REC-SVG-20010904/DTD/svg10.dtd">
<!-- Creator: CorelDRAW X6 -->
<svg xmlns="http://www.w3.org/2000/svg" xml:space="preserve" width="96px" height="96px" version="1.0" style="shape-rendering:geometricPrecision; text-rendering:geometricPrecision; image-rendering:optimizeQuality; fill-rule:evenodd; clip-rule:evenodd"
viewBox="0 0 96 96"
 xmlns:xlink="http://www.w3.org/1999/xlink">
 <defs>
  <style type="text/css">
   <![CDATA[
    .fil0 {fill:white}
   ]]>
  </style>
 </defs>
 <g id="Camada_x0020_1">
  <metadata id="CorelCorpID_0Corel-Layer"/>
  <g id="_418924528">
   <path class="fil0" d="M78 6l-25 25 12 12 25 -25c4,-4 4,-9 0,-12 -2,-2 -4,-3 -6,-3l0 0c-2,0 -5,1 -6,3l0 0 -1 0z"/>
   <path class="fil0" d="M61 47l-12 -12 -2 -2c-1,-1 -1,-2 -1,-4 1,-2 1,-5 1,-7 0,-3 -1,-6 -2,-8 -1,-2 -3,-5 -5,-6 -2,-2 -4,-3 -7,-4 -3,-1 -7,-2 -11,-1 -2,0 -3,3 -1,4l9 9c4,4 4,10 0,12 -2,2 -4,3 -7,3 -2,0 -5,-1 -7,-3l-9 -9c0,0 -1,-1 -2,-1 -1,0 -2,1 -2,2 0,1 0,2 0,3 0,11 9,20 19,21 1,0 1,0 2,0 2,0 4,0 5,-1 1,0 3,0 4,1l6 6 5 5 32 32c2,2 4,3 7,3 2,0 5,-1 7,-3 4,-4 4,-9 0,-12l-28 -28 0 0 -1 0z"/>
   <path class="fil0" d="M25 80l0 -2c0,-1 0,-2 1,-3l9 -9c0,0 1,0 1,0 2,2 5,2 7,0l3 -3 -12 -12 -3 3c-2,2 -2,5 0,7 0,0 0,1 0,1l-9 9c-1,1 -2,1 -3,1l-2 0c-1,0 -1,0 -2,1l-11 13c-1,1 -1,2 0,3l2 2 2 2c1,1 2,1 3,0l13 -11c1,-1 1,-1 1,-2l0 0 0 0z"/>
  </g>
 </g>
</svg>
