<?xml version="1.0" encoding="UTF-8"?>
<!DOCTYPE svg PUBLIC "-//W3C//DTD SVG 1.1//EN" "http://www.w3.org/Graphics/SVG/1.1/DTD/svg11.dtd">
<!-- Creator: CorelDRAW X6 -->
<svg xmlns="http://www.w3.org/2000/svg" xml:space="preserve" width="2480px" height="3508px" version="1.1" style="shape-rendering:geometricPrecision; text-rendering:geometricPrecision; image-rendering:optimizeQuality; fill-rule:evenodd; clip-rule:evenodd"
viewBox="0 0 2480 3507"
 xmlns:xlink="http://www.w3.org/1999/xlink">
 <defs>
  <style type="text/css">
   <![CDATA[
    .fil0 {fill:#FEFEFE}
   ]]>
  </style>
 </defs>
 <g id="Camada_x0020_1">
  <metadata id="CorelCorpID_0Corel-Layer"/>
  <g id="_656684528">
   <polygon class="fil0" points="1147,1350 959,1350 959,1566 743,1566 743,1753 959,1753 959,1969 1147,1969 1147,1753 1362,1753 1362,1566 1147,1566 "/>
   <path class="fil0" d="M649 1472l216 0 0 -216 375 0 0 216 109 0c39,-63 62,-133 62,-211 0,-217 -176,-392 -392,-392 -132,0 -248,65 -319,164 -71,-100 -188,-164 -319,-164 -217,0 -392,176 -392,392 0,94 33,181 89,248l623 754 166 -201 0 -215 -216 0 0 -375z"/>
  </g>
 </g>
 <g id="Camada_x0020_1_0">
  <metadata id="CorelCorpID_1Corel-Layer"/>
  <path class="fil0" d="M1575 3088l0 -419c0,-23 -15,-41 -35,-41l-2 0 0 -359 -36 0c0,-59 1,-109 1,-149 1,-145 2,-179 -16,-197 -6,-6 -14,-9 -22,-9 -11,0 -23,6 -37,13 -13,6 -28,15 -48,20 -127,40 -142,147 -143,151l0 171 -34 0 0 359 -2 0c-19,0 -35,19 -35,41l0 419c0,23 15,41 35,41l338 0c19,0 35,-19 35,-41l0 0zm-77 -460l-252 0 0 -313 252 3 0 311 0 -1z"/>
  <g id="_397885664">
   <path class="fil0" d="M1998 1635c2,-5 -7,-5 -15,-2 5,-11 10,-22 15,-32 1,-2 -2,-4 -5,-4 1,-2 2,-2 2,-4 3,-5 -2,-6 -7,-6 0,-5 -5,-6 -10,-6 1,-2 1,-5 2,-6 2,-3 3,-7 5,-10 1,-1 -1,-2 -2,-2 0,-2 1,-2 1,-4 0,-3 -3,-4 -7,-4 4,-14 7,-28 11,-43 2,-7 -20,-4 -23,3 -1,2 -1,5 -2,6 -3,-1 -8,-1 -12,1 1,-5 2,-11 3,-15 2,-7 -9,-8 -16,-6 0,-1 0,-2 0,-2 0,-6 -7,-7 -13,-6 2,-6 2,-12 3,-18 1,-3 -5,-4 -10,-3 0,-2 1,-3 1,-6 0,-1 0,-2 -1,-2 1,-6 2,-11 2,-18 1,-10 -22,-6 -23,2 0,0 0,0 0,0 -6,1 -14,3 -15,6 -3,-2 -8,-1 -12,1 1,-4 1,-9 2,-13 1,-7 -13,-7 -19,-2 -2,1 -4,2 -5,3 -4,-1 -10,0 -12,3 -1,0 -2,0 -4,0 0,-11 -23,-8 -23,2 0,2 0,2 0,4 -2,1 -4,1 -6,2 0,0 0,0 0,0 -1,-3 -4,-5 -7,-5 -1,-8 -2,-16 -2,-24 -1,-6 -24,-2 -23,6 1,5 1,10 2,15 -2,1 -3,2 -4,2 -2,-9 -24,-3 -23,6 -3,0 -7,1 -10,2 0,-1 0,-2 0,-2 -1,-11 -24,-5 -23,6 0,2 1,4 1,6 -2,0 -4,1 -6,2 -6,-5 -20,-2 -20,6 0,6 1,13 2,19 -4,2 -7,3 -7,6 0,-2 -1,-2 -1,-4 -1,-6 -11,-5 -18,-1 -2,1 -5,2 -6,3 -6,-2 -23,4 -20,8 6,9 11,18 16,27 -5,0 -11,2 -13,6 -2,0 -5,1 -7,2 -7,-2 -19,3 -17,11 2,5 3,10 5,14 -6,2 -15,5 -15,7 3,10 7,19 11,30 -6,-1 -15,3 -15,9l0 2 0 1c24,88 77,162 118,243l9 -3c2,-1 36,-15 88,-15 30,0 61,5 90,14l9 2c14,-34 27,-67 41,-101 15,-36 24,-75 43,-109 2,-4 1,-6 -2,-7 1,-1 1,-2 2,-3l0 2z"/>
   <path class="fil0" d="M1899 2248c1,-210 0,-378 0,-378 -93,-29 -163,0 -163,0 -2,67 1,214 5,385 34,-6 93,-13 157,-6l1 0z"/>
   <path class="fil0" d="M1742 2282c9,337 24,747 26,787 2,53 58,52 58,52 0,0 55,2 60,-55 9,-106 12,-487 13,-790 -64,-6 -125,1 -157,6l-1 0z"/>
   <path class="fil0" d="M2284 1679l-65 2 4 181 -1 0c-41,371 12,1040 26,1197l1 44c1,18 15,32 32,32l1 0c18,-1 32,-15 32,-33l0 -8 0 0c58,-821 -16,-1186 -26,-1227l-4 -187 0 0z"/>
   <path class="fil0" d="M2282 1656c18,-58 40,-139 -11,-139 -50,0 -78,37 -77,69 1,28 25,69 25,69l64 0 -1 1z"/>
  </g>
 </g>
</svg>
