<?xml version="1.0" encoding="UTF-8"?>
<!DOCTYPE svg PUBLIC "-//W3C//DTD SVG 1.1//EN" "http://www.w3.org/Graphics/SVG/1.1/DTD/svg11.dtd">
<!-- Creator: CorelDRAW X6 -->
<svg xmlns="http://www.w3.org/2000/svg" xml:space="preserve" width="96px" height="96px" version="1.1" style="shape-rendering:geometricPrecision; text-rendering:geometricPrecision; image-rendering:optimizeQuality; fill-rule:evenodd; clip-rule:evenodd"
viewBox="0 0 9600000 9600000"
 xmlns:xlink="http://www.w3.org/1999/xlink">
 <defs>
  <style type="text/css">
   <![CDATA[
    .fil0 {fill:white}
   ]]>
  </style>
 </defs>
 <g id="Camada_x0020_1">
  <metadata id="CorelCorpID_0Corel-Layer"/>
  <g id="crib.eps">
   <path class="fil0" d="M788740 6877087c-244370,-122244 -488740,0 -488740,122244 0,0 0,122126 0,244370l0 0c0,122126 122126,244370 244370,366614 977480,610866 2565945,855236 4276535,855236 1710709,0 3299055,-366496 4276535,-855236 244370,-122244 244370,-366614 122244,-488740 -122244,-244488 -366614,-244488 -610984,-122244l0 -5498386c0,-244370 -122126,-366614 -366496,-366614 -244370,0 -366496,122244 -366496,366614l0 488740 -6109488 0 0 -488740c0,-244370 -122126,-366496 -366496,-366496 -244370,0 -366496,122126 -366496,366614l0 5498386 0 0 -244488 -122362zm6964724 -977480l-977598 0 0 -3176929 977598 0 0 3176929zm-2688189 0l0 -3176929 977598 0 0 3176929 -977598 0zm-1710591 0l0 -3176929 977480 0 0 3176929 -977480 0zm-733110 -3176929l0 3176929 -977598 0 0 -3176929 977598 0zm-977598 4521024l0 -610984 6109488 0 0 610984c-855354,244370 -1955079,366614 -3054685,366614 -1221969,0 -2199449,-122244 -3054803,-488740l0 122126z"/>
  </g>
 </g>
</svg>
