<?xml version="1.0" encoding="UTF-8"?>
<!DOCTYPE svg PUBLIC "-//W3C//DTD SVG 1.1//EN" "http://www.w3.org/Graphics/SVG/1.1/DTD/svg11.dtd">
<!-- Creator: CorelDRAW X6 -->
<svg xmlns="http://www.w3.org/2000/svg" xml:space="preserve" width="2480px" height="3508px" version="1.1" style="shape-rendering:geometricPrecision; text-rendering:geometricPrecision; image-rendering:optimizeQuality; fill-rule:evenodd; clip-rule:evenodd"
viewBox="0 0 2480 3507"
 xmlns:xlink="http://www.w3.org/1999/xlink">
 <defs>
  <style type="text/css">
   <![CDATA[
    .fil0 {fill:#FEFEFE}
   ]]>
  </style>
 </defs>
 <g id="Camada_x0020_1">
  <metadata id="CorelCorpID_0Corel-Layer"/>
  <g id="_597431496">
   <path class="fil0" d="M768 1002l-381 0c-70,0 -127,57 -127,127l0 1397c0,70 57,127 127,127l381 0c70,0 127,-57 127,-127l0 -1397c0,-70 -57,-127 -127,-127zm-317 1270c-35,0 -63,-28 -63,-63 0,-35 28,-63 63,-63 35,0 63,28 63,63 0,35 -28,63 -63,63zm317 -762l-381 0 0 -127 381 0 0 127zm0 -254l-381 0 0 -127 381 0 0 127z"/>
   <path class="fil0" d="M1593 2399l0 -127 -381 0 0 127c-70,0 -127,57 -127,127l635 0c0,-70 -57,-127 -127,-127z"/>
   <path class="fil0" d="M2164 748l-1524 0c-70,0 -127,57 -127,127l1651 0 0 1016 -1143 0 0 254 1143 0c70,0 127,-57 127,-127l0 -1143c0,-70 -57,-127 -127,-127zm-762 1333c-35,0 -63,-28 -63,-63 0,-35 28,-63 63,-63 35,0 63,28 63,63 0,35 -28,63 -63,63z"/>
  </g>
 </g>
</svg>
