<?xml version="1.0" encoding="UTF-8"?>
<!DOCTYPE svg PUBLIC "-//W3C//DTD SVG 1.1//EN" "http://www.w3.org/Graphics/SVG/1.1/DTD/svg11.dtd">
<!-- Creator: CorelDRAW X6 -->
<svg xmlns="http://www.w3.org/2000/svg" xml:space="preserve" width="2480px" height="3508px" version="1.1" style="shape-rendering:geometricPrecision; text-rendering:geometricPrecision; image-rendering:optimizeQuality; fill-rule:evenodd; clip-rule:evenodd"
viewBox="0 0 2480 3507"
 xmlns:xlink="http://www.w3.org/1999/xlink">
 <defs>
  <style type="text/css">
   <![CDATA[
    .fil0 {fill:#FEFEFE}
   ]]>
  </style>
 </defs>
 <g id="Camada_x0020_1">
  <metadata id="CorelCorpID_0Corel-Layer"/>
  <path class="fil0" d="M1876 573l-1114 0c-74,0 -134,58 -134,129l0 2317c0,71 60,129 134,129l1114 0c74,0 134,-58 134,-129l0 -2317c0,-71 -60,-129 -134,-129zm-751 201l389 0 0 27 -389 0 0 -27zm194 2239c-41,0 -75,-34 -75,-75 0,-41 34,-75 75,-75 41,0 75,33 75,75 0,41 -34,75 -75,75zm599 -281l-1199 0 0 -1776 1199 0 0 1776z"/>
 </g>
</svg>
