<?xml version="1.0" encoding="UTF-8"?>
<!DOCTYPE svg PUBLIC "-//W3C//DTD SVG 1.1//EN" "http://www.w3.org/Graphics/SVG/1.1/DTD/svg11.dtd">
<!-- Creator: CorelDRAW X6 -->
<svg xmlns="http://www.w3.org/2000/svg" xml:space="preserve" width="96px" height="96px" version="1.1" style="shape-rendering:geometricPrecision; text-rendering:geometricPrecision; image-rendering:optimizeQuality; fill-rule:evenodd; clip-rule:evenodd"
viewBox="0 0 9600000 9600000"
 xmlns:xlink="http://www.w3.org/1999/xlink">
 <defs>
  <style type="text/css">
   <![CDATA[
    .fil0 {fill:#FEFEFE}
   ]]>
  </style>
 </defs>
 <g id="Camada_x0020_1">
  <metadata id="CorelCorpID_0Corel-Layer"/>
  <g id="_403075576">
   <g id="_656684528">
    <polygon class="fil0" points="4745433,2214803 4083307,2214803 4083307,3076535 3232087,3076535 3232087,3746693 4083307,3746693 4083307,4608425 4745433,4608425 4745433,3746693 5596654,3746693 5596654,3076535 4745433,3076535 "/>
    <path class="fil0" d="M2853661 2693504l851339 0 0 -861614 1418740 0 0 861732 378307 0c189094,-287244 283701,-478701 283701,-861732 0,-861614 -662008,-1531890 -1513228,-1531890 -472913,0 -945827,287244 -1229646,670276 -283701,-383031 -756614,-670276 -1229528,-670276 -851220,0 -1513346,670276 -1513346,1531890 0,383031 94606,670276 378307,957402l2364567 2968110 662126 -765945 0 -861732 -851220 0 0 -1436102 0 0 -118 -118z"/>
   </g>
   <path class="fil0" d="M6447874 9012756l0 -1627677c0,-95787 -94606,-191575 -94606,-191575l0 0 0 -1436102 -94606 0c0,-191457 0,-382913 0,-574488 0,-574488 0,-670157 -94606,-765945 0,0 -94488,0 -94488,0 0,0 -94606,0 -189213,95787 -94606,0 -94606,95669 -189213,95669 -472913,191575 -567520,574488 -567520,574488l0 670276 -94606 0 0 1436102 0 0c-94488,0 -94488,95787 -94488,191575l0 1627559c0,95787 94488,191575 94488,191575l1324252 0c94606,0 94606,-95787 94606,-191575l0 0 0 0 0 -95669zm-283701 -1819252l-945827 0 0 -1244646 945827 0 0 1244646 0 0z"/>
   <g id="_397885664">
    <path class="fil0" d="M8055709 3267992c0,0 0,0 -94488,0 0,0 0,-95669 94488,-95669 0,0 0,0 0,0 0,0 0,0 0,0 0,0 0,0 0,0 0,0 0,0 0,0 0,0 0,0 0,0 0,0 0,0 0,0 0,0 0,0 0,0 0,0 0,0 0,0 0,0 0,0 0,0 0,-95787 0,-95787 0,-191575 0,0 -94488,0 -94488,0 0,0 0,0 0,0 0,0 0,0 0,0 0,0 0,0 0,-95787 0,0 0,0 -94606,0 0,0 0,0 0,0 0,0 0,0 -94606,0 0,0 0,0 0,-95669 0,0 0,0 0,0 0,0 0,0 0,0 0,0 0,0 0,0 0,0 0,0 0,-95787 0,0 -94606,0 -94606,0 0,0 0,0 0,0 0,0 -94606,0 -94606,0 0,0 0,0 0,0 0,0 0,0 0,-95787 0,0 -94606,0 -94606,0 0,0 0,0 0,0 0,0 0,0 0,0 0,0 0,0 0,0 0,0 -94488,0 -94488,0 0,0 0,0 0,0 0,0 0,0 0,0 0,0 0,0 0,0 0,0 0,0 0,0 0,0 0,-95669 0,-95669 0,0 -94606,0 -94606,0 0,0 0,0 0,95669 0,0 0,0 0,0 0,0 -94606,0 -94606,0 0,0 0,0 0,0 0,0 0,0 0,0 0,0 -94606,0 -94606,0 0,0 0,0 0,0 0,0 0,0 0,0 0,0 -94606,0 -94606,0 0,0 0,95787 0,95787 0,0 0,0 0,0 0,0 0,0 0,0 0,0 0,0 -94606,0 0,0 0,0 0,0 0,0 -94606,0 -94606,0 0,0 0,95787 94606,95787 0,0 0,0 -94606,0 0,0 0,0 0,0 0,0 -94488,0 -94488,0 0,0 0,0 0,95669 0,0 -94606,0 -94606,0 0,0 0,95787 0,95787 0,0 -94606,0 -94606,0l0 0 0 0c94606,383031 283701,670276 472913,957402l0 0c0,0 94606,-95669 378307,-95669 94606,0 189213,0 378307,95669l0 0c94606,-95669 94606,-287126 189213,-382913 94606,-95787 94606,-287244 189094,-382913 0,0 0,0 0,0 0,0 0,0 0,0l0 0 0 0 -94488 95669z"/>
    <path class="fil0" d="M7677402 5661614c0,-861614 0,-1436102 0,-1436102 -378307,-95787 -662008,0 -662008,0 0,287244 0,861732 0,1531890 94606,0 378307,-95787 567520,0l0 0 0 0 94488 -95787z"/>
    <path class="fil0" d="M7110000 5853071c0,1340433 94488,2968110 94488,3063898 0,191457 189213,191457 189213,191457 0,0 189213,0 189213,-191457 0,-382913 0,-1914921 94606,-3063898 -283819,0 -472913,0 -567520,0l0 0 0 0 0 0z"/>
    <path class="fil0" d="M9190748 3459449l-283701 0 0 670276 0 0c-189213,1436102 0,4116969 94606,4691457l0 191575c0,95669 94606,95669 94606,95669l0 0c94488,0 94488,-95669 94488,-95669l0 0 0 0c189213,-3255354 -94488,-4691575 -94488,-4787244l0 -766063 0 0 0 0 94488 0z"/>
    <path class="fil0" d="M9190748 3363780c94606,-191457 189213,-574488 0,-574488 -189213,0 -283701,191457 -283701,287244 0,95787 94606,287244 94606,287244l283701 0 0 0 0 0 -94606 0z"/>
   </g>
  </g>
 </g>
</svg>
