<?xml version="1.0" encoding="UTF-8"?>
<!DOCTYPE svg PUBLIC "-//W3C//DTD SVG 1.0//EN" "http://www.w3.org/TR/2001/REC-SVG-20010904/DTD/svg10.dtd">
<!-- Creator: CorelDRAW X6 -->
<svg xmlns="http://www.w3.org/2000/svg" xml:space="preserve" width="96px" height="96px" version="1.0" style="shape-rendering:geometricPrecision; text-rendering:geometricPrecision; image-rendering:optimizeQuality; fill-rule:evenodd; clip-rule:evenodd"
viewBox="0 0 96 96"
 xmlns:xlink="http://www.w3.org/1999/xlink">
 <defs>
  <style type="text/css">
   <![CDATA[
    .fil0 {fill:white}
   ]]>
  </style>
 </defs>
 <g id="Camada_x0020_1">
  <metadata id="CorelCorpID_0Corel-Layer"/>
  <path class="fil0" d="M12 79l0 13 -7 0 0 -47c0,-2 2,-3 3,-3 2,0 3,2 3,3l0 28 76 0 0 20 -7 0 0 -13 -69 0 0 0 1 -1zm11 -21c3,0 6,-3 6,-6 0,-3 -3,-6 -6,-6 -3,0 -6,3 -6,6 0,3 3,6 6,6zm66 9l0 -9c0,-3 -2,-5 -5,-5l-48 -5c0,0 0,0 0,0 -2,0 -3,1 -3,3l0 9 -13 0c-2,0 -3,1 -3,3 0,2 1,3 3,3l68 0 0 0 0 1zm3 -42l-44 -23 0 0 0 0 0 0 0 0 -44 23 4 8 41 -21 41 21 4 -8 0 0 -2 0z"/>
 </g>
</svg>
