<?xml version="1.0" encoding="UTF-8"?>
<!DOCTYPE svg PUBLIC "-//W3C//DTD SVG 1.0//EN" "http://www.w3.org/TR/2001/REC-SVG-20010904/DTD/svg10.dtd">
<!-- Creator: CorelDRAW X6 -->
<svg xmlns="http://www.w3.org/2000/svg" xml:space="preserve" width="96px" height="96px" version="1.0" style="shape-rendering:geometricPrecision; text-rendering:geometricPrecision; image-rendering:optimizeQuality; fill-rule:evenodd; clip-rule:evenodd"
viewBox="0 0 96 96"
 xmlns:xlink="http://www.w3.org/1999/xlink">
 <defs>
  <style type="text/css">
   <![CDATA[
    .fil0 {fill:white}
   ]]>
  </style>
 </defs>
 <g id="Camada_x0020_1">
  <metadata id="CorelCorpID_0Corel-Layer"/>
  <g id="_396227208">
   <path class="fil0" d="M32 40l29 20c2,2 6,1 8,-1l1 -1c2,-2 1,-6 -1,-8l-29 -20c-2,-2 -6,-1 -8,1l-1 1c-2,2 -1,6 1,8zm35 11c2,2 3,4 1,6 -2,2 -4,3 -6,1 -2,-2 -3,-4 -1,-6 2,-2 4,-3 6,-1zm-21 -14l14 10 -3 5 -14 -10 3 -5zm-7 -5c2,2 3,4 1,6 -2,2 -4,3 -6,1 -2,-2 -3,-4 -1,-6 2,-2 4,-3 6,-1z"/>
   <path class="fil0" d="M28 26l0 0c0,0 -1,1 -1,1l-1 1 1 1 1 -1c0,0 1,-1 1,-1l0 0 -1 -1z"/>
   <path class="fil0" d="M30 27l-4 -3 -3 4 4 3 3 -4zm-4 3l1 -1 -1 -1 -1 1 -1 -1 3 -3 1 1 -1 4 -1 -1 0 0z"/>
   <path class="fil0" d="M65 89l2 -2 1 1 9 -12 -1 -1 17 -24c0,0 1,-1 0,-1l-61 -43c0,0 -1,-1 -1,0l-17 24 -2 -1 -9 12 2 1 -2 2c0,0 -1,1 0,1l61 43c0,0 1,1 1,0l0 0zm20 -39l1 4 -17 24 -55 -39 17 -24 4 -1 50 35 1 1zm-52 -41c1,1 1,2 0,3 -1,1 -2,1 -3,0 -1,-1 -1,-2 0,-3 1,-1 2,-1 3,0zm-27 38c-1,-1 -1,-2 0,-3 1,-1 2,-1 3,0 1,1 1,2 0,3 -1,1 -2,1 -3,0zm13 10c-1,-1 -1,-2 0,-3 1,-1 2,-1 3,0 1,1 1,2 0,3 -1,1 -2,1 -3,0zm9 3c0,0 -1,1 -1,0l-1 -1c0,0 -1,-1 0,-1l1 -1c0,0 1,-1 1,0l1 1c0,0 1,1 0,1l-1 1zm9 3c-1,-1 0,-1 0,-1 1,-1 1,0 1,0 1,1 0,1 0,1 -1,1 -1,0 -1,0zm8 9c0,0 -1,1 -1,0l-1 -1c0,0 -1,-1 0,-1l1 -1c0,0 1,-1 1,0l1 1c0,0 1,1 0,1l-1 1zm4 6c-1,-1 -1,-2 0,-3 1,-1 2,-1 3,0 1,1 1,2 0,3 -1,1 -2,1 -3,0zm13 9c-1,-1 -1,-2 0,-3 1,-1 2,-1 3,0 1,1 1,2 0,3 -1,1 -2,1 -3,0zm25 -36c-1,-1 -1,-2 0,-3 1,-1 2,-1 3,0 1,1 1,2 0,3 -1,1 -2,1 -3,0z"/>
  </g>
 </g>
</svg>
