<?xml version="1.0" encoding="UTF-8"?>
<!DOCTYPE svg PUBLIC "-//W3C//DTD SVG 1.1//EN" "http://www.w3.org/Graphics/SVG/1.1/DTD/svg11.dtd">
<!-- Creator: CorelDRAW X6 -->
<svg xmlns="http://www.w3.org/2000/svg" xml:space="preserve" width="2480px" height="3508px" version="1.1" style="shape-rendering:geometricPrecision; text-rendering:geometricPrecision; image-rendering:optimizeQuality; fill-rule:evenodd; clip-rule:evenodd"
viewBox="0 0 2480 3507"
 xmlns:xlink="http://www.w3.org/1999/xlink">
 <defs>
  <style type="text/css">
   <![CDATA[
    .fil0 {fill:#FEFEFE}
   ]]>
  </style>
 </defs>
 <g id="Camada_x0020_1">
  <metadata id="CorelCorpID_0Corel-Layer"/>
  <g id="_597428544">
   <path class="fil0" d="M1300 872l0 1696 405 0 0 -307 133 0 0 307 405 0 0 -1696 -943 0zm729 1039l-514 0 0 -133 514 0 0 133zm0 -324l-514 0 0 -133 514 0 0 133zm0 -324l-514 0 0 -133 514 0 0 133z"/>
   <path class="fil0" d="M224 2568l405 0 0 -307 133 0 0 307 405 0 0 -2020 -943 0 0 2020zm215 -1762l514 0 0 133 -514 0 0 -133zm0 324l514 0 0 133 -514 0 0 -133zm0 324l514 0 0 133 -514 0 0 -133zm0 324l514 0 0 133 -514 0 0 -133z"/>
  </g>
 </g>
</svg>
