<?xml version="1.0" encoding="UTF-8"?>
<!DOCTYPE svg PUBLIC "-//W3C//DTD SVG 1.1//EN" "http://www.w3.org/Graphics/SVG/1.1/DTD/svg11.dtd">
<!-- Creator: CorelDRAW X6 -->
<svg xmlns="http://www.w3.org/2000/svg" xml:space="preserve" width="2480px" height="3508px" version="1.1" style="shape-rendering:geometricPrecision; text-rendering:geometricPrecision; image-rendering:optimizeQuality; fill-rule:evenodd; clip-rule:evenodd"
viewBox="0 0 2480 3507"
 xmlns:xlink="http://www.w3.org/1999/xlink">
 <defs>
  <style type="text/css">
   <![CDATA[
    .fil0 {fill:#FEFEFE}
   ]]>
  </style>
 </defs>
 <g id="Camada_x0020_1">
  <metadata id="CorelCorpID_0Corel-Layer"/>
  <g id="_598560776">
   <path class="fil0" d="M1954 1416c198,0 358,160 358,358 0,198 -160,358 -358,358 -198,0 -358,-160 -358,-358 0,-198 160,-358 358,-358zm0 558c110,0 199,-89 199,-199 0,-110 -89,-199 -199,-199 -110,0 -199,89 -199,199 0,110 89,199 199,199z"/>
   <path class="fil0" d="M496 1416c40,0 79,7 116,19l99 -154c-21,-16 -43,-30 -65,-41l0 -176 158 71 147 -229 287 0 53 44 -241 78 -108 169 286 134 279 -184 448 -71 0 115 -329 252 -204 423 -395 0 -102 -371c0,0 -41,-53 -101,-113l-84 130c70,65 115,159 115,263 0,198 -160,358 -358,358 -198,0 -358,-160 -358,-358 0,-198 160,-358 358,-358zm0 558c110,0 199,-89 199,-199 0,-47 -16,-90 -44,-125l-106 165 -126 -81 101 -157c-8,-1 -16,-2 -25,-2 -110,0 -199,89 -199,199 0,110 89,199 199,199z"/>
  </g>
 </g>
</svg>
