<?xml version="1.0" encoding="UTF-8"?>
<!DOCTYPE svg PUBLIC "-//W3C//DTD SVG 1.0//EN" "http://www.w3.org/TR/2001/REC-SVG-20010904/DTD/svg10.dtd">
<!-- Creator: CorelDRAW X6 -->
<svg xmlns="http://www.w3.org/2000/svg" xml:space="preserve" width="96px" height="96px" version="1.0" style="shape-rendering:geometricPrecision; text-rendering:geometricPrecision; image-rendering:optimizeQuality; fill-rule:evenodd; clip-rule:evenodd"
viewBox="0 0 96 96"
 xmlns:xlink="http://www.w3.org/1999/xlink">
 <defs>
  <style type="text/css">
   <![CDATA[
    .str0 {stroke:black;stroke-width:2.3622}
    .fil0 {fill:white}
   ]]>
  </style>
 </defs>
 <g id="Camada_x0020_1">
  <metadata id="CorelCorpID_0Corel-Layer"/>
  <g id="_420462160">
   <rect class="fil0 str0" x="18" y="49" width="4" height="6"/>
   <g id="_597431496">
    <path class="fil0" d="M26 17l-17 0c-3,0 -6,3 -6,6l0 62c0,3 3,6 6,6l17 0c3,0 6,-3 6,-6l0 -62c0,-3 -3,-6 -6,-6zm-14 56c-2,0 -3,-1 -3,-3 0,-2 1,-3 3,-3 2,0 3,1 3,3 0,2 -1,3 -3,3l0 0zm14 -34l-17 0 0 -6 17 0 0 6zm0 -11l-17 0 0 -6 17 0 0 6z"/>
    <path class="fil0" d="M63 78l0 -6 -17 0 0 6c-3,0 -6,3 -6,6l28 0c0,-3 -3,-6 -6,-6l0 0 1 0z"/>
    <path class="fil0" d="M88 5l-68 0c-3,0 -6,3 -6,6l73 0 0 45 -51 0 0 11 51 0c3,0 6,-3 6,-6l0 -51c0,-3 -3,-6 -6,-6l0 0 1 0zm-34 59c-2,0 -3,-1 -3,-3 0,-2 1,-3 3,-3 2,0 3,1 3,3 0,2 -1,3 -3,3l0 0z"/>
   </g>
  </g>
 </g>
</svg>
