<?xml version="1.0" encoding="UTF-8"?>
<!DOCTYPE svg PUBLIC "-//W3C//DTD SVG 1.1//EN" "http://www.w3.org/Graphics/SVG/1.1/DTD/svg11.dtd">
<!-- Creator: CorelDRAW X6 -->
<svg xmlns="http://www.w3.org/2000/svg" xml:space="preserve" width="2480px" height="3508px" version="1.1" style="shape-rendering:geometricPrecision; text-rendering:geometricPrecision; image-rendering:optimizeQuality; fill-rule:evenodd; clip-rule:evenodd"
viewBox="0 0 2480 3507"
 xmlns:xlink="http://www.w3.org/1999/xlink">
 <defs>
  <style type="text/css">
   <![CDATA[
    .fil0 {fill:#FEFEFE}
   ]]>
  </style>
 </defs>
 <g id="Camada_x0020_1">
  <metadata id="CorelCorpID_0Corel-Layer"/>
  <g id="_443292528">
   <path class="fil0" d="M2216 1858c-9,-39 -49,-63 -88,-54l-656 159 -119 -215 170 33c22,4 45,-6 57,-25 12,-20 10,-44 -4,-62l-176 -218c-17,-21 -45,-26 -67,-14 10,34 9,70 -2,102l67 83 -103 -20 -128 264 84 -254c9,-29 -6,-59 -35,-69 -29,-9 -59,6 -69,35l-63 192 15 -119c0,0 0,0 0,0l-84 46c-21,15 -48,39 -42,75l39 233c4,26 27,45 54,45 23,0 44,-15 52,-37l6 -17 77 149 0 678c0,40 33,73 73,73 40,0 73,-33 73,-73l0 -701c0,0 9,-2 815,-198 39,-9 63,-49 54,-88z"/>
   <path class="fil0" d="M1110 1624l7 -33c10,-48 56,-78 104,-68 25,5 45,20 57,40 16,-35 16,-78 -4,-114 -23,-42 -66,-65 -111,-65 -21,0 -42,5 -61,16 -61,34 -83,110 -50,171 13,24 34,42 57,53z"/>
  </g>
  <g id="_443291136">
   <path class="fil0" d="M1349 3225c0,92 -75,167 -167,167 -92,0 -167,-75 -167,-167 0,-92 75,-167 167,-167 92,0 167,75 167,167z"/>
   <path class="fil0" d="M1882 3225c0,92 -75,167 -167,167 -92,0 -167,-75 -167,-167 0,-92 75,-167 167,-167 92,0 167,75 167,167z"/>
   <path class="fil0" d="M2415 3225c0,92 -75,167 -167,167 -92,0 -167,-75 -167,-167 0,-92 75,-167 167,-167 92,0 167,75 167,167z"/>
   <path class="fil0" d="M2319 2959l0 -146c0,-63 -50,-122 -111,-136 0,0 -266,-48 -346,-66 -61,-14 -111,-76 -111,-139l0 -47 -240 0 0 -100 240 0 0 -133 -240 0 0 -100 240 0 0 -214 -639 58 0 923 -201 0 0 100 1408 0z"/>
  </g>
 </g>
 <g id="Camada_x0020_1_0">
  <metadata id="CorelCorpID_1Corel-Layer"/>
  <path class="fil0" d="M1310 1167c-120,-120 -316,-120 -436,0l-659 659c-61,61 -90,139 -90,218 0,79 30,158 90,218 120,120 316,120 436,0l659 -659c61,-61 90,-139 90,-218 0,-79 -30,-158 -90,-218l0 0zm-748 1006l-60 -60 56 -56 -139 -139 -56 56 -60 -60 172 -172 60 60 -56 56 139 139 56 -56 60 60 -172 172zm487 -487l-60 -60 56 -56 -139 -139 -56 56 -60 -60 172 -172 60 60 -56 56 139 139 56 -56 60 60 -172 172z"/>
 </g>
</svg>
