<?xml version="1.0" encoding="UTF-8"?>
<!DOCTYPE svg PUBLIC "-//W3C//DTD SVG 1.1//EN" "http://www.w3.org/Graphics/SVG/1.1/DTD/svg11.dtd">
<!-- Creator: CorelDRAW X6 -->
<svg xmlns="http://www.w3.org/2000/svg" xml:space="preserve" width="2480px" height="3508px" version="1.1" style="shape-rendering:geometricPrecision; text-rendering:geometricPrecision; image-rendering:optimizeQuality; fill-rule:evenodd; clip-rule:evenodd"
viewBox="0 0 2480 3507"
 xmlns:xlink="http://www.w3.org/1999/xlink">
 <defs>
  <style type="text/css">
   <![CDATA[
    .fil0 {fill:#FEFEFE}
   ]]>
  </style>
 </defs>
 <g id="Camada_x0020_1">
  <metadata id="CorelCorpID_0Corel-Layer"/>
  <g id="_597334344">
   <path class="fil0" d="M1842 1890l-654 -463c-14,-10 -33,-2 -36,14l-56 260 -345 187c-21,12 -13,44 11,44l150 0 0 158 -136 0c-41,0 -74,33 -74,74l0 274 94 0 0 -238c0,-8 6,-14 14,-14l103 0 0 252 842 0 0 -506 75 0c23,0 32,-29 14,-42zm-278 297l-145 0c-12,0 -22,-10 -22,-22l0 -116c0,-12 10,-22 22,-22l145 0c12,0 22,10 22,22l0 116c0,12 -10,22 -22,22z"/>
   <path class="fil0" d="M275 956c72,-15 151,0 226,59 35,28 60,58 78,91 -23,-26 -54,-44 -90,-49 -56,-8 -111,19 -144,64 -13,18 -21,36 -25,54 -3,12 12,21 21,14 34,-26 78,-40 133,-32 45,6 79,25 104,50 -4,3 -419,471 -441,1231l255 0c-22,-838 269,-1164 269,-1165 28,19 52,47 67,87 20,52 17,99 -1,137 -5,11 7,23 18,18 17,-8 33,-19 47,-37 37,-43 51,-103 30,-155 -14,-34 -38,-61 -68,-77 36,10 71,28 106,55 74,59 106,131 109,204 1,14 17,20 26,9 24,-29 42,-65 49,-114 11,-84 -18,-172 -85,-224 -22,-17 -46,-29 -70,-38 2,0 5,0 7,1 90,11 155,52 195,109 9,13 31,8 32,-9 3,-32 -1,-66 -15,-102 -34,-85 -109,-149 -200,-157 -33,-3 -65,1 -95,11 3,-31 0,-63 -10,-94 -28,-88 -107,-146 -198,-160 -40,-6 -75,-2 -106,9 -15,5 -15,26 -1,32 65,26 122,80 153,166 1,2 2,5 2,7 -14,-22 -31,-42 -53,-60 -66,-53 -158,-62 -238,-32 -47,18 -79,45 -102,76 -7,10 1,23 13,21z"/>
  </g>
 </g>
</svg>
