<?xml version="1.0" encoding="UTF-8"?>
<!DOCTYPE svg PUBLIC "-//W3C//DTD SVG 1.0//EN" "http://www.w3.org/TR/2001/REC-SVG-20010904/DTD/svg10.dtd">
<!-- Creator: CorelDRAW X6 -->
<svg xmlns="http://www.w3.org/2000/svg" xml:space="preserve" width="96px" height="96px" version="1.0" style="shape-rendering:geometricPrecision; text-rendering:geometricPrecision; image-rendering:optimizeQuality; fill-rule:evenodd; clip-rule:evenodd"
viewBox="0 0 96 96"
 xmlns:xlink="http://www.w3.org/1999/xlink">
 <defs>
  <style type="text/css">
   <![CDATA[
    .fil0 {fill:white}
   ]]>
  </style>
 </defs>
 <g id="Camada_x0020_1">
  <metadata id="CorelCorpID_0Corel-Layer"/>
  <path class="fil0" d="M84 28c-11,-19 -30,-6 -30,-6 -1,1 -3,2 -5,2l-5 0c-2,0 -4,-1 -5,-2 0,0 -18,-13 -30,6 -7,11 -8,22 -8,30l0 1c0,6 1,11 1,11 1,5 4,9 9,9 5,0 16,-14 16,-14 1,-1 3,-2 5,-2l29 0c2,0 4,1 5,2 0,0 11,13 16,14 5,0 8,-3 9,-9 0,0 5,-21 -7,-41l0 0 -1 0zm-48 16l-6 0 0 6c0,0 -1,1 -3,1 -2,0 -3,-1 -3,-1l0 -6 -6 0c0,0 -1,-1 -1,-3 0,-2 1,-4 1,-4l6 0 0 -6c0,0 1,-1 3,-1 2,0 3,1 3,1l0 6 6 0c0,0 1,1 1,3 0,2 -1,4 -1,4l0 0 0 0zm29 7c-3,0 -5,-2 -5,-5 0,-3 2,-5 5,-5 3,0 5,2 5,5 0,3 -2,5 -5,5zm0 -13c-3,0 -5,-2 -5,-5 0,-3 2,-5 5,-5 3,0 5,2 5,5 0,3 -2,5 -5,5zm12 8c-3,0 -5,-2 -5,-5 0,-3 2,-5 5,-5 3,0 5,2 5,5 0,3 -2,5 -5,5z"/>
 </g>
</svg>
