<?xml version="1.0" encoding="UTF-8"?>
<!DOCTYPE svg PUBLIC "-//W3C//DTD SVG 1.1//EN" "http://www.w3.org/Graphics/SVG/1.1/DTD/svg11.dtd">
<!-- Creator: CorelDRAW X6 -->
<svg xmlns="http://www.w3.org/2000/svg" xml:space="preserve" width="2480px" height="3508px" version="1.1" style="shape-rendering:geometricPrecision; text-rendering:geometricPrecision; image-rendering:optimizeQuality; fill-rule:evenodd; clip-rule:evenodd"
viewBox="0 0 2480 3507"
 xmlns:xlink="http://www.w3.org/1999/xlink">
 <defs>
  <style type="text/css">
   <![CDATA[
    .fil0 {fill:#FEFEFE}
   ]]>
  </style>
 </defs>
 <g id="Camada_x0020_1">
  <metadata id="CorelCorpID_0Corel-Layer"/>
  <path class="fil0" d="M778 1568l256 -834 -416 -262 -1022 353 -166 462 716 500c-622,378 -922,1153 -675,1869 284,825 1187,1265 2012,981 825,-284 1265,-1187 981,-2012 -247,-716 -959,-1140 -1684,-1056l-3 0zm531 2572c-553,191 -1156,-103 -1347,-656 -191,-553 103,-1156 656,-1347 553,-191 1156,103 1347,656 191,553 -103,1156 -656,1347z"/>
  <g id="_397364296">
   <path class="fil0" d="M4508 4474l-691 216c-12,3 -16,0 -16,-3 -12,-12 -28,-25 -47,-34 -31,-16 -62,-16 -94,-9 -3,0 -16,3 -22,-6l-278 -297c-37,-41 -100,-44 -141,-6 -41,37 -44,100 -6,141l328 347c6,6 6,12 9,16 12,37 41,72 81,91 75,34 166,3 200,-75 3,-3 6,-16 16,-19l706 -222c37,-12 59,-53 47,-91 -12,-37 -53,-59 -91,-47l-3 0z"/>
   <path class="fil0" d="M5018 4968c-41,-19 -44,-28 -41,-37 103,-556 -178,-1134 -712,-1381 -631,-291 -1384,-12 -1675,619 -291,631 -12,1384 619,1675 569,262 1219,84 1559,-416 9,-19 47,0 59,6 78,37 172,-44 231,-172 59,-128 44,-259 -34,-294l-6 0zm-1709 656c-512,-234 -734,-844 -500,-1356 234,-512 844,-734 1356,-500 512,234 734,844 500,1356 -234,512 -844,734 -1356,500z"/>
   <path class="fil0" d="M4318 3424c178,81 328,197 453,334 6,6 25,16 34,-6l541 -1175c0,0 16,-34 -41,-62l-934 -431c-59,-28 -75,9 -75,9l-541 1172c-16,34 9,34 22,34 181,6 366,47 541,128l0 -3z"/>
   <path class="fil0" d="M3143 5974c-178,-81 -331,-197 -453,-334 -6,-6 -25,-16 -34,6l-541 1175c0,0 -16,37 41,62l934 431c59,28 75,-9 75,-9l541 -1172c16,-34 -9,-34 -22,-34 -181,-6 -366,-47 -541,-128l0 3z"/>
  </g>
 </g>
</svg>
