<?xml version="1.0" encoding="UTF-8"?>
<!DOCTYPE svg PUBLIC "-//W3C//DTD SVG 1.1//EN" "http://www.w3.org/Graphics/SVG/1.1/DTD/svg11.dtd">
<!-- Creator: CorelDRAW X6 -->
<svg xmlns="http://www.w3.org/2000/svg" xml:space="preserve" width="210mm" height="297mm" version="1.1" style="shape-rendering:geometricPrecision; text-rendering:geometricPrecision; image-rendering:optimizeQuality; fill-rule:evenodd; clip-rule:evenodd"
viewBox="0 0 21000 29700"
 xmlns:xlink="http://www.w3.org/1999/xlink">
 <defs>
  <style type="text/css">
   <![CDATA[
    .fil0 {fill:#FEFEFE}
   ]]>
  </style>
 </defs>
 <g id="Camada_x0020_1">
  <metadata id="CorelCorpID_0Corel-Layer"/>
  <g id="baby-dummy-with-bear-head-silhouette.eps">
   <path class="fil0" d="M2580 12945c129,414 561,691 995,627l819 -122 -700 7848c-20,228 50,446 199,614 149,169 368,272 598,280 1114,42 3735,418 4002,3004 45,447 426,796 868,796l2643 0c448,0 821,-343 867,-795 267,-2588 2888,-2964 4002,-3005 230,-8 448,-111 598,-280 148,-167 219,-386 199,-614l-699 -7845 818 119c42,7 83,9 126,9 395,0 753,-260 869,-636l1197 -3853c136,-439 -106,-916 -541,-1065l-5345 -1834c-85,-29 -172,-44 -260,-45l-9 0c-371,0 -684,250 -780,623 -353,1379 -1447,1672 -2068,1725 -164,13 -431,13 -593,0 -621,-53 -1715,-346 -2070,-1725 -94,-373 -409,-623 -780,-623l-9 0c-88,1 -174,16 -259,45l-5343 1833c-435,149 -677,628 -541,1066l1197 3853zm4808 -5719c588,1884 2218,2225 2911,2283 212,18 555,18 763,0 692,-58 2324,-399 2911,-2283l4988 1712 -1122 3613 -1025 -149c-275,-42 -520,50 -691,236 -146,161 -215,373 -195,599l707 7948c-1240,81 -4363,606 -4763,3789l-2381 0c-402,-3182 -3525,-3707 -4765,-3789l708 -7948c20,-227 -50,-440 -197,-601 -171,-185 -414,-276 -689,-235l-1025 150 -1125 -3614 4989 -1712z"/>
   <path class="fil0" d="M7814 14866c0,1376 1285,2494 2871,2494 1586,0 2871,-1116 2871,-2494 0,-356 -87,-695 -240,-1002 261,-234 425,-575 425,-954 0,-709 -573,-1283 -1283,-1283 -535,0 -995,329 -1187,796 -189,-33 -384,-51 -586,-51 -204,0 -402,18 -594,53 -192,-467 -651,-798 -1187,-798 -709,0 -1283,574 -1283,1283 0,382 167,725 432,960 -152,304 -238,640 -238,995z"/>
  </g>
  <g id="crib.eps">
   <path class="fil0" d="M2634 18049c-379,-223 -880,-105 -1104,273 -73,124 -109,259 -111,393l0 22c4,268 143,529 392,675 1958,1155 5137,1818 8720,1818 3583,0 6761,-662 8720,-1818 379,-223 505,-712 281,-1090 -224,-379 -786,-462 -1165,-238l0 -11299c0,-439 -356,-796 -796,-796 -440,0 -796,356 -796,796l0 1102 -12550 0 0 -1102c0,-439 -356,-796 -796,-796 -440,0 -796,356 -796,796l0 11263zm14141 -2081l-1959 0 0 -6489 1959 0 0 6489zm-5510 0l0 -6489 1959 0 0 6489 -1959 0zm-3489 0l0 -6489 1898 0 0 6489 -1898 0zm-1592 -6489l0 6489 -1959 0 0 -6489 1959 0zm-1959 9271l0 -1190 12550 0 0 1211c-1679,553 -3882,867 -6244,867 -2391,0 -4619,-321 -6306,-888z"/>
  </g>
 </g>
</svg>
