<?xml version="1.0" encoding="UTF-8"?>
<!DOCTYPE svg PUBLIC "-//W3C//DTD SVG 1.0//EN" "http://www.w3.org/TR/2001/REC-SVG-20010904/DTD/svg10.dtd">
<!-- Creator: CorelDRAW X6 -->
<svg xmlns="http://www.w3.org/2000/svg" xml:space="preserve" width="96px" height="96px" version="1.0" style="shape-rendering:geometricPrecision; text-rendering:geometricPrecision; image-rendering:optimizeQuality; fill-rule:evenodd; clip-rule:evenodd"
viewBox="0 0 96 96"
 xmlns:xlink="http://www.w3.org/1999/xlink">
 <defs>
  <style type="text/css">
   <![CDATA[
    .fil0 {fill:white}
   ]]>
  </style>
 </defs>
 <g id="Camada_x0020_1">
  <metadata id="CorelCorpID_0Corel-Layer"/>
  <path class="fil0" d="M62 36c-1,-1 -1,-2 -3,-3 5,-6 9,-13 14,-19 3,2 5,5 7,7 -6,5 -13,9 -19,14l0 0 0 0zm-5 22c-5,5 -14,5 -20,0 -5,-5 -5,-14 0,-20 5,-5 14,-5 20,0 5,5 5,14 0,20zm-36 24c-3,-2 -5,-5 -7,-7 6,-5 13,-9 19,-14 1,1 1,2 3,3 -5,6 -9,13 -14,19l0 0 0 0zm60 -67c-9,-9 -22,-14 -34,-14 -12,0 -25,5 -34,14 -9,9 -14,22 -14,34l0 0c0,12 5,25 14,34 19,19 49,19 68,0 19,-19 19,-49 0,-68l0 0z"/>
 </g>
</svg>
