<?xml version="1.0" encoding="UTF-8"?>
<!DOCTYPE svg PUBLIC "-//W3C//DTD SVG 1.0//EN" "http://www.w3.org/TR/2001/REC-SVG-20010904/DTD/svg10.dtd">
<!-- Creator: CorelDRAW X6 -->
<svg xmlns="http://www.w3.org/2000/svg" xml:space="preserve" width="96px" height="96px" version="1.0" style="shape-rendering:geometricPrecision; text-rendering:geometricPrecision; image-rendering:optimizeQuality; fill-rule:evenodd; clip-rule:evenodd"
viewBox="0 0 96 96"
 xmlns:xlink="http://www.w3.org/1999/xlink">
 <defs>
  <style type="text/css">
   <![CDATA[
    .fil0 {fill:white}
   ]]>
  </style>
 </defs>
 <g id="Camada_x0020_1">
  <metadata id="CorelCorpID_0Corel-Layer"/>
  <g id="_420450328">
   <path class="fil0" d="M51 30l12 10 11 -4 6 -18c-4,-5 -9,-8 -14,-11l-15 11 0 11 0 0 0 0z"/>
   <path class="fil0" d="M93 46c0,-9 -3,-16 -8,-22l-5 13 11 9 1 0z"/>
   <polygon class="fil0" points="37,44 41,58 56,58 60,44 48,35 "/>
   <path class="fil0" d="M11 24c-4,7 -7,14 -8,22l11 -9 -5 -13 1 0z"/>
   <path class="fil0" d="M66 46l-5 15 7 10 19 0c3,-5 5,-11 6,-17l-15 -11 -11 4 0 0 0 0z"/>
   <path class="fil0" d="M36 60l-5 -15 -11 -4 -15 11c1,6 3,11 6,17l19 0 7 -10 0 0 0 0z"/>
   <path class="fil0" d="M60 5c-4,-1 -8,-2 -11,-2 -4,0 -8,1 -11,2l11 9 11 -9 0 0z"/>
   <path class="fil0" d="M40 64l-7 10 6 18c3,1 6,1 9,1 3,0 6,0 9,-1l6 -18 -7 -10 -16 0 0 0 1 0z"/>
   <path class="fil0" d="M64 90c8,-3 14,-8 19,-13l-14 0 -5 13 0 0 0 0z"/>
   <path class="fil0" d="M33 40l12 -10 0 -11 -15 -11c-6,3 -11,6 -14,11l6 18 11 4 0 0 0 0z"/>
   <path class="fil0" d="M14 76c5,6 11,11 19,13l-5 -13 -14 0 0 0 0 0z"/>
  </g>
 </g>
</svg>
