<?xml version="1.0" encoding="UTF-8"?>
<!DOCTYPE svg PUBLIC "-//W3C//DTD SVG 1.1//EN" "http://www.w3.org/Graphics/SVG/1.1/DTD/svg11.dtd">
<!-- Creator: CorelDRAW X6 -->
<svg xmlns="http://www.w3.org/2000/svg" xml:space="preserve" width="2480px" height="3508px" version="1.1" style="shape-rendering:geometricPrecision; text-rendering:geometricPrecision; image-rendering:optimizeQuality; fill-rule:evenodd; clip-rule:evenodd"
viewBox="0 0 2480 3507"
 xmlns:xlink="http://www.w3.org/1999/xlink">
 <defs>
  <style type="text/css">
   <![CDATA[
    .fil0 {fill:#FEFEFE}
   ]]>
  </style>
 </defs>
 <g id="Camada_x0020_1">
  <metadata id="CorelCorpID_0Corel-Layer"/>
  <g id="_441992288">
   <polygon class="fil0" points="1007,1327 1050,2401 378,1558 "/>
   <polygon class="fil0" points="443,1398 575,1111 857,1245 "/>
   <polygon class="fil0" points="252,1605 789,2279 -20,1705 "/>
   <polygon class="fil0" points="1133,1280 1415,1177 1168,2150 "/>
   <polygon class="fil0" points="1322,1074 1025,1184 662,1010 907,920 "/>
   <polygon class="fil0" points="166,1193 444,1091 273,1461 -25,1571 "/>
  </g>
  <path class="fil0" d="M2424 2184c-111,-177 -329,-288 -530,-335 -2,-11 -10,-21 -22,-23l-79 -15c-2,-57 -28,-122 -72,-130 -54,-10 -114,70 -126,131 -8,43 7,83 35,107 -1,2 -2,5 -3,7l-4 20c-34,-3 -76,-4 -85,12 -15,28 81,69 -48,158 -129,88 -210,181 -88,467 122,286 -115,323 -115,323l-3 18 390 74 3 -18c0,0 -207,-121 11,-343 218,-222 176,-338 88,-467 -88,-129 16,-133 12,-164 -2,-18 -41,-33 -74,-42l4 -20c1,-3 0,-5 0,-8 24,-8 45,-26 59,-50l81 15c11,2 22,-3 28,-11 181,42 361,136 478,282 140,175 96,446 -94,567 -54,-52 -168,-52 -276,4 -123,64 -190,179 -150,256 40,77 173,87 296,22 119,-62 185,-171 153,-248 195,-122 251,-397 130,-589z"/>
 </g>
</svg>
