<?xml version="1.0" encoding="UTF-8"?>
<!DOCTYPE svg PUBLIC "-//W3C//DTD SVG 1.1//EN" "http://www.w3.org/Graphics/SVG/1.1/DTD/svg11.dtd">
<!-- Creator: CorelDRAW X6 -->
<svg xmlns="http://www.w3.org/2000/svg" xml:space="preserve" width="2480px" height="3508px" version="1.1" style="shape-rendering:geometricPrecision; text-rendering:geometricPrecision; image-rendering:optimizeQuality; fill-rule:evenodd; clip-rule:evenodd"
viewBox="0 0 2480 3507"
 xmlns:xlink="http://www.w3.org/1999/xlink">
 <defs>
  <style type="text/css">
   <![CDATA[
    .fil0 {fill:#FEFEFE}
   ]]>
  </style>
 </defs>
 <g id="Camada_x0020_1">
  <metadata id="CorelCorpID_0Corel-Layer"/>
  <g id="_441992672">
   <path class="fil0" d="M1213 2804l-875 0c-17,0 -31,-14 -31,-31l0 -1662c0,-17 14,-31 31,-31l1248 0c17,0 31,14 31,31l0 220 223 0 0 -321c0,-81 -66,-147 -147,-147l-1461 0c-81,0 -147,66 -147,147l0 2045c0,81 66,147 147,147l1015 0c-21,-40 -34,-85 -34,-134l0 -265zm-251 292c-51,0 -93,-41 -93,-93 0,-51 41,-93 93,-93 51,0 93,41 93,93 0,51 -41,93 -93,93z"/>
   <path class="fil0" d="M2292 1488l-790 0c-74,0 -134,60 -134,134l0 1448c0,74 60,134 134,134l790 0c74,0 134,-60 134,-134l0 -1448c0,-74 -60,-134 -134,-134zm-395 1639c-47,0 -84,-38 -84,-84 0,-47 38,-84 84,-84 47,0 84,38 84,84 0,47 -38,84 -84,84zm379 -254c0,15 -12,28 -28,28l-703 0c-15,0 -28,-12 -28,-28l0 -1215c0,-15 12,-28 28,-28l703 0c15,0 28,12 28,28l0 1215z"/>
  </g>
 </g>
</svg>
