<?xml version="1.0" encoding="UTF-8"?>
<!DOCTYPE svg PUBLIC "-//W3C//DTD SVG 1.0//EN" "http://www.w3.org/TR/2001/REC-SVG-20010904/DTD/svg10.dtd">
<!-- Creator: CorelDRAW X6 -->
<svg xmlns="http://www.w3.org/2000/svg" xml:space="preserve" width="96px" height="96px" version="1.0" style="shape-rendering:geometricPrecision; text-rendering:geometricPrecision; image-rendering:optimizeQuality; fill-rule:evenodd; clip-rule:evenodd"
viewBox="0 0 96 96"
 xmlns:xlink="http://www.w3.org/1999/xlink">
 <defs>
  <style type="text/css">
   <![CDATA[
    .fil0 {fill:white}
   ]]>
  </style>
 </defs>
 <g id="Camada_x0020_1">
  <metadata id="CorelCorpID_0Corel-Layer"/>
  <g id="_439099416">
   <path class="fil0" d="M42 52c1,-1 1,-3 -1,-3l-6 -5 0 -7c0,-3 -3,-6 -6,-6l-13 0c-3,0 -6,3 -6,6l0 7 -6 5c-1,0 -1,1 -1,2 0,0 0,1 0,1 0,0 0,0 0,0l0 16c0,10 8,19 19,19 10,0 19,-8 19,-19l0 -16c0,0 0,0 0,0l0 0 1 0zm-19 33c-9,0 -16,-7 -16,-16l0 -16 7 -5c1,0 1,-1 1,-2l0 -9c0,0 0,0 0,0 0,0 0,0 0,0l0 41c0,2 1,3 3,3 2,0 3,-1 3,-3l0 -24 1 0 0 24c0,2 1,3 3,3 2,0 3,-1 3,-3l0 -41c0,0 0,0 0,0 0,0 0,0 0,0l0 0 0 9c0,1 0,2 1,2l7 5 0 16c0,9 -7,16 -16,16l0 0 3 0z"/>
   <path class="fil0" d="M28 25c0,3 -2,5 -5,5 -3,0 -5,-2 -5,-5 0,-3 2,-5 5,-5 3,0 5,2 5,5z"/>
  </g>
  <g id="_441290488">
   <path class="fil0" d="M93 29c0,-2 -2,-3 -4,-2l-29 7 -5 -10 8 1c1,0 2,0 3,-1 1,-1 0,-2 0,-3l-8 -10c-1,-1 -2,-1 -3,-1 0,2 0,3 0,5l3 4 -5 -1 -6 12 4 -11c0,-1 0,-3 -2,-3 -1,0 -3,0 -3,2l-3 9 1 -5c0,0 0,0 0,0l-4 2c-1,1 -2,2 -2,3l2 10c0,1 1,2 2,2 1,0 2,-1 2,-2l0 -1 3 7 0 30c0,2 1,3 3,3 2,0 3,-1 3,-3l0 -31c0,0 0,0 36,-9 2,0 3,-2 2,-4l0 0 2 0z"/>
   <path class="fil0" d="M44 19l0 -1c0,-2 3,-3 5,-3 1,0 2,1 3,2 1,-2 1,-3 0,-5 -1,-2 -3,-3 -5,-3 -1,0 -2,0 -3,1 -3,2 -4,5 -2,8 1,1 2,2 3,2l0 0 -1 -1z"/>
  </g>
 </g>
</svg>
