<?xml version="1.0" encoding="UTF-8"?>
<!DOCTYPE svg PUBLIC "-//W3C//DTD SVG 1.0//EN" "http://www.w3.org/TR/2001/REC-SVG-20010904/DTD/svg10.dtd">
<!-- Creator: CorelDRAW X6 -->
<svg xmlns="http://www.w3.org/2000/svg" xml:space="preserve" width="96px" height="96px" version="1.0" style="shape-rendering:geometricPrecision; text-rendering:geometricPrecision; image-rendering:optimizeQuality; fill-rule:evenodd; clip-rule:evenodd"
viewBox="0 0 96 96"
 xmlns:xlink="http://www.w3.org/1999/xlink">
 <defs>
  <style type="text/css">
   <![CDATA[
    .fil0 {fill:white}
   ]]>
  </style>
 </defs>
 <g id="Camada_x0020_1">
  <metadata id="CorelCorpID_0Corel-Layer"/>
  <g id="_420459832">
   <path class="fil0" d="M72 3l-48 0c-2,0 -3,1 -3,3l0 21 54 0 0 -21c0,-2 -1,-3 -3,-3l0 0 0 0zm-41 17c0,1 -1,2 -2,2 -1,0 -2,-1 -2,-2l0 -9c0,-1 1,-2 2,-2 1,0 2,1 2,2l0 9 0 0z"/>
   <path class="fil0" d="M22 86c0,2 1,3 3,3l4 0 0 1c0,2 1,3 3,3 2,0 3,-1 3,-3l0 -1 26 0 0 1c0,2 1,3 3,3 2,0 3,-1 3,-3l0 -1 4 0c2,0 3,-1 3,-3l0 -56 -54 0 0 56 0 0 1 0zm6 -46c0,-1 1,-2 2,-2 1,0 2,1 2,2l0 9c0,1 -1,2 -2,2 -1,0 -2,-1 -2,-2l0 -9 0 0z"/>
  </g>
 </g>
</svg>
