<?xml version="1.0" encoding="UTF-8"?>
<!DOCTYPE svg PUBLIC "-//W3C//DTD SVG 1.0//EN" "http://www.w3.org/TR/2001/REC-SVG-20010904/DTD/svg10.dtd">
<!-- Creator: CorelDRAW X6 -->
<svg xmlns="http://www.w3.org/2000/svg" xml:space="preserve" width="96px" height="96px" version="1.0" style="shape-rendering:geometricPrecision; text-rendering:geometricPrecision; image-rendering:optimizeQuality; fill-rule:evenodd; clip-rule:evenodd"
viewBox="0 0 96 96"
 xmlns:xlink="http://www.w3.org/1999/xlink">
 <defs>
  <style type="text/css">
   <![CDATA[
    .fil0 {fill:white}
   ]]>
  </style>
 </defs>
 <g id="Camada_x0020_1">
  <metadata id="CorelCorpID_0Corel-Layer"/>
  <g id="_593793816">
   <path class="fil0" d="M93 26l-21 -20c0,0 -1,-1 -2,-1 -1,0 -1,0 -2,1l-21 20c0,0 -1,1 -1,1l0 0c0,0 0,0 0,0 0,0 0,1 1,1l2 0 0 18c0,2 2,3 3,3l11 0 0 -12 10 0 0 12 11 0c2,0 3,-2 3,-3l0 -18 2 0c1,0 1,0 1,-1 0,0 0,-1 -1,-2l0 0z"/>
   <g id="_439500856">
    <path class="fil0" d="M53 51l-47 0c-1,0 -2,1 -2,2l0 36c0,1 1,2 2,2 1,0 2,-1 2,-2l0 -33 12 0 0 1c-1,0 -2,1 -3,2l-6 0c-1,0 -1,1 -1,1l0 25c0,1 1,1 1,1l38 0c1,0 1,-1 1,-1l0 -25c0,-1 -1,-1 -1,-1l-6 0c0,-1 -1,-1 -3,-2l0 -1 12 0c1,0 2,-1 2,-2 0,-1 -1,-2 -2,-2l0 0zm-5 33l-36 0 0 -23 36 0 0 23zm-10 -27c-1,0 -2,1 -3,2l-10 0c0,-1 -1,-1 -3,-2l0 -1 15 0 0 1 0 0z"/>
    <path class="fil0" d="M18 77c-2,0 -2,-2 -3,-2 -1,0 -1,0 -1,1 0,1 1,2 4,2 3,0 4,-1 4,-3 0,-1 -1,-2 -2,-3l-2 0c-1,0 -1,0 -1,-1 0,-1 1,-1 2,-1 2,0 2,1 3,1 1,0 1,0 1,-1 0,-1 -2,-2 -4,-2 -2,0 -4,1 -4,3 0,1 0,2 2,3l2 1c1,0 1,1 1,1 0,1 -1,1 -2,1l0 0z"/>
    <path class="fil0" d="M23 78c1,0 1,0 1,-1l1 -2 3 0 1 2c0,0 1,1 1,1 1,0 1,0 1,-1 0,0 0,-1 0,-1l-3 -7c0,-1 -1,-1 -1,-1l-1 0c-1,0 -1,0 -1,1l-3 7c0,0 0,1 0,1 0,1 0,1 1,1l0 0zm3 -7l0 0 1 4 -3 0 1 -4 0 0z"/>
    <path class="fil0" d="M33 78l4 0c1,0 1,0 1,-1 0,-1 -1,-1 -1,-1l-4 0 0 -7c0,-1 0,-1 -1,-1 -1,0 -1,0 -1,1l0 7c0,1 1,1 1,1l0 0z"/>
    <path class="fil0" d="M41 78l5 0c1,0 1,0 1,-1 0,-1 0,-1 -1,-1l-4 0 0 -2 4 0c1,0 1,0 1,-1 0,-1 0,-1 -1,-1l-4 0 0 -2 4 0c1,0 1,0 1,-1 0,-1 0,-1 -1,-1l-5 0c-1,0 -1,0 -1,1l0 7c0,1 1,1 1,1l0 0z"/>
   </g>
  </g>
 </g>
</svg>
