<?xml version="1.0" encoding="UTF-8"?>
<!DOCTYPE svg PUBLIC "-//W3C//DTD SVG 1.1//EN" "http://www.w3.org/Graphics/SVG/1.1/DTD/svg11.dtd">
<!-- Creator: CorelDRAW X6 -->
<svg xmlns="http://www.w3.org/2000/svg" xml:space="preserve" width="2480px" height="3508px" version="1.1" style="shape-rendering:geometricPrecision; text-rendering:geometricPrecision; image-rendering:optimizeQuality; fill-rule:evenodd; clip-rule:evenodd"
viewBox="0 0 2480 3507"
 xmlns:xlink="http://www.w3.org/1999/xlink">
 <defs>
  <style type="text/css">
   <![CDATA[
    .fil0 {fill:#FEFEFE}
   ]]>
  </style>
 </defs>
 <g id="Camada_x0020_1">
  <metadata id="CorelCorpID_0Corel-Layer"/>
  <g id="_598516848">
   <path class="fil0" d="M470 1465c10,-13 20,-25 31,-37 13,-16 28,-31 42,-45 53,-53 112,-99 176,-137l0 -15c0,-35 -28,-62 -62,-62l-69 0c-12,0 -24,6 -31,16l-102 145 -25 -53 40 -84c5,-11 -3,-25 -16,-25l-80 0c-13,0 -21,13 -16,25l40 84 -25 52 -100 -144c-7,-10 -19,-16 -31,-16l-73 0c-35,0 -62,28 -62,62l0 416 253 0c29,-65 66,-126 110,-182z"/>
   <path class="fil0" d="M211 927c0,111 90,201 201,201 111,0 201,-90 201,-201 0,-111 -90,-201 -201,-201 -111,0 -201,90 -201,201z"/>
   <path class="fil0" d="M2110 1168c-12,0 -24,6 -31,16l-102 145 -25 -53 40 -84c5,-11 -3,-25 -16,-25l-80 0c-13,0 -21,13 -16,25l40 84 -24 52 -100 -144c-7,-10 -19,-16 -31,-16l-73 0c-35,0 -62,28 -62,62l0 16c63,38 121,83 174,136 15,15 30,31 44,47 10,11 20,23 29,35 44,56 80,117 110,182l256 0 0 -415c0,-35 -28,-62 -62,-62l-69 0z"/>
   <path class="fil0" d="M1734 927c0,111 90,201 201,201 111,0 201,-90 201,-201 0,-111 -90,-201 -201,-201 -111,0 -201,90 -201,201z"/>
   <path class="fil0" d="M2209 2693l-276 -212c-36,59 -79,113 -129,163 -4,4 -8,8 -13,12l281 215c20,16 44,23 68,23 34,0 67,-15 89,-44 38,-49 29,-120 -21,-157z"/>
   <path class="fil0" d="M1480 2009c0,-35 -28,-62 -62,-62l-69 0c-12,0 -24,6 -31,16l-102 145 -25 -53 40 -84c5,-11 -3,-25 -16,-25l-80 0c-13,0 -21,13 -16,25l40 84 -24 52 -100 -144c-7,-10 -19,-16 -31,-16l-73 0c-35,0 -62,28 -62,62l0 416 612 0 0 -416 0 0z"/>
   <path class="fil0" d="M1174 1907c111,0 201,-90 201,-201 0,-111 -90,-201 -201,-201 -111,0 -201,90 -201,201 0,111 90,201 201,201z"/>
   <path class="fil0" d="M848 2783c103,44 213,66 325,66 113,0 222,-22 325,-66 92,-39 175,-93 248,-162 6,-6 12,-11 18,-17 48,-48 89,-100 124,-157 21,-35 40,-71 55,-108 44,-103 66,-213 66,-325 0,-113 -22,-222 -66,-325 -6,-14 -12,-28 -19,-41 -40,-83 -94,-158 -160,-224 -41,-41 -86,-78 -134,-109 -42,-27 -85,-51 -131,-70 -103,-44 -213,-66 -325,-66 -113,0 -222,22 -325,66 -45,19 -88,42 -129,69 -49,32 -95,69 -136,110 -66,66 -120,141 -160,224 -7,13 -13,27 -19,41 -44,103 -66,213 -66,325 0,113 22,222 66,325 42,100 102,189 179,266 77,77 166,137 266,179zm-143 -1137c4,-6 9,-11 14,-17 11,-13 22,-25 34,-37 112,-112 262,-174 421,-174 159,0 308,62 420,174 13,13 25,26 36,40 4,5 8,9 11,14 82,104 126,232 126,367 0,159 -62,308 -174,421 -112,112 -262,174 -420,174 -159,0 -308,-62 -420,-174 -112,-112 -174,-262 -174,-421 0,-135 44,-263 126,-367z"/>
  </g>
 </g>
</svg>
