<?xml version="1.0" encoding="UTF-8"?>
<!DOCTYPE svg PUBLIC "-//W3C//DTD SVG 1.0//EN" "http://www.w3.org/TR/2001/REC-SVG-20010904/DTD/svg10.dtd">
<!-- Creator: CorelDRAW X6 -->
<svg xmlns="http://www.w3.org/2000/svg" xml:space="preserve" width="96px" height="96px" version="1.0" style="shape-rendering:geometricPrecision; text-rendering:geometricPrecision; image-rendering:optimizeQuality; fill-rule:evenodd; clip-rule:evenodd"
viewBox="0 0 96 96"
 xmlns:xlink="http://www.w3.org/1999/xlink">
 <defs>
  <style type="text/css">
   <![CDATA[
    .fil0 {fill:white}
   ]]>
  </style>
 </defs>
 <g id="Camada_x0020_1">
  <metadata id="CorelCorpID_0Corel-Layer"/>
  <g id="_411972320">
   <path class="fil0" d="M53 9l-10 -2c0,0 -2,4 -9,4 -6,0 -9,-4 -9,-4l-10 2 -13 12 6 11 6 -3 0 37 36 0 0 -37 6 3 6 -11 -13 -12 0 0 1 0z"/>
   <path class="fil0" d="M93 77c-1,0 -1,-1 -2,-1 -3,-1 -6,-1 -9,-2l-2 4c0,0 -1,1 -1,1 0,0 0,0 -1,0 0,0 -1,-1 0,-1l2 -4c-1,0 -1,-1 -2,-1l-3 3c0,0 -1,0 -1,0 0,0 0,0 -1,0 0,0 0,-1 0,-1l3 -3c0,0 -1,-1 -1,-1 -1,-1 -2,-1 -2,-1 -3,-4 -4,-4 -4,-4 0,0 0,0 0,0 -1,0 -2,1 -3,5 0,1 0,1 0,2 0,0 -1,0 -1,0 -5,0 -6,-3 -6,-3 0,0 0,-1 -1,-1 0,0 -1,0 -1,0 0,0 -2,3 -3,8 1,0 3,0 5,0 3,1 6,3 9,9 1,0 2,0 3,0 2,0 5,0 8,1 3,0 5,0 9,0 1,0 1,0 1,0 1,0 2,0 3,-1 -1,1 -2,2 -4,2l-30 0 0 -1c1,0 2,0 2,0 2,0 3,0 5,-1 0,0 0,0 0,0 -1,-3 -3,-5 -6,-6 -2,0 -3,0 -4,0 0,0 0,0 0,0l0 0c0,3 1,5 1,6l0 3c0,0 0,1 0,1 0,0 0,0 1,0l31 0c2,0 4,-1 5,-2 1,-1 2,-3 2,-4 0,0 0,-1 0,-1 0,-1 0,-1 -1,-2l0 0 1 -2zm-23 -9c0,0 0,0 0,0 0,0 -1,1 -3,2 0,-2 1,-3 1,-4 0,0 1,1 2,2l0 0 0 0z"/>
  </g>
 </g>
</svg>
