<?xml version="1.0" encoding="UTF-8"?>
<!DOCTYPE svg PUBLIC "-//W3C//DTD SVG 1.1//EN" "http://www.w3.org/Graphics/SVG/1.1/DTD/svg11.dtd">
<!-- Creator: CorelDRAW X6 -->
<svg xmlns="http://www.w3.org/2000/svg" xml:space="preserve" width="2480px" height="3508px" version="1.1" style="shape-rendering:geometricPrecision; text-rendering:geometricPrecision; image-rendering:optimizeQuality; fill-rule:evenodd; clip-rule:evenodd"
viewBox="0 0 2480 3507"
 xmlns:xlink="http://www.w3.org/1999/xlink">
 <defs>
  <style type="text/css">
   <![CDATA[
    .fil0 {fill:#FEFEFE}
   ]]>
  </style>
 </defs>
 <g id="Camada_x0020_1">
  <metadata id="CorelCorpID_0Corel-Layer"/>
  <g id="_401162232">
   <path class="fil0" d="M516 1528c0,-102 83,-186 186,-186l417 0c65,0 122,33 155,84 33,-50 90,-84 155,-84l417 0c102,0 186,83 186,186l0 9 46 0 0 -181c0,-112 -91,-204 -204,-204l-1200 0c-112,0 -204,91 -204,204l0 181 46 0 0 -9z"/>
   <path class="fil0" d="M2176 1623l-1805 0c-43,0 -78,35 -78,78l0 453c0,43 35,78 78,78l32 0 -38 108c-8,23 4,47 26,55 5,2 10,2 14,2 18,0 35,-11 41,-29l49 -137 1556 0 49 137c6,18 23,29 41,29 5,0 10,-1 14,-2 23,-8 34,-33 26,-55l-38 -108 32 0c43,0 78,-35 78,-78l0 -453c0,-43 -35,-78 -78,-78z"/>
   <path class="fil0" d="M1429 1429c-55,0 -99,44 -99,99l0 9 615 0 0 -9c0,-55 -44,-99 -99,-99l-417 0z"/>
   <path class="fil0" d="M702 1429c-55,0 -99,44 -99,99l0 9 615 0 0 -9c0,-55 -44,-99 -99,-99l-417 0z"/>
  </g>
 </g>
</svg>
