<?xml version="1.0" encoding="UTF-8"?>
<!DOCTYPE svg PUBLIC "-//W3C//DTD SVG 1.0//EN" "http://www.w3.org/TR/2001/REC-SVG-20010904/DTD/svg10.dtd">
<!-- Creator: CorelDRAW X6 -->
<svg xmlns="http://www.w3.org/2000/svg" xml:space="preserve" width="96px" height="96px" version="1.0" style="shape-rendering:geometricPrecision; text-rendering:geometricPrecision; image-rendering:optimizeQuality; fill-rule:evenodd; clip-rule:evenodd"
viewBox="0 0 96 96"
 xmlns:xlink="http://www.w3.org/1999/xlink">
 <defs>
  <style type="text/css">
   <![CDATA[
    .fil0 {fill:white}
   ]]>
  </style>
 </defs>
 <g id="Camada_x0020_1">
  <metadata id="CorelCorpID_0Corel-Layer"/>
  <g id="_598523488">
   <polygon class="fil0" points="41,20 92,20 92,53 41,53 "/>
   <path class="fil0" d="M37 31c0,-1 -1,-3 -3,-3l-26 0c-1,0 -2,1 -3,2l-2 16c0,0 0,0 0,0l0 9 -1 0 0 9 6 0c0,1 0,2 0,3 0,6 5,9 9,9 6,0 9,-5 9,-9 0,-1 0,-2 0,-3l37 0c0,1 0,2 0,3 0,6 5,9 9,9 6,0 9,-5 9,-9 0,-1 0,-2 0,-3l9 0 0 -9 -55 0 0 -25 0 0 -1 1zm-19 42c-3,0 -5,-2 -5,-5 0,-3 2,-5 5,-5 3,0 5,2 5,5 0,3 -2,5 -5,5zm14 -34l-8 8 -15 0 2 -12 21 0 0 5 0 0zm42 25c3,0 5,2 5,5 0,3 -2,5 -5,5 -3,0 -5,-2 -5,-5 0,-3 2,-5 5,-5z"/>
  </g>
 </g>
</svg>
