<?xml version="1.0" encoding="UTF-8"?>
<!DOCTYPE svg PUBLIC "-//W3C//DTD SVG 1.1//EN" "http://www.w3.org/Graphics/SVG/1.1/DTD/svg11.dtd">
<!-- Creator: CorelDRAW X6 -->
<svg xmlns="http://www.w3.org/2000/svg" xml:space="preserve" width="210mm" height="297mm" version="1.1" style="shape-rendering:geometricPrecision; text-rendering:geometricPrecision; image-rendering:optimizeQuality; fill-rule:evenodd; clip-rule:evenodd"
viewBox="0 0 21000 29700"
 xmlns:xlink="http://www.w3.org/1999/xlink">
 <defs>
  <style type="text/css">
   <![CDATA[
    .fil0 {fill:#FEFEFE}
   ]]>
  </style>
 </defs>
 <g id="Camada_x0020_1">
  <metadata id="CorelCorpID_0Corel-Layer"/>
  <g id="baby-carriage-with-wheels.eps">
   <path class="fil0" d="M8779 23565c-226,-34 -451,-74 -671,-125 -1007,12 -1821,829 -1821,1840 0,1013 827,1840 1840,1840 1013,0 1840,-827 1840,-1840 0,-787 -496,-1452 -1188,-1716zm-652 2943c-678,0 -1227,-551 -1227,-1227 0,-679 549,-1227 1227,-1227 676,0 1227,548 1227,1227 0,675 -551,1227 -1227,1227z"/>
   <path class="fil0" d="M8862 25280c0,405 -328,736 -736,736 -407,0 -735,-331 -735,-736 0,-407 328,-738 735,-738 407,0 736,331 736,738z"/>
   <path class="fil0" d="M10212 23684c-139,0 -274,-14 -412,-21 167,175 304,376 412,597 110,-221 244,-422 412,-597 -136,5 -273,21 -412,21z"/>
   <path class="fil0" d="M12315 23440c-218,50 -443,91 -669,125 -693,264 -1188,929 -1188,1716 0,1013 827,1840 1840,1840 1013,0 1840,-827 1840,-1840 0,-1012 -817,-1831 -1824,-1840zm-17 3067c-679,0 -1227,-551 -1227,-1227 0,-679 548,-1227 1227,-1227 675,0 1227,548 1227,1227 0,675 -551,1227 -1227,1227z"/>
   <path class="fil0" d="M13034 25280c0,405 -331,736 -736,736 -407,0 -738,-331 -738,-736 0,-407 331,-738 738,-738 405,0 736,331 736,738z"/>
   <path class="fil0" d="M8187 22954c242,7 474,53 693,129 436,65 879,110 1332,110 455,0 896,-45 1334,-110 218,-74 448,-123 693,-129 3456,-801 6147,-3597 6798,-7107l-17651 0c652,3510 3343,6307 6801,7107z"/>
   <path class="fil0" d="M12251 5453l0 8507 6944 0c-110,-4146 -3046,-7599 -6944,-8507z"/>
   <path class="fil0" d="M11760 5365c-426,-74 -858,-129 -1301,-142l0 8739 1301 0 0 -8598z"/>
   <path class="fil0" d="M1300 15357l17826 0c38,-297 62,-602 72,-906l-17970 0c10,304 34,607 72,906z"/>
  </g>
 </g>
</svg>
