<?xml version="1.0" encoding="UTF-8"?>
<!DOCTYPE svg PUBLIC "-//W3C//DTD SVG 1.1//EN" "http://www.w3.org/Graphics/SVG/1.1/DTD/svg11.dtd">
<!-- Creator: CorelDRAW X6 -->
<svg xmlns="http://www.w3.org/2000/svg" xml:space="preserve" width="2480px" height="3508px" version="1.1" style="shape-rendering:geometricPrecision; text-rendering:geometricPrecision; image-rendering:optimizeQuality; fill-rule:evenodd; clip-rule:evenodd"
viewBox="0 0 2480 3507"
 xmlns:xlink="http://www.w3.org/1999/xlink">
 <defs>
  <style type="text/css">
   <![CDATA[
    .fil0 {fill:#FEFEFE}
   ]]>
  </style>
 </defs>
 <g id="Camada_x0020_1">
  <metadata id="CorelCorpID_0Corel-Layer"/>
  <g id="turtle-facing-right.eps">
   <path class="fil0" d="M2198 910c-216,10 -148,260 -341,279 1,-15 1,-30 1,-45 0,-12 -10,-22 -22,-22 -74,-2 -185,-19 -302,-38 -138,-22 -281,-45 -384,-45 -30,0 -54,2 -75,6 -198,35 -349,223 -496,405 -117,146 -228,284 -343,308 -10,2 -17,11 -17,21l0 2c0,11 8,20 19,21 42,6 82,11 119,17l-116 170 197 0 70 -148c51,8 97,15 139,21 37,6 70,11 101,16l-47 111 199 0 0 -90c53,6 101,9 152,9 26,0 51,-1 79,-2 43,-2 93,-8 145,-18l0 102 176 0 -27 -144c63,-24 127,-58 184,-104 22,-18 43,-37 62,-58 101,127 96,306 96,306l205 0c-4,-155 -139,-331 -216,-420 32,-55 56,-117 73,-185 162,-55 321,-215 390,-239 73,-25 162,-7 162,-96 0,-104 -109,-138 -175,-138l-1 0c-3,0 -6,0 -8,0z"/>
  </g>
 </g>
</svg>
