<?xml version="1.0" encoding="UTF-8"?>
<!DOCTYPE svg PUBLIC "-//W3C//DTD SVG 1.1//EN" "http://www.w3.org/Graphics/SVG/1.1/DTD/svg11.dtd">
<!-- Creator: CorelDRAW X6 -->
<svg xmlns="http://www.w3.org/2000/svg" xml:space="preserve" width="96px" height="96px" version="1.1" style="shape-rendering:geometricPrecision; text-rendering:geometricPrecision; image-rendering:optimizeQuality; fill-rule:evenodd; clip-rule:evenodd"
viewBox="0 0 9600000 9600000"
 xmlns:xlink="http://www.w3.org/1999/xlink">
 <defs>
  <style type="text/css">
   <![CDATA[
    .fil0 {fill:white}
   ]]>
  </style>
 </defs>
 <g id="Camada_x0020_1">
  <metadata id="CorelCorpID_0Corel-Layer"/>
  <path class="fil0" d="M8123622 4268504c-55157,-216496 -130984,-424488 -225000,-622441l860315 -860315 -423543 -1304882 -1304882 -423661 -897520 897283c-409843,-173504 -860433,-269646 -1332874,-269646 -472677,0 -923031,96142 -1333110,269646l-897402 -897283 -1304764 423661 -423661 1304882 860315 860315c-94134,197953 -169843,405945 -224882,622441 -687047,262559 -1176614,928346 -1176614,1706575 0,1007126 819331,1826339 1826339,1826339 162756,0 320787,-21850 471024,-62008 596102,501024 1364764,803268 2202756,803268 837756,0 1606299,-302244 2202402,-803268 150591,40157 308386,62008 471142,62008 1007126,0 1826339,-819213 1826339,-1826339 118,-778228 -489331,-1444016 -1176378,-1706575zm-3554055 3061181c-436654,-15236 -764173,-369213 -764173,-772205l0 -952205 764173 0 0 1724409zm1164449 -772205c0,402992 -363898,756969 -764055,772205l0 -1724409 764055 0 0 952205z"/>
 </g>
</svg>
