<?xml version="1.0" encoding="UTF-8"?>
<!DOCTYPE svg PUBLIC "-//W3C//DTD SVG 1.1//EN" "http://www.w3.org/Graphics/SVG/1.1/DTD/svg11.dtd">
<!-- Creator: CorelDRAW X6 -->
<svg xmlns="http://www.w3.org/2000/svg" xml:space="preserve" width="2480px" height="3508px" version="1.1" style="shape-rendering:geometricPrecision; text-rendering:geometricPrecision; image-rendering:optimizeQuality; fill-rule:evenodd; clip-rule:evenodd"
viewBox="0 0 2480 3507"
 xmlns:xlink="http://www.w3.org/1999/xlink">
 <defs>
  <style type="text/css">
   <![CDATA[
    .fil0 {fill:#FEFEFE}
   ]]>
  </style>
 </defs>
 <g id="Camada_x0020_1">
  <metadata id="CorelCorpID_0Corel-Layer"/>
  <path class="fil0" d="M2462 1052c30,144 43,324 43,583 0,252 -12,465 -54,637 32,20 70,32 111,32l156 0c76,0 138,-63 136,-140 -1,-40 -2,-80 -4,-120 -8,-190 -25,-380 -58,-567 -31,-173 -65,-370 -143,-529 -52,-106 -146,-202 -274,-186 -4,1 -11,2 -20,4 13,21 25,44 37,68 30,63 53,134 70,217z"/>
  <path class="fil0" d="M-122 2304l156 0c41,0 79,-12 111,-32 -4,-16 -8,-33 -11,-50 -30,-146 -44,-328 -44,-587 0,-259 13,-439 44,-584 17,-83 41,-155 71,-217 11,-24 24,-46 37,-67 -9,-2 -17,-4 -21,-4 -127,-16 -222,80 -274,186 -78,159 -113,356 -143,529 -33,187 -51,377 -58,567 -2,40 -3,80 -4,120 0,1 0,2 0,4 1,75 61,136 136,136z"/>
  <path class="fil0" d="M240 2151c45,264 144,419 341,505 -3,-16 -4,-32 -4,-44 0,-46 14,-115 81,-183 41,-42 97,-78 167,-107 128,-55 297,-85 474,-85 177,0 345,30 474,85 216,92 248,221 248,290 0,13 -1,29 -5,45 198,-86 297,-240 342,-505 24,-140 32,-310 32,-517 0,-393 -31,-649 -137,-813 -144,-222 -425,-277 -954,-277 -529,0 -810,56 -954,279 -106,165 -137,420 -137,812 0,207 8,377 32,516zm1731 -443c64,0 116,52 116,116 0,64 -52,116 -116,116 -64,0 -116,-52 -116,-116 0,-64 52,-116 116,-116zm-1343 0c64,0 116,52 116,116 0,64 -52,116 -116,116 -64,0 -116,-52 -116,-116 0,-64 52,-116 116,-116z"/>
  <path class="fil0" d="M1298 2353c-334,0 -605,116 -605,258 0,33 14,64 41,93 27,30 66,57 116,80 91,43 216,73 356,82 30,2 61,3 93,3 31,0 62,-1 92,-3 140,-9 264,-39 355,-82 49,-23 89,-50 116,-80 27,-29 41,-61 41,-94 0,-143 -271,-259 -605,-259z"/>
 </g>
</svg>
