<?xml version="1.0" encoding="UTF-8"?>
<!DOCTYPE svg PUBLIC "-//W3C//DTD SVG 1.1//EN" "http://www.w3.org/Graphics/SVG/1.1/DTD/svg11.dtd">
<!-- Creator: CorelDRAW X6 -->
<svg xmlns="http://www.w3.org/2000/svg" xml:space="preserve" width="2480px" height="3508px" version="1.1" style="shape-rendering:geometricPrecision; text-rendering:geometricPrecision; image-rendering:optimizeQuality; fill-rule:evenodd; clip-rule:evenodd"
viewBox="0 0 2480 3507"
 xmlns:xlink="http://www.w3.org/1999/xlink">
 <defs>
  <style type="text/css">
   <![CDATA[
    .fil0 {fill:#FEFEFE}
   ]]>
  </style>
 </defs>
 <g id="Camada_x0020_1">
  <metadata id="CorelCorpID_0Corel-Layer"/>
  <g id="halloween-black-cat.eps">
   <path class="fil0" d="M2013 2810c-13,-109 -133,-121 -203,-114 -74,-280 185,-698 201,-797 16,-106 -76,-725 -86,-1038 -10,-322 -477,-677 -555,-620 -77,85 111,201 12,300 -96,96 -121,160 -192,268 -182,277 312,280 312,280 0,0 -387,287 -473,431 -79,133 -113,282 -208,408 -218,286 -169,785 -169,785 0,0 -413,-135 -186,-607 173,-359 258,-889 -131,-752 -151,53 34,164 66,199 106,119 16,319 -48,434 -80,145 -137,292 -137,429l0 2c0,155 73,296 264,402 161,89 377,111 596,114l555 2c183,9 390,-25 382,-125z"/>
  </g>
 </g>
</svg>
