<?xml version="1.0" encoding="UTF-8"?>
<!DOCTYPE svg PUBLIC "-//W3C//DTD SVG 1.1//EN" "http://www.w3.org/Graphics/SVG/1.1/DTD/svg11.dtd">
<!-- Creator: CorelDRAW X6 -->
<svg xmlns="http://www.w3.org/2000/svg" xml:space="preserve" width="96px" height="96px" version="1.1" style="shape-rendering:geometricPrecision; text-rendering:geometricPrecision; image-rendering:optimizeQuality; fill-rule:evenodd; clip-rule:evenodd"
viewBox="0 0 9600000 9600000"
 xmlns:xlink="http://www.w3.org/1999/xlink">
 <defs>
  <style type="text/css">
   <![CDATA[
    .fil0 {fill:#FEFEFE}
   ]]>
  </style>
 </defs>
 <g id="Camada_x0020_1">
  <metadata id="CorelCorpID_0Corel-Layer"/>
  <g id="_403449448">
   <path class="fil0" d="M8166260 2905748c86693,416457 124252,936969 124252,1686024 0,728740 -34606,1344803 -156142,1842165 92598,57874 202441,92598 321024,92598l451181 0c219803,0 399094,-182244 393307,-404882 -2953,-115748 -5787,-231378 -11575,-347008 -23150,-549567 -72283,-1099016 -167717,-1639843 -89646,-500315 -188031,-1069961 -413622,-1529882 -150354,-306496 -422244,-584173 -792402,-537874 -11575,2953 -31772,5787 -57756,11575 37559,60709 72283,127205 107008,196654 86693,182244 153189,387520 202441,627638l0 2835z"/>
   <path class="fil0" d="M693307 6526535l451181 0c118583,0 228425,-34724 321024,-92598 -11575,-46181 -23150,-95433 -31890,-144567 -86693,-422244 -127205,-948543 -127205,-1697598 0,-749055 37559,-1269567 127205,-1688976 49252,-240000 118583,-448228 205394,-627520 31772,-69449 69331,-132992 107008,-193701 -26102,-5787 -49252,-11575 -60709,-11575 -367323,-46299 -642047,231378 -792402,537874 -225591,459803 -326811,1029567 -413622,1529882 -95433,540827 -147520,1090276 -167717,1639724 -5787,115630 -8740,231378 -11575,347008 0,2953 0,5787 0,11575 2835,216969 176457,393307 393307,393307l0 -2835z"/>
   <path class="fil0" d="M1740236 6084094c130157,763465 416457,1211693 986102,1460433 -8622,-46299 -11575,-92598 -11575,-127323 0,-132992 40512,-332480 234331,-529134 118583,-121535 280512,-225591 482953,-309449 370157,-159094 858898,-245906 1370787,-245906 511890,0 997677,86811 1370787,245906 624685,265984 717165,639094 717165,838583 0,37677 -2835,83858 -14409,130157 572598,-248740 858898,-694016 989055,-1460433 69449,-404882 92598,-896457 92598,-1495157 0,-1136575 -89646,-1876890 -396260,-2351220 -416457,-641929 -1229055,-801024 -2758937,-801024 -1529882,0 -2342480,161929 -2758937,806811 -306614,477165 -396260,1214646 -396260,2348386 0,598583 23150,1090276 92598,1492205l0 -2835zm5005984 -1281260c185079,0 335433,150472 335433,335551 0,185079 -150354,335433 -335433,335433 -185079,0 -335433,-150354 -335433,-335433 0,-185079 150354,-335551 335433,-335551zm-3883937 0c185079,0 335433,150472 335433,335551 0,185079 -150354,335433 -335433,335433 -185079,0 -335433,-150354 -335433,-335433 0,-185079 150354,-335551 335433,-335551z"/>
   <path class="fil0" d="M4799882 6668268c-965906,0 -1749567,335433 -1749567,746102 0,95433 40394,185079 118583,268937 78071,86811 190866,164882 335433,231378 263150,124370 624685,211063 1029567,237165 86693,5787 176339,8622 268937,8622 89646,0 179291,-2835 266102,-8622 404882,-26102 763465,-112795 1026614,-237165 141732,-66496 257362,-144567 335433,-231378 78071,-83858 118583,-176457 118583,-271890 0,-413504 -783661,-748937 -1749685,-748937l0 5787z"/>
  </g>
 </g>
</svg>
