<?xml version="1.0" encoding="UTF-8"?>
<!DOCTYPE svg PUBLIC "-//W3C//DTD SVG 1.1//EN" "http://www.w3.org/Graphics/SVG/1.1/DTD/svg11.dtd">
<!-- Creator: CorelDRAW X6 -->
<svg xmlns="http://www.w3.org/2000/svg" xml:space="preserve" width="96px" height="96px" version="1.1" style="shape-rendering:geometricPrecision; text-rendering:geometricPrecision; image-rendering:optimizeQuality; fill-rule:evenodd; clip-rule:evenodd"
viewBox="0 0 9600000 9600000"
 xmlns:xlink="http://www.w3.org/1999/xlink">
 <defs>
  <style type="text/css">
   <![CDATA[
    .fil0 {fill:white}
   ]]>
  </style>
 </defs>
 <g id="Camada_x0020_1">
  <metadata id="CorelCorpID_0Corel-Layer"/>
  <g id="hamster-facing-right.eps">
   <path class="fil0" d="M7004055 2785630c0,0 -355394,-711024 -710906,-711024 -237047,0 -355512,237047 -473976,829488 -592441,236929 -1421929,-118465 -2488346,-118465 -355512,0 -3080906,0 -3080906,2369882 0,1540394 1066535,2251299 1658976,2369882 118465,0 711024,0 711024,0 236929,0 355394,0 473858,-118583 0,-236929 -829370,-355394 -947953,-355394 -118465,0 -118465,-355512 355512,-237047 711024,237047 1777441,118465 2132953,0 236929,-118465 473976,355512 592441,473976 118465,237047 355512,237047 355512,237047l947953 0c236929,0 118465,-237047 -355512,-355512 -473976,-118465 -236929,-355512 0,-473976 237047,-118465 592441,-592441 947953,-710906 2251417,-355512 2251417,-1777441 2132953,-2014370 592441,-592559 -1777441,-1185000 -2251417,-1185000l0 0 -118 0z"/>
  </g>
 </g>
</svg>
