<?xml version="1.0" encoding="UTF-8"?>
<!DOCTYPE svg PUBLIC "-//W3C//DTD SVG 1.1//EN" "http://www.w3.org/Graphics/SVG/1.1/DTD/svg11.dtd">
<!-- Creator: CorelDRAW X6 -->
<svg xmlns="http://www.w3.org/2000/svg" xml:space="preserve" width="2480px" height="3508px" version="1.1" style="shape-rendering:geometricPrecision; text-rendering:geometricPrecision; image-rendering:optimizeQuality; fill-rule:evenodd; clip-rule:evenodd"
viewBox="0 0 2480 3507"
 xmlns:xlink="http://www.w3.org/1999/xlink">
 <defs>
  <style type="text/css">
   <![CDATA[
    .fil0 {fill:#FEFEFE}
   ]]>
  </style>
 </defs>
 <g id="Camada_x0020_1">
  <metadata id="CorelCorpID_0Corel-Layer"/>
  <path class="fil0" d="M605 2466l-92 0c-3,-3 -4,-8 -8,-10 -15,-11 -18,-20 -14,-37 1,-5 3,-10 5,-15 6,-19 3,-28 -13,-39 -16,-11 -24,-25 -21,-45 1,-7 1,-14 3,-20 6,-23 14,-45 19,-68 12,-57 19,-116 19,-174 0,-20 0,-40 0,-60 0,-13 4,-22 15,-28 10,-6 20,-13 27,-21 33,-41 49,-89 54,-141 5,-48 -4,-95 -18,-140 -20,-61 -40,-121 -47,-186 -5,-37 0,-70 19,-101 2,-3 5,-6 6,-10 10,-27 2,-42 -22,-49 -17,-4 -33,-4 -50,1 -40,11 -74,54 -76,97 -1,32 7,60 25,87 14,21 30,40 43,61 19,30 34,61 34,98 0,28 -4,53 -17,77 45,75 30,188 -3,217l0 -53c-1,29 -12,55 -25,80 -11,20 -23,38 -36,56 -11,16 -39,-115 -26,-160 10,-36 0,-67 -15,-98 1,17 12,33 8,53 -3,-3 -5,-5 -6,-7 -4,-21 -16,-38 -30,-53 -17,-19 -35,-37 -51,-56 -21,-26 -41,-54 -51,-86 -7,-23 -18,-45 -29,-66 -9,-17 -15,-36 -23,-54l0 -92c1,-2 3,-3 3,-5 10,-54 35,-99 77,-134 44,-36 92,-54 150,-46 33,5 66,13 97,27 31,14 61,16 92,-1 40,-22 81,-41 124,-54 39,-12 80,-17 120,-12 41,5 82,15 123,24 54,13 108,24 165,21 2,0 5,0 7,0 47,0 92,-5 135,-26 30,-15 59,-32 84,-54 30,-26 60,-52 90,-78 14,-12 29,-23 39,-38 17,-23 36,-43 61,-58 12,-7 23,-16 27,-30 7,-21 23,-34 43,-42 16,-7 30,-15 41,-28 16,-18 37,-28 61,-27 11,0 19,-4 24,-14l133 0c1,1 2,3 3,3 13,3 28,0 40,9 1,1 5,1 6,0 10,-5 20,-1 29,4 13,7 26,13 41,12 5,0 9,3 14,6 8,4 16,8 25,12 8,4 18,6 24,12 25,23 52,45 70,75 4,6 10,11 16,16 13,10 27,20 40,30 7,6 14,10 24,10 13,0 26,0 39,0l0 9c-7,5 -14,9 -21,14 5,4 10,7 16,11 -11,7 -22,12 -31,18 -11,8 -23,6 -36,5 0,16 -8,25 -20,32 -3,2 -6,5 -8,8 -6,5 -8,12 -5,19 8,20 -2,34 -15,44 -19,15 -29,35 -37,57 -15,40 -32,79 -48,119 -3,7 -5,14 -7,22 -3,14 -6,17 -20,21 -7,1 -15,3 -21,7 -29,17 -66,-2 -70,-36 -1,-6 -2,-12 -6,-16 -14,-17 -16,-21 -2,-37 12,-14 15,-31 12,-47 -4,-29 -9,-57 -20,-84 -10,-25 -12,-52 3,-77 2,-4 2,-8 3,-12 -3,-2 -3,-4 -5,-4 -31,-8 -62,14 -63,46 0,28 -1,57 0,85 2,54 -8,106 -27,157 -12,33 -13,63 7,94 12,18 15,40 9,60 -6,23 -1,44 2,66 1,10 7,14 17,14 25,1 48,8 70,20 33,16 65,30 102,32 17,1 28,13 27,31 -1,15 2,30 3,45 2,23 -1,44 -17,64 -31,38 -60,77 -80,122 -9,21 -24,31 -48,32 -17,0 -36,1 -50,13 -23,21 -51,23 -78,27 -11,1 -19,-5 -21,-14 -2,-24 10,-43 22,-61 10,-15 25,-12 39,-13 13,0 25,-1 36,11 3,3 12,2 20,3 1,-6 2,-9 3,-13 5,-16 12,-27 30,-30 8,-1 16,-7 21,-13 16,-18 31,-38 40,-61 5,-11 5,-22 1,-33 -3,-8 -5,-17 -6,-27 -2,-12 -8,-17 -20,-16 -9,1 -18,5 -27,6 -28,4 -55,10 -84,10 -23,0 -47,-3 -68,-15 -15,-9 -32,-13 -51,-10 -10,2 -19,3 -29,3 -10,0 -17,3 -22,13 -16,33 -31,67 -39,103 -3,13 -8,26 -13,39 -6,17 -14,34 -19,51 -8,30 -10,60 -9,91 0,11 -1,23 -4,34 -13,41 -18,83 -23,126 -2,13 -5,26 -4,38 2,17 6,34 10,51 2,11 6,22 7,33 1,13 6,23 18,30 9,5 17,11 26,14 31,11 42,37 53,65 -5,3 -8,6 -12,6 -30,8 -59,7 -88,0 -14,-3 -20,-13 -20,-27 0,-8 0,-15 0,-23 1,-20 -8,-33 -26,-42 -5,-2 -10,-4 -15,-6 -13,-4 -19,-12 -19,-25 0,-16 0,-32 1,-48 2,-36 7,-71 8,-107 1,-21 -4,-42 -6,-63 -1,-16 -2,-33 -1,-50 1,-23 7,-45 7,-68 0,-49 -1,-98 -5,-147 -1,-20 -8,-40 -15,-60 -7,-18 -21,-30 -41,-32 -12,-1 -24,-1 -37,1 -33,3 -66,10 -100,12 -39,1 -79,3 -119,-3 -37,-6 -73,-15 -107,-31 -11,-5 -23,-7 -37,-12 -2,15 -5,28 -16,36 -1,1 -1,5 -1,7 -2,13 -3,26 -5,38 -2,23 -6,47 -8,70 -3,35 -18,67 -21,103 -3,41 -5,81 3,121 14,68 39,132 76,190 20,31 44,57 78,72 10,4 19,9 29,14 22,12 42,41 46,69 -13,2 -26,6 -40,6 -20,0 -39,-2 -59,-5 -16,-2 -29,-19 -24,-35 5,-16 0,-26 -11,-36 -11,-10 -22,-17 -37,-15 -21,1 -35,-9 -44,-27 -3,-5 -5,-11 -7,-17 -25,-67 -51,-134 -86,-197 -9,-17 -18,-36 -31,-51 -19,-21 -18,-43 -11,-68 16,-52 18,-105 7,-158 -7,-36 -30,-64 -57,-88 -3,2 -6,3 -7,4 -18,15 -36,31 -54,45 -25,18 -43,42 -57,68 -24,42 -54,79 -88,114 -8,8 -16,18 -23,28 -26,32 -45,69 -58,108 -15,47 -24,96 -33,144 -3,18 -1,37 8,54 8,15 12,29 7,46 -4,15 -1,30 14,38 24,14 33,39 46,61 5,7 1,13 -2,19z"/>
 </g>
</svg>
