<?xml version="1.0" encoding="UTF-8"?>
<!DOCTYPE svg PUBLIC "-//W3C//DTD SVG 1.1//EN" "http://www.w3.org/Graphics/SVG/1.1/DTD/svg11.dtd">
<!-- Creator: CorelDRAW X6 -->
<svg xmlns="http://www.w3.org/2000/svg" xml:space="preserve" width="2480px" height="3508px" version="1.1" style="shape-rendering:geometricPrecision; text-rendering:geometricPrecision; image-rendering:optimizeQuality; fill-rule:evenodd; clip-rule:evenodd"
viewBox="0 0 2480 3507"
 xmlns:xlink="http://www.w3.org/1999/xlink">
 <defs>
  <style type="text/css">
   <![CDATA[
    .fil0 {fill:#FEFEFE}
   ]]>
  </style>
 </defs>
 <g id="Camada_x0020_1">
  <metadata id="CorelCorpID_0Corel-Layer"/>
  <path class="fil0" d="M2251 2440c80,369 -320,449 -496,401 -176,-48 -536,-56 -536,-56 0,0 -361,8 -537,56 -176,48 -577,-32 -497,-401 80,-369 433,-353 529,-850 96,-497 505,-465 505,-465 0,0 408,-32 504,465 96,497 448,481 528,850zm-662 -1347c217,63 457,-109 536,-383 79,-274 -33,-546 -250,-609 -217,-63 -457,109 -536,383 -79,274 33,546 250,609zm899 -100c-209,-85 -466,59 -573,323 -108,264 -26,547 183,632 209,85 466,-59 573,-323 108,-264 26,-547 -183,-632zm-1641 100c217,-63 329,-335 250,-609 -79,-274 -319,-445 -536,-382 -217,63 -329,335 -250,609 79,274 319,445 536,382zm-509 856c209,-85 291,-368 183,-632 -108,-264 -364,-409 -573,-323 -147,60 -231,218 -231,397l0 0c0,76 15,156 47,234 108,264 364,409 573,323z"/>
 </g>
</svg>
