<?xml version="1.0" encoding="UTF-8"?>
<!DOCTYPE svg PUBLIC "-//W3C//DTD SVG 1.1//EN" "http://www.w3.org/Graphics/SVG/1.1/DTD/svg11.dtd">
<!-- Creator: CorelDRAW X6 -->
<svg xmlns="http://www.w3.org/2000/svg" xml:space="preserve" width="2480px" height="3508px" version="1.1" style="shape-rendering:geometricPrecision; text-rendering:geometricPrecision; image-rendering:optimizeQuality; fill-rule:evenodd; clip-rule:evenodd"
viewBox="0 0 2480 3507"
 xmlns:xlink="http://www.w3.org/1999/xlink">
 <defs>
  <style type="text/css">
   <![CDATA[
    .fil0 {fill:#FEFEFE}
   ]]>
  </style>
 </defs>
 <g id="Camada_x0020_1">
  <metadata id="CorelCorpID_0Corel-Layer"/>
  <g id="dog.eps">
   <path class="fil0" d="M2408 1299c-5,-13 -15,-23 -27,-28l-210 -85c-13,-68 -65,-122 -131,-139l-11 -130c-2,-19 -14,-35 -33,-41 -18,-6 -38,-1 -51,13l-54 59 -33 -117c-6,-20 -24,-34 -45,-35 0,0 -1,0 -1,0l-1 0c-20,0 -38,13 -45,32l-249 687c0,0 -922,43 -922,43 -189,11 -368,-90 -456,-258 -12,-24 -42,-33 -65,-20 -16,9 -26,25 -26,42l0 1c0,7 2,15 6,22 79,150 218,256 378,294 -17,19 -52,67 -73,143 -23,82 -31,212 52,378l-135 184c-8,11 -11,24 -9,37l59 322c4,23 24,39 47,39l61 0c14,0 28,-6 37,-17 9,-11 13,-25 10,-40l-38 -207 398 -299c1,-1 -1,1 0,0 38,-32 66,-67 86,-104 208,36 492,86 674,115l80 510c4,23 24,41 48,41l50 0c27,0 48,-22 48,-48l0 -518c45,-31 61,-83 72,-133 0,-2 107,-495 107,-495 20,3 41,5 61,5 141,0 270,-83 337,-216 6,-12 7,-26 2,-39z"/>
  </g>
 </g>
</svg>
