<?xml version="1.0" encoding="UTF-8"?>
<!DOCTYPE svg PUBLIC "-//W3C//DTD SVG 1.0//EN" "http://www.w3.org/TR/2001/REC-SVG-20010904/DTD/svg10.dtd">
<!-- Creator: CorelDRAW X6 -->
<svg xmlns="http://www.w3.org/2000/svg" xml:space="preserve" width="96px" height="96px" version="1.0" style="shape-rendering:geometricPrecision; text-rendering:geometricPrecision; image-rendering:optimizeQuality; fill-rule:evenodd; clip-rule:evenodd"
viewBox="0 0 96 96"
 xmlns:xlink="http://www.w3.org/1999/xlink">
 <defs>
  <style type="text/css">
   <![CDATA[
    .fil0 {fill:white}
   ]]>
  </style>
 </defs>
 <g id="Camada_x0020_1">
  <metadata id="CorelCorpID_0Corel-Layer"/>
  <path class="fil0" d="M78 77c2,11 -10,14 -15,12 -5,-1 -16,-2 -16,-2 0,0 -11,0 -16,2 -5,1 -18,-1 -15,-12 2,-11 13,-11 16,-25 3,-15 15,-14 15,-14 0,0 13,-1 15,14 3,15 14,15 16,25zm-19 -40c7,2 14,-3 16,-12 2,-8 -1,-17 -8,-19 -7,-2 -14,3 -16,12 -2,8 1,17 8,19zm27 -3c-6,-3 -14,2 -18,10 -3,8 -1,17 6,19 6,3 14,-2 18,-10 3,-8 1,-17 -6,-19l0 0zm-49 3c7,-2 10,-10 8,-19 -2,-8 -10,-14 -16,-12 -7,2 -10,10 -8,19 2,8 10,14 16,12zm-16 25c6,-3 9,-11 6,-19 -3,-8 -11,-13 -18,-10 -5,2 -7,7 -7,12l0 0c0,2 0,5 1,7 3,8 11,13 18,10l0 0 0 0z"/>
 </g>
</svg>
