<?xml version="1.0" encoding="UTF-8"?>
<!DOCTYPE svg PUBLIC "-//W3C//DTD SVG 1.1//EN" "http://www.w3.org/Graphics/SVG/1.1/DTD/svg11.dtd">
<!-- Creator: CorelDRAW X6 -->
<svg xmlns="http://www.w3.org/2000/svg" xml:space="preserve" width="96px" height="96px" version="1.1" style="shape-rendering:geometricPrecision; text-rendering:geometricPrecision; image-rendering:optimizeQuality; fill-rule:evenodd; clip-rule:evenodd"
viewBox="0 0 9600000 9600000"
 xmlns:xlink="http://www.w3.org/1999/xlink">
 <defs>
  <style type="text/css">
   <![CDATA[
    .fil0 {fill:black}
   ]]>
  </style>
 </defs>
 <g id="Camada_x0020_1">
  <metadata id="CorelCorpID_0Corel-Layer"/>
  <path class="fil0" d="M9182362 3271772c-559016,-438898 -1467283,-797480 -2756457,-284882 -214606,-233268 -459213,-418819 -725433,-550748 93898,-211417 148110,-458031 148110,-721890 0,-781417 -469016,-1414252 -1048346,-1414252 -579331,0 -1049291,632835 -1049291,1414252 0,263858 54921,510472 147756,721890 -264803,131929 -510472,317480 -724370,550748 -1289291,-512598 -2197441,-154016 -2757283,284882 -72283,56339 -113622,140079 -117047,227244l0 23150c1063,31181 7087,62480 18307,92835 45472,124370 165354,205630 297874,201732 633543,-14173 1323071,214134 1840512,437835 -125787,393189 -196299,825472 -196299,1278543 0,773504 204094,1483110 544488,2047087 -373346,468543 -500906,971575 -523228,1398898 -6614,130984 72638,251693 196417,299409 123780,48780 264921,12520 350079,-87874 228307,-269764 527126,-501024 835630,-695197 342402,224764 727205,353740 1136457,353740 409016,0 794055,-128976 1136457,-353740 308504,194173 607323,425433 835630,695197 84921,100394 226299,136654 350079,87874 123780,-47008 203031,-168425 196299,-299409 -21260,-427323 -150000,-930354 -523346,-1398898 340394,-563976 544724,-1273583 544724,-2047087 0,-453071 -69803,-885354 -196417,-1278543 517323,-223701 1207087,-452008 1840394,-437835 132520,3898 252638,-77362 297874,-201732 44528,-123425 4961,-261850 -99567,-343228z"/>
 </g>
</svg>
