<?xml version="1.0" encoding="UTF-8"?>
<!DOCTYPE svg PUBLIC "-//W3C//DTD SVG 1.1//EN" "http://www.w3.org/Graphics/SVG/1.1/DTD/svg11.dtd">
<!-- Creator: CorelDRAW X6 -->
<svg xmlns="http://www.w3.org/2000/svg" xml:space="preserve" width="2480px" height="3508px" version="1.1" style="shape-rendering:geometricPrecision; text-rendering:geometricPrecision; image-rendering:optimizeQuality; fill-rule:evenodd; clip-rule:evenodd"
viewBox="0 0 2480 3507"
 xmlns:xlink="http://www.w3.org/1999/xlink">
 <defs>
  <style type="text/css">
   <![CDATA[
    .fil0 {fill:#FEFEFE}
   ]]>
  </style>
 </defs>
 <g id="Camada_x0020_1">
  <metadata id="CorelCorpID_0Corel-Layer"/>
  <g id="fish.eps">
   <path class="fil0" d="M2376 969c-101,-101 -249,-151 -416,-150 -157,1 -331,46 -501,133 -13,172 52,356 191,495 110,110 247,173 384,189 267,-322 407,-603 342,-668zm-371 124c-30,30 -79,30 -109,0 -30,-30 -30,-79 0,-109 30,-30 79,-30 110,0 30,30 30,79 0,109z"/>
   <path class="fil0" d="M1332 1027c-26,17 -51,35 -77,54l-60 -32c-52,-27 -117,-18 -159,24l-423 423c-30,30 -44,74 -38,116 7,42 33,79 71,100l96 50c-96,224 -148,444 -163,583l-418 144c-19,6 -32,24 -33,44l0 5c1,18 11,34 28,42l182 86c36,17 64,45 81,81l86 182c8,18 27,29 47,28 20,-1 37,-14 43,-33l144 -418c196,-32 536,-182 831,-408l33 102c6,18 21,32 40,37 19,5 38,-1 52,-15l35 -35c27,-27 44,-63 46,-102l13 -180c51,-52 100,-104 147,-155 -136,-32 -268,-102 -377,-211 -144,-144 -221,-329 -230,-511z"/>
  </g>
 </g>
</svg>
