<?xml version="1.0" encoding="UTF-8"?>
<!DOCTYPE svg PUBLIC "-//W3C//DTD SVG 1.1//EN" "http://www.w3.org/Graphics/SVG/1.1/DTD/svg11.dtd">
<!-- Creator: CorelDRAW X6 -->
<svg xmlns="http://www.w3.org/2000/svg" xml:space="preserve" width="96px" height="96px" version="1.1" style="shape-rendering:geometricPrecision; text-rendering:geometricPrecision; image-rendering:optimizeQuality; fill-rule:evenodd; clip-rule:evenodd"
viewBox="0 0 9600000 9600000"
 xmlns:xlink="http://www.w3.org/1999/xlink">
 <defs>
  <style type="text/css">
   <![CDATA[
    .fil0 {fill:#FEFEFE}
   ]]>
  </style>
 </defs>
 <g id="Camada_x0020_1">
  <metadata id="CorelCorpID_0Corel-Layer"/>
  <path class="fil0" d="M1829173 8201929l-383386 0c0,0 0,0 0,0 -95787,-95906 -95787,-95906 -95787,-191693 0,0 0,0 0,-95787 0,-95906 0,-95906 -95906,-191693 -95787,-95906 -95787,-95906 -95787,-191693 0,0 0,-95906 0,-95906 0,-95787 95787,-191575 95787,-287480 95906,-287480 95906,-479055 95906,-766654 0,-95787 0,-191693 0,-287480 0,-95787 0,-95787 95787,-95787 0,0 95906,-95906 95906,-95906 191693,-191693 191693,-383268 191693,-574961 0,-191693 0,-383268 -95906,-574961 -95787,-287480 -191693,-575079 -191693,-862559 0,-191575 0,-287480 95906,-479055 0,0 0,0 0,0 0,-95906 0,-191693 -95906,-191693 -95787,0 -191693,0 -191693,0 -191575,95787 -287480,191693 -287480,383268 0,95906 0,287480 95906,383386 95787,95787 95787,191575 191693,287480 95787,95787 191693,287480 191693,479173 0,95787 0,191693 -95906,383268 191693,287480 95906,862559 0,958346l0 -191693c0,95787 -95787,287480 -95787,383268 -95906,95906 -95906,191693 -191693,287598 -95906,95787 -191693,-479173 -95906,-670866 0,-191693 0,-287480 -95787,-479173 0,95906 95787,191693 0,191693 0,0 0,0 0,0 0,-95787 -95787,-191693 -95787,-191693 -95906,-95787 -191693,-191693 -191693,-287480 -95906,-95787 -191693,-191693 -191693,-383268 0,-95906 -95906,-191693 -95906,-287480 0,-95906 -95787,-191693 -95787,-191693l0 -383386c0,0 0,0 0,0 0,-191575 191693,-479055 383268,-574961 191693,-191693 383386,-191693 670866,-191693 191693,0 287480,95906 383386,95906 95787,95787 287480,95787 383268,0 191693,-95906 383268,-191693 574961,-191693 191693,-95906 383386,-95906 575079,-95906 191575,0 383268,95906 574961,95906 191693,95787 479173,95787 766654,95787 0,0 0,0 0,0 191693,0 383386,0 574961,-95787 95906,-95906 287598,-95906 383386,-191693 95787,-95787 287480,-191693 383268,-383268 95906,-95906 95906,-95906 191693,-191693 95906,-95906 191693,-191693 287480,-287480 95906,0 95906,-95906 95906,-95906 0,-95787 95787,-191693 191693,-191693 95787,0 95787,-95787 191693,-95787 95787,-95787 191575,-95787 287480,-95787 95787,0 95787,0 95787,-95906l575079 0c0,0 0,0 0,0 95787,0 95787,0 191575,0 0,0 0,0 0,0 0,0 95906,0 95906,0 95787,0 95787,95906 191693,95906 0,0 0,0 95787,0 0,0 95906,0 95906,95787 0,0 95787,0 95787,95787 95906,95906 191693,191693 287480,287598 0,0 0,95787 95906,95787 95787,0 95787,95906 191693,95906 0,0 95787,0 95787,0 95906,0 95906,0 191693,0l0 0c0,0 -95787,0 -95787,95787 0,0 0,0 95787,95787 -95787,0 -95787,95906 -95787,95906 -95906,0 -95906,0 -191693,0 0,95787 0,95787 -95906,95787 0,0 0,0 0,0 0,0 0,95906 0,95906 0,95787 0,191693 -95787,191693 -95906,95787 -95906,191575 -191693,287480 -95787,191693 -95787,383268 -191693,479173 0,0 0,95787 0,95787 0,95906 0,95906 -95787,95906 0,0 -95906,0 -95906,0 -95787,95787 -287480,0 -287480,-191693 0,0 0,-95906 0,-95906 -95787,-95787 -95787,-95787 0,-191693 95906,-95787 95906,-95787 95906,-191575 0,-95906 0,-287480 -95906,-383386 0,-95787 -95787,-191693 0,-383268 0,0 0,0 0,-95906 0,0 0,0 0,0 -95787,0 -287480,95906 -287480,191693 0,95906 0,287480 0,383386 0,191575 0,479055 -95787,670748 -95906,191693 -95906,287598 0,383386 95787,95787 95787,191693 0,287480 0,95787 0,191693 0,287480 0,0 0,95906 95787,95906 95906,0 191693,0 287598,95787 191575,95906 287480,95906 479055,95906 95906,0 95906,95787 95906,95787 0,95906 0,95906 0,191693 0,95787 0,191693 -95906,287480 -95787,191693 -287480,383386 -383268,575079 0,95787 -95787,95787 -191693,95787 -95787,0 -191693,0 -191693,95787 -95787,95906 -191693,95906 -383268,95906 -95906,0 -95906,0 -95906,-95906 0,-95787 0,-191575 95906,-287480 0,-95787 95787,-95787 191693,-95787 95787,0 95787,0 191693,95787 0,0 95787,0 95787,0 0,0 0,0 0,-95787 0,-95787 95787,-95787 95787,-95787 0,0 95906,0 95906,-95906 95787,-95787 95787,-191693 191693,-287480 0,-95787 0,-95787 0,-191693 0,0 0,-95787 0,-95787 0,-95906 0,-95906 -95906,-95906 0,0 -95787,0 -95787,0 -95906,0 -287480,0 -383386,0 -95787,0 -191575,0 -287480,-95787 -95787,0 -95787,-95787 -191575,0 0,0 -95906,0 -95906,0 0,0 -95787,0 -95787,95787 -95906,191693 -95906,287598 -191693,479173 0,95906 0,95906 -95906,191693 0,95906 -95787,191693 -95787,191693 0,95787 0,287480 0,383268 0,95906 0,95906 0,191693 -95787,191693 -95787,383386 -95787,575079 0,95787 0,95787 0,191575 0,95906 0,191693 0,191693 0,95906 0,95906 0,191693 0,95906 0,95906 95787,95906 0,0 95787,95787 95787,95787 95906,95906 191693,191693 191693,287480 0,0 0,0 -95787,0 -95906,0 -287480,0 -383386,0 -95787,0 -95787,-95787 -95787,-95787 0,0 0,-95787 0,-95787 0,-95906 0,-191693 -95787,-191693 0,0 0,0 -95906,0 -95787,0 -95787,-95906 -95787,-95906 0,-95787 0,-95787 0,-191693 0,-191693 0,-287480 0,-479173 0,-95787 0,-191575 0,-287480 0,-95787 0,-191575 0,-191575 0,-95906 0,-191693 0,-287480 0,-191693 0,-479173 0,-670866 0,-95906 0,-191693 -95906,-287480 0,-95906 -95787,-95906 -191693,-95906 -95787,0 -95787,0 -191693,0 -191575,0 -287480,0 -479055,95906 -191693,0 -383386,0 -479173,0 -191693,0 -287480,-95906 -479173,-95906 -95906,0 -95906,0 -191693,-95787 0,95787 0,95787 -95787,191693 0,0 0,0 0,0 0,95787 0,95787 0,191693 0,95787 0,191693 0,287480 0,191693 -95906,287480 -95906,479173 0,191693 0,383268 0,574961 95906,287598 191693,575079 287480,862559 95906,95787 191693,287480 383386,287480 0,0 95787,0 95787,95906 95906,95787 191693,191575 191693,287480 -95787,0 -95787,0 -191693,0 -95787,0 -191693,0 -287480,0 -95787,0 -95787,-95906 -95787,-191693 0,-95787 0,-95787 -95906,-191693 -95787,0 -95787,-95787 -191575,-95787 -95906,0 -191693,0 -191693,-95906 0,0 0,-95787 0,-95787 -95906,-287480 -191693,-574961 -383386,-862441 0,-95906 -95787,-191693 -95787,-191693 -95906,-95906 -95906,-191693 -95906,-287480 95906,-191693 95906,-479173 0,-670866 0,-191693 -95787,-287480 -287480,-383268 0,0 0,0 0,0 -95787,95787 -191575,95787 -191575,191575 -95906,95906 -191693,191693 -287480,287598 -95906,191693 -191693,383268 -383386,479173 0,0 -95787,95787 -95787,95787 -95906,95787 -191693,287480 -287480,479173 -95906,191693 -95906,383268 -191693,670866 0,95787 0,191575 0,191575 0,95906 95787,95906 0,191693 0,95906 0,95906 95787,191693 95906,95906 191693,191693 191693,287480 0,0 0,95906 0,95906l0 0 191575 -354z"/>
 </g>
</svg>
