<?xml version="1.0" encoding="UTF-8"?>
<!DOCTYPE svg PUBLIC "-//W3C//DTD SVG 1.1//EN" "http://www.w3.org/Graphics/SVG/1.1/DTD/svg11.dtd">
<!-- Creator: CorelDRAW X6 -->
<svg xmlns="http://www.w3.org/2000/svg" xml:space="preserve" width="96px" height="96px" version="1.1" style="shape-rendering:geometricPrecision; text-rendering:geometricPrecision; image-rendering:optimizeQuality; fill-rule:evenodd; clip-rule:evenodd"
viewBox="0 0 9600000 9600000"
 xmlns:xlink="http://www.w3.org/1999/xlink">
 <defs>
  <style type="text/css">
   <![CDATA[
    .fil0 {fill:#FEFEFE}
   ]]>
  </style>
 </defs>
 <g id="Camada_x0020_1">
  <metadata id="CorelCorpID_0Corel-Layer"/>
  <g id="_404957984">
   <path class="fil0" d="M9237165 1146260c-401575,-401457 -990000,-600354 -1653898,-596339 -624213,4016 -1315984,182953 -1991811,528780 -51614,683858 206693,1415315 759331,1967953 437362,437362 981969,687756 1526693,751417 1061457,-1280197 1618110,-2397402 1359685,-2655709l0 3898zm-1474961 492992c-119291,119291 -314055,119291 -433346,0 -119291,-119291 -119291,-314055 0,-433346 119291,-119291 314055,-119291 437244,0 119291,119291 119291,314055 0,433346l-3898 0z"/>
   <path class="fil0" d="M5086535 1376929c-103346,67559 -202677,139134 -306142,214606l-238465 -127205c-206811,-107362 -465236,-71575 -632126,95433l-1681772 1681654c-119173,119291 -174921,294213 -151063,461220 27874,167008 131220,314055 282283,397559l381732 198780c-381732,890551 -588425,1765157 -648071,2317795l-1661811 572480c-75591,23858 -127205,95433 -131220,174921l0 19843c4016,71575 43701,135236 111378,167008l723543 341929c143031,67559 254409,178937 321969,322087l341929 723543c31772,71575 107362,115276 186850,111260 79488,-3898 147047,-55630 170906,-131220l572598 -1661811c779173,-127205 2130945,-723543 3303661,-1622008l131220 405472c23858,71575 83504,127205 159094,147165 75472,19843 151063,-4016 206693,-59646l139134 -139134c107362,-107362 174921,-250512 182835,-405591l51732 -715630c202795,-206693 397559,-413386 584409,-616181 -540709,-127205 -1065472,-405472 -1498819,-838819 -572480,-572480 -878622,-1308071 -914409,-2031614l11929 -3898z"/>
  </g>
 </g>
</svg>
