<?xml version="1.0" encoding="UTF-8"?>
<!DOCTYPE svg PUBLIC "-//W3C//DTD SVG 1.1//EN" "http://www.w3.org/Graphics/SVG/1.1/DTD/svg11.dtd">
<!-- Creator: CorelDRAW X6 -->
<svg xmlns="http://www.w3.org/2000/svg" xml:space="preserve" width="96px" height="96px" version="1.1" style="shape-rendering:geometricPrecision; text-rendering:geometricPrecision; image-rendering:optimizeQuality; fill-rule:evenodd; clip-rule:evenodd"
viewBox="0 0 9600000 9600000"
 xmlns:xlink="http://www.w3.org/1999/xlink">
 <defs>
  <style type="text/css">
   <![CDATA[
    .fil0 {fill:#FEFEFE}
   ]]>
  </style>
 </defs>
 <g id="Camada_x0020_1">
  <metadata id="CorelCorpID_0Corel-Layer"/>
  <path class="fil0" d="M9198661 3078661c0,0 -101102,-101220 -101102,-101220l-808937 -303780c0,-303661 -202323,-506220 -505630,-506220l0 -506220c0,-101220 -101102,-101220 -101102,-202559 -101102,0 -101102,0 -202323,0l-202205 202559 -101102 -405000c0,-101220 -101102,-101220 -202323,-101220 0,0 0,0 0,0l0 0c-101102,0 -101102,0 -202205,101220l-910039 2632559c0,0 -3539173,202441 -3539173,202441 -707835,0 -1415787,-303661 -1719094,-1012441 0,-101220 -202205,-101220 -202205,-101220 -101220,0 -101220,101220 -101220,202441l0 0c0,0 0,101220 0,101220 303425,607559 809055,1012559 1415787,1113780 -101102,101220 -202323,303780 -303425,506220 -101102,303780 -101102,810000 202323,1417559l-505630 708780c0,0 0,101220 0,101220l202323 1215000c0,101220 101102,101220 202205,101220l202205 0c101220,0 101220,0 101220,-101220 0,0 0,-101220 0,-202559l-101220 -810000 1516772 -1113661c0,0 0,0 0,0 101220,-101339 303425,-303780 303425,-405000 808937,101220 1921299,303780 2629134,405000l303425 1923661c0,101339 101102,202559 202205,202559l202323 0c101102,0 202205,-101220 202205,-202559l0 -2025000c202205,-101220 202205,-303661 303425,-506220 0,0 404409,-1923780 404409,-1923780 101102,0 202205,0 202205,0 505630,0 1011260,-303661 1314685,-810000 0,0 0,-101220 0,-101220l0 0 -101339 303661z"/>
 </g>
</svg>
