<?xml version="1.0" encoding="UTF-8"?>
<!DOCTYPE svg PUBLIC "-//W3C//DTD SVG 1.1//EN" "http://www.w3.org/Graphics/SVG/1.1/DTD/svg11.dtd">
<!-- Creator: CorelDRAW X6 -->
<svg xmlns="http://www.w3.org/2000/svg" xml:space="preserve" width="2480px" height="3508px" version="1.1" style="shape-rendering:geometricPrecision; text-rendering:geometricPrecision; image-rendering:optimizeQuality; fill-rule:evenodd; clip-rule:evenodd"
viewBox="0 0 2480 3507"
 xmlns:xlink="http://www.w3.org/1999/xlink">
 <defs>
  <style type="text/css">
   <![CDATA[
    .fil0 {fill:#FEFEFE}
   ]]>
  </style>
 </defs>
 <g id="Camada_x0020_1">
  <metadata id="CorelCorpID_0Corel-Layer"/>
  <g id="hamster-facing-right.eps">
   <path class="fil0" d="M1770 1248c0,0 -100,-195 -197,-195 -51,0 -101,53 -136,216 -143,73 -374,-39 -648,-19 -95,7 -780,-9 -780,599 0,389 259,588 425,595 38,2 187,0 197,-1 51,-2 106,-5 107,-32 1,-56 -216,-79 -233,-92 -17,-12 -17,-87 83,-60 173,49 469,17 537,-2 68,-20 113,81 152,135 39,54 100,51 100,51l258 0c51,0 34,-57 -78,-82 -112,-24 -50,-81 0,-130 46,-45 162,-166 248,-180 571,-97 564,-450 556,-503 154,-146 -468,-293 -590,-300z"/>
  </g>
 </g>
</svg>
