<?xml version="1.0" encoding="UTF-8"?>
<!DOCTYPE svg PUBLIC "-//W3C//DTD SVG 1.1//EN" "http://www.w3.org/Graphics/SVG/1.1/DTD/svg11.dtd">
<!-- Creator: CorelDRAW X6 -->
<svg xmlns="http://www.w3.org/2000/svg" xml:space="preserve" width="96px" height="96px" version="1.1" style="shape-rendering:geometricPrecision; text-rendering:geometricPrecision; image-rendering:optimizeQuality; fill-rule:evenodd; clip-rule:evenodd"
viewBox="0 0 9600000 9600000"
 xmlns:xlink="http://www.w3.org/1999/xlink">
 <defs>
  <style type="text/css">
   <![CDATA[
    .fil0 {fill:white}
   ]]>
  </style>
 </defs>
 <g id="Camada_x0020_1">
  <metadata id="CorelCorpID_0Corel-Layer"/>
  <path class="fil0" d="M9300118 801024l-2709567 518740c-537874,-274488 -1146496,-429331 -1790669,-429331 -644055,0 -1252559,154843 -1790669,429331l-2709331 -518740 617717 3292441c-47008,243425 -71811,494409 -71811,751181 0,2180433 1773661,3954331 3954094,3954331 2180315,0 3954331,-1773898 3954331,-3954331 0,-256772 -24921,-507756 -71929,-751181l617835 -3292441zm-3712323 6404173c-312047,0 -593386,-128740 -788150,-342283 -194882,213780 -475748,343937 -787559,343937 -586890,0 -1064528,-487677 -1064528,-1079528l591850 0c0,276260 212008,487795 472677,487795 260669,0 472795,-200906 472795,-461575l-4252 -421890c-347480,-129921 -595630,-472205 -595630,-866811l591732 0c0,197362 144921,323150 323150,323150 178228,0 323268,-125787 323268,-323150l591850 0c0,394606 -248150,736772 -595748,866575l-4134 420354c0,257598 212008,460748 472677,460748 260669,0 472559,-208937 472559,-485197l591850 0c236,591850 -477402,1077874 -1064409,1077874z"/>
 </g>
</svg>
