<?xml version="1.0" encoding="UTF-8"?>
<!DOCTYPE svg PUBLIC "-//W3C//DTD SVG 1.1//EN" "http://www.w3.org/Graphics/SVG/1.1/DTD/svg11.dtd">
<!-- Creator: CorelDRAW X6 -->
<svg xmlns="http://www.w3.org/2000/svg" xml:space="preserve" width="96px" height="96px" version="1.1" style="shape-rendering:geometricPrecision; text-rendering:geometricPrecision; image-rendering:optimizeQuality; fill-rule:evenodd; clip-rule:evenodd"
viewBox="0 0 9600000 9600000"
 xmlns:xlink="http://www.w3.org/1999/xlink">
 <defs>
  <style type="text/css">
   <![CDATA[
    .fil0 {fill:#373435}
   ]]>
  </style>
 </defs>
 <g id="Camada_x0020_1">
  <metadata id="CorelCorpID_0Corel-Layer"/>
  <g id="train.eps">
   <path class="fil0" d="M9299882 5774528c0,-185669 -185551,-371220 -371102,-371220l-278386 0 0 -1392165c0,-278386 -185551,-464055 -463819,-464055l-278386 0c0,0 0,0 0,0 0,0 0,0 0,0l0 -835276c0,-185669 -185551,-371339 -371102,-371339l-927874 0c-185551,0 -371102,185669 -371102,371339l0 835276 0 0c0,0 0,0 0,0l-742205 0c-92835,0 -185669,-92835 -185669,-185669l0 -1577717c0,-278504 -185551,-464055 -463819,-464055l-3432992 0c-278386,0 -463937,185551 -463937,464055l0 3619606 -278386 0c-185551,0 -371102,185669 -371102,371220 0,185669 185551,371339 371102,371339l92835 0c0,92835 0,185551 0,278386 0,1020945 835039,1856339 1855630,1856339 649488,0 1206260,-371220 1577362,-835394 185551,464173 649488,742559 1206142,742559 463937,0 835039,-185669 1113425,-556890 278386,371220 649488,556890 1113425,556890 742205,0 1298976,-556890 1298976,-1299331 0,-278504 -92835,-464055 -185551,-649724l185551 0c185551,0 371102,-185669 371102,-371220l0 0 -118 -92953zm-7051535 -1763386l0 -1485000c0,-92835 92717,-92835 92717,-92835l1577362 0c92835,0 92835,92835 92835,92835l0 1485000c0,92717 -92835,92717 -92835,92717l-1577362 0c-92717,0 -92717,-92717 -92717,-92717zm463937 3526890c-649488,0 -1113425,-556890 -1113425,-1113780 0,-649724 556772,-1113780 1113425,-1113780 649488,0 1113425,556890 1113425,1113780 0,649724 -556772,1113780 -1113425,1113780zm2690669 -92835c-371102,0 -649488,-278386 -649488,-649724 0,-371220 278386,-649724 649488,-649724 371102,0 649488,278504 649488,649724 0,371220 -278268,649724 -649488,649724zm2134016 0c-371102,0 -649488,-278386 -649488,-649724 0,-371220 278386,-649724 649488,-649724 371102,0 649488,278504 649488,649724 0,371220 -278268,649724 -649488,649724z"/>
  </g>
 </g>
</svg>
